<svg width="104" height="104" viewBox="0 0 104 104" fill="none" xmlns="http://www.w3.org/2000/svg">
<path fill-rule="evenodd" clip-rule="evenodd" d="M74.1887 14.8931C75.8795 8.58288 72.1348 2.0968 65.8246 0.405987C59.5144 -1.28482 53.0283 2.45992 51.3375 8.77011L47.9655 21.3547L41.4513 10.0719C38.1849 4.41432 30.9506 2.4759 25.2931 5.74229C19.6355 9.00868 17.6971 16.243 20.9635 21.9005L27.4776 33.1832L14.8931 29.8112C8.58288 28.1204 2.0968 31.8652 0.405988 38.1753C-1.28482 44.4855 2.45992 50.9716 8.77011 52.6624L21.3554 56.0347L10.0724 62.5489C4.41479 65.8153 2.47637 73.0496 5.74276 78.7072C9.00916 84.3647 16.2434 86.3032 21.901 83.0368L33.1831 76.523L29.8113 89.1069C28.1205 95.4171 31.8652 101.903 38.1754 103.594C44.4856 105.285 50.9717 101.54 52.6625 95.2299L56.0345 82.6453L62.5489 93.9286C65.8153 99.5861 73.0496 101.525 78.7071 98.2581C84.3647 94.9917 86.3031 87.7575 83.0367 82.0999L76.5223 70.8166L89.1069 74.1886C95.4171 75.8794 101.903 72.1347 103.594 65.8245C105.285 59.5143 101.54 53.0282 95.2299 51.3374L82.6461 47.9656L93.929 41.4514C99.5866 38.185 101.525 30.9507 98.2586 25.2931C94.9922 19.6356 87.7579 17.6972 82.1004 20.9635L70.8165 27.4783L74.1887 14.8931Z" fill="#149770"/>
<g opacity="0.5">
<path d="M26.7264 42.3953L28.1244 42.7699L28.0616 43.0041L24.6359 47.9043L22.6507 47.3724L22.1303 41.4296L22.1967 41.1816L23.5668 41.5487L23.9674 46.4848L23.9953 46.4923L26.7264 42.3953Z" fill="white"/>
<path d="M29.4259 49.3355C28.6337 49.1232 28.1412 48.7057 27.9484 48.0831C27.7556 47.4605 27.7749 46.7174 28.0062 45.854C28.2401 44.9815 28.5961 44.3237 29.0744 43.8809C29.5644 43.4314 30.2009 43.3115 30.9838 43.5213C31.4312 43.6412 31.7644 43.8141 31.9836 44.0402C32.2051 44.2571 32.3566 44.4749 32.4378 44.6935C32.5191 44.9122 32.5614 45.0712 32.5647 45.1706L32.5927 45.178L32.8954 44.0483L34.3634 44.4416L32.8461 50.1042L31.6158 49.7746L31.6255 48.7878L31.5975 48.7803C31.5474 48.8555 31.4291 48.9616 31.2425 49.0987C31.0677 49.229 30.8255 49.3315 30.5158 49.406C30.2179 49.4739 29.8546 49.4504 29.4259 49.3355ZM30.3306 48.3079C30.8525 48.4478 31.2451 48.3807 31.5083 48.1067C31.7833 47.8259 31.9848 47.4468 32.1128 46.9691C32.2481 46.464 32.2645 46.0303 32.1617 45.668C32.059 45.3058 31.7513 45.056 31.2387 44.9186C30.8752 44.8212 30.5701 44.8231 30.3232 44.9243C30.0856 45.028 29.8904 45.1972 29.7376 45.4319C29.5966 45.66 29.4843 45.9301 29.4006 46.2424C29.3169 46.5547 29.2779 46.8494 29.2835 47.1266C29.2985 47.4063 29.3829 47.6504 29.5368 47.859C29.7025 48.0609 29.9671 48.2105 30.3306 48.3079Z" fill="white"/>
<path d="M33.8264 50.3669L35.3364 44.7319L36.5526 45.0578L36.4691 46.3201L36.4971 46.3276C36.5138 46.3025 36.5661 46.2378 36.654 46.1334C36.7537 46.0223 36.8944 45.9074 37.076 45.7887C37.267 45.6725 37.4984 45.5918 37.7703 45.5465C38.0539 45.4945 38.3821 45.5184 38.7549 45.6183C39.2676 45.7557 39.6366 45.9629 39.8621 46.2399C40.0875 46.5168 40.219 46.8277 40.2565 47.1725C40.2964 47.5081 40.2861 47.8449 40.2254 48.1831C40.1648 48.5212 40.0988 48.8235 40.0274 49.0899L39.2928 51.8316L37.8947 51.457L38.6331 48.7015C38.7143 48.3984 38.7602 48.1153 38.7707 47.8523C38.7837 47.5802 38.7167 47.3456 38.5696 47.1487C38.4344 46.9451 38.1897 46.7959 37.8355 46.701C37.4627 46.6011 37.1563 46.6076 36.9163 46.7205C36.6762 46.8334 36.4833 47.013 36.3373 47.2594C36.1938 47.4966 36.0827 47.7622 36.004 48.0561L35.2804 50.7565L33.8264 50.3669Z" fill="white"/>
<path d="M42.7484 52.9052C41.891 52.6755 41.3506 52.2501 41.1274 51.6292C40.9067 50.999 40.9107 50.2569 41.1396 49.4027C41.3784 48.5117 41.7555 47.8498 42.2711 47.417C42.7866 46.9841 43.4638 46.8801 44.3026 47.1048C44.6661 47.2022 44.953 47.3431 45.1634 47.5274C45.3855 47.7051 45.5455 47.8907 45.6435 48.0843C45.7508 48.2804 45.8198 48.4515 45.8506 48.5976C45.8814 48.7437 45.8977 48.8317 45.8997 48.8618L45.9276 48.8693L46.821 45.5351L48.289 45.9284L46.2105 53.6852L44.9803 53.3556L45.0121 52.2861L44.9841 52.2786C44.9699 52.2945 44.9095 52.3522 44.8029 52.4516C44.7057 52.5535 44.5582 52.6567 44.3603 52.7612C44.1718 52.8682 43.9417 52.9444 43.6698 52.9897C43.4004 53.0258 43.0933 52.9976 42.7484 52.9052ZM43.5273 51.844C44.0585 51.9863 44.4778 51.9313 44.7852 51.679C45.1043 51.4199 45.3304 51.0424 45.4633 50.5464C45.5912 50.0688 45.5852 49.6438 45.4452 49.2716C45.317 48.8927 44.9919 48.6333 44.47 48.4935C44.0879 48.3911 43.7628 48.3926 43.4948 48.498C43.2386 48.5967 43.0341 48.7634 42.8813 48.9981C42.731 49.2236 42.6177 49.4787 42.5414 49.7635C42.4651 50.0482 42.4285 50.3338 42.4317 50.6201C42.4467 50.8998 42.5345 51.1497 42.6953 51.37C42.8678 51.5836 43.1451 51.7416 43.5273 51.844Z" fill="white"/>
<path d="M49.3315 54.6692C48.5393 54.4569 48.0468 54.0394 47.854 53.4168C47.6612 52.7942 47.6805 52.0511 47.9119 51.1877C48.1457 50.3152 48.5017 49.6574 48.98 49.2146C49.4701 48.7651 50.1065 48.6452 50.8894 48.855C51.3368 48.9749 51.6701 49.1478 51.8892 49.3739C52.1108 49.5908 52.2622 49.8086 52.3435 50.0272C52.4247 50.2459 52.467 50.4049 52.4704 50.5043L52.4983 50.5117L52.8011 49.382L54.269 49.7753L52.7517 55.4379L51.5214 55.1083L51.5311 54.1215L51.5031 54.114C51.453 54.1892 51.3347 54.2953 51.1481 54.4324C50.9733 54.5627 50.7311 54.6652 50.4215 54.7397C50.1236 54.8076 49.7603 54.7841 49.3315 54.6692ZM50.2362 53.6416C50.7581 53.7815 51.1507 53.7144 51.4139 53.4404C51.6889 53.1596 51.8904 52.7805 52.0184 52.3028C52.1538 51.7977 52.1701 51.364 52.0674 51.0017C51.9646 50.6395 51.657 50.3897 51.1444 50.2523C50.7809 50.1549 50.4757 50.1568 50.2288 50.258C49.9912 50.3617 49.7961 50.5309 49.6433 50.7656C49.5022 50.9937 49.3899 51.2638 49.3062 51.5761C49.2225 51.8884 49.1835 52.1831 49.1892 52.4603C49.2041 52.74 49.2886 52.9841 49.4425 53.1927C49.6081 53.3946 49.8727 53.5442 50.2362 53.6416Z" fill="white"/>
<path d="M53.8859 55.7418L55.9643 47.985L57.3623 48.3596L55.2839 56.1164L53.8859 55.7418Z" fill="white"/>
<path d="M59.1103 50.408C58.8003 50.3348 58.6137 50.211 58.5506 50.0365C58.4992 49.8554 58.5018 49.6592 58.5585 49.448C58.6126 49.2459 58.7106 49.0851 58.8525 48.9656C58.9944 48.8461 59.2145 48.8264 59.5127 48.9063C59.8017 48.9837 59.973 49.1084 60.0269 49.2803C60.09 49.4547 60.0945 49.643 60.0404 49.8451C59.9838 50.0563 59.8845 50.2217 59.7426 50.3412C59.6125 50.454 59.4017 50.4763 59.1103 50.408ZM56.6999 56.4959L58.2172 50.8332L59.6432 51.2153L58.1259 56.878L56.6999 56.4959Z" fill="white"/>
<path d="M59.3427 57.204L59.6159 56.1844L64.0642 53.5074L60.7788 52.6271L61.0631 51.5662L66.0121 52.8923L65.7389 53.9119L61.3605 56.6076L64.7717 57.5216L64.4874 58.5825L59.3427 57.204Z" fill="white"/>
<path d="M67.5306 59.5456C66.7384 59.3333 66.2459 58.9159 66.0531 58.2932C65.8603 57.6706 65.8796 56.9276 66.1109 56.0642C66.3447 55.1916 66.7008 54.5339 67.179 54.091C67.6691 53.6415 68.3056 53.5216 69.0885 53.7314C69.5359 53.8513 69.8691 54.0243 70.0882 54.2503C70.3098 54.4672 70.4612 54.685 70.5425 54.9037C70.6238 55.1223 70.6661 55.2813 70.6694 55.3807L70.6974 55.3882L71.0001 54.2584L72.468 54.6517L70.9507 60.3144L69.7205 59.9847L69.7301 58.9979L69.7022 58.9904C69.6521 59.0656 69.5337 59.1717 69.3472 59.3088C69.1724 59.4391 68.9302 59.5416 68.6205 59.6161C68.3226 59.684 67.9593 59.6605 67.5306 59.5456ZM68.4352 58.518C68.9572 58.6579 69.3498 58.5908 69.613 58.3168C69.888 58.0361 70.0895 57.6569 70.2175 57.1793C70.3528 56.6741 70.3691 56.2404 70.2664 55.8781C70.1637 55.5159 69.856 55.2661 69.3434 55.1287C68.9799 55.0313 68.6747 55.0332 68.4278 55.1345C68.1903 55.2382 67.9951 55.4074 67.8423 55.6421C67.7013 55.8701 67.5889 56.1402 67.5053 56.4525C67.4216 56.7648 67.3826 57.0596 67.3882 57.3367C67.4032 57.6164 67.4876 57.8605 67.6415 58.0691C67.8072 58.271 68.0717 58.4206 68.4352 58.518Z" fill="white"/>
<path d="M71.9311 60.577L73.4484 54.9144L74.6927 55.2478L74.3781 56.4778L74.406 56.4853C74.4252 56.451 74.4834 56.3829 74.5806 56.281C74.6803 56.1699 74.8151 56.0584 74.985 55.9464C75.1573 55.8252 75.3654 55.7382 75.6093 55.6854C75.8557 55.6234 76.1373 55.6349 76.4542 55.7198C76.9202 55.8447 77.2365 56.0623 77.403 56.3728C77.5721 56.674 77.6635 57.0037 77.6774 57.3618L77.7054 57.3693C77.7246 57.3351 77.7828 57.267 77.88 57.1651C77.989 57.0565 78.1331 56.9474 78.3123 56.8379C78.5033 56.7217 78.7254 56.6385 78.9786 56.5882C79.2343 56.5287 79.5252 56.5427 79.8514 56.6301C80.2149 56.7275 80.4876 56.8842 80.6694 57.1003C80.8537 57.3072 80.9745 57.5463 81.0316 57.8176C81.1006 58.0822 81.1227 58.3539 81.0979 58.6328C81.0825 58.9141 81.0415 59.1788 80.9751 59.4268C80.9204 59.6681 80.8721 59.8668 80.8303 60.023L80.0956 62.7647L78.8933 62.4426L79.6317 59.687C79.6686 59.5493 79.707 59.3873 79.7469 59.2011C79.7893 59.0057 79.8012 58.812 79.7827 58.62C79.7667 58.4188 79.7001 58.2385 79.583 58.0792C79.4659 57.9198 79.2768 57.8052 79.0159 57.7352C78.6897 57.6478 78.4193 57.6689 78.2048 57.7985C77.9927 57.9189 77.8184 58.1035 77.6817 58.3524C77.5476 58.5921 77.4424 58.8543 77.3661 59.139L76.6425 61.8395L75.4402 61.5173L76.1785 58.7618C76.2154 58.624 76.2539 58.462 76.2938 58.2758C76.3361 58.0804 76.3481 57.8867 76.3296 57.6947C76.3136 57.4935 76.247 57.3133 76.1299 57.1539C76.0127 56.9945 75.8237 56.8799 75.5627 56.81C75.2365 56.7226 74.9661 56.7436 74.7516 56.8732C74.5395 56.9936 74.3652 57.1782 74.2286 57.4271C74.0944 57.6668 73.9892 57.929 73.9129 58.2138L73.1893 60.9142L71.9311 60.577Z" fill="white"/>
</g>
</svg>
