<svg width="811" height="660" viewBox="0 0 811 660" fill="none" xmlns="http://www.w3.org/2000/svg">
<path fill-rule="evenodd" clip-rule="evenodd" d="M508.79 513.88L640.687 549.222L654.992 495.835L700.53 508.037L714.835 454.65L495.007 395.747L480.702 449.134L523.095 460.493L508.79 513.88ZM452.61 384.387L466.915 331L774.675 413.464L760.37 466.851L452.61 384.387Z" fill="#149770"/>
<g opacity="0.5">
<path d="M558.339 425.741L561.589 413.614L564.43 414.376L563.738 417.796C563.995 417.316 564.361 416.866 564.837 416.446C565.338 416.011 565.943 415.709 566.65 415.54C567.383 415.357 568.248 415.399 569.245 415.666L569.694 415.786L568.792 419.15L568.344 419.03C566.629 418.57 565.359 418.525 564.534 418.894C563.713 419.244 563.132 420.058 562.789 421.336L561.39 426.559L558.339 425.741Z" fill="white"/>
<path d="M572.493 429.85C571.417 429.562 570.634 429.131 570.147 428.557C569.659 427.984 569.363 427.335 569.258 426.611C569.173 425.893 569.195 425.171 569.325 424.447C569.46 423.703 569.607 423.036 569.765 422.446L571.425 416.25L574.386 417.044L572.726 423.24C572.562 423.849 572.467 424.446 572.439 425.029C572.411 425.611 572.541 426.121 572.831 426.557C573.14 426.998 573.693 427.325 574.491 427.539C575.268 427.747 575.901 427.738 576.39 427.51C576.883 427.263 577.271 426.893 577.553 426.399C577.835 425.905 578.062 425.376 578.235 424.811L579.949 418.534L583.059 419.368L579.81 431.494L577.208 430.797L577.316 428.359L577.256 428.343C577.185 428.451 577.033 428.621 576.799 428.853C576.566 429.086 576.248 429.317 575.844 429.546C575.461 429.781 574.991 429.94 574.434 430.022C573.878 430.105 573.231 430.048 572.493 429.85Z" fill="white"/>
<path d="M589.629 434.441C588.871 434.238 588.262 433.959 587.801 433.604C587.366 433.234 587.031 432.849 586.797 432.449C586.582 432.054 586.429 431.708 586.338 431.409C586.267 431.116 586.227 430.947 586.217 430.903L586.158 430.887L584.134 438.44L580.993 437.599L585.689 420.072L588.351 420.785L588.148 423.577L588.208 423.593C588.244 423.54 588.358 423.391 588.552 423.148C588.765 422.91 589.056 422.661 589.425 422.401C589.814 422.147 590.299 421.971 590.88 421.874C591.467 421.757 592.15 421.803 592.927 422.012C594.761 422.503 595.922 423.436 596.409 424.81C596.895 426.184 596.888 427.806 596.387 429.675C595.887 431.543 595.077 432.929 593.959 433.831C592.847 434.713 591.403 434.917 589.629 434.441ZM589.381 431.656C590.219 431.88 590.902 431.884 591.43 431.667C591.983 431.436 592.414 431.066 592.721 430.558C593.053 430.036 593.301 429.47 593.464 428.86C593.628 428.25 593.681 427.653 593.624 427.068C593.592 426.469 593.391 425.941 593.022 425.484C592.659 425.007 592.068 424.659 591.251 424.44C590.134 424.141 589.244 424.271 588.581 424.832C587.924 425.372 587.458 426.154 587.184 427.177C586.899 428.239 586.914 429.181 587.228 430.003C587.547 430.806 588.265 431.356 589.381 431.656Z" fill="white"/>
<path d="M600.939 437.472C599.245 437.018 598.191 436.124 597.779 434.791C597.367 433.458 597.409 431.867 597.904 430.018C598.405 428.149 599.167 426.741 600.19 425.792C601.239 424.829 602.601 424.572 604.276 425.021C605.233 425.277 605.946 425.647 606.414 426.131C606.888 426.596 607.212 427.062 607.386 427.53C607.56 427.998 607.65 428.339 607.657 428.552L607.717 428.568L608.365 426.148L611.506 426.99L608.256 439.116L605.624 438.411L605.646 436.298L605.586 436.282C605.479 436.443 605.225 436.67 604.826 436.964C604.452 437.243 603.934 437.463 603.271 437.623C602.634 437.768 601.857 437.718 600.939 437.472ZM602.875 435.271C603.992 435.57 604.832 435.427 605.395 434.84C605.984 434.238 606.415 433.426 606.689 432.403C606.979 431.322 607.014 430.393 606.795 429.617C606.575 428.841 605.917 428.307 604.82 428.013C604.043 427.805 603.39 427.809 602.862 428.026C602.353 428.248 601.936 428.61 601.609 429.113C601.307 429.601 601.066 430.18 600.887 430.849C600.708 431.518 600.624 432.149 600.636 432.742C600.668 433.341 600.848 433.864 601.178 434.31C601.532 434.743 602.098 435.063 602.875 435.271Z" fill="white"/>
<path d="M616.867 441.424L620.1 429.356L622.702 430.053L622.523 432.756L622.583 432.772C622.618 432.719 622.73 432.58 622.919 432.356C623.132 432.118 623.433 431.872 623.822 431.618C624.23 431.369 624.725 431.196 625.307 431.099C625.914 430.987 626.616 431.038 627.414 431.252C628.51 431.546 629.3 431.989 629.782 432.583C630.264 433.176 630.545 433.841 630.625 434.579C630.71 435.298 630.688 436.019 630.558 436.744C630.428 437.468 630.287 438.115 630.134 438.685L628.561 444.557L625.57 443.756L627.151 437.855C627.325 437.205 627.423 436.599 627.446 436.036C627.474 435.453 627.331 434.951 627.016 434.53C626.727 434.094 626.204 433.774 625.446 433.571C624.648 433.357 623.993 433.372 623.479 433.613C622.966 433.855 622.553 434.24 622.24 434.768C621.933 435.276 621.695 435.845 621.527 436.474L619.977 442.257L616.867 441.424Z" fill="white"/>
<path d="M634.936 446.582C633.242 446.128 632.188 445.234 631.776 443.901C631.364 442.567 631.406 440.976 631.901 439.127C632.402 437.259 633.164 435.85 634.187 434.901C635.236 433.939 636.598 433.681 638.273 434.13C639.23 434.387 639.943 434.757 640.411 435.241C640.885 435.705 641.209 436.171 641.383 436.64C641.557 437.108 641.647 437.448 641.654 437.661L641.714 437.677L642.362 435.258L645.503 436.099L642.253 448.226L639.621 447.521L639.643 445.408L639.583 445.392C639.476 445.553 639.222 445.78 638.823 446.073C638.449 446.353 637.931 446.572 637.268 446.732C636.631 446.878 635.854 446.827 634.936 446.582ZM636.872 444.381C637.989 444.68 638.829 444.536 639.392 443.949C639.981 443.348 640.412 442.536 640.686 441.513C640.976 440.431 641.011 439.502 640.792 438.727C640.572 437.951 639.914 437.416 638.817 437.122C638.04 436.914 637.387 436.918 636.859 437.135C636.35 437.357 635.933 437.72 635.606 438.222C635.304 438.711 635.063 439.289 634.884 439.958C634.705 440.627 634.621 441.258 634.633 441.852C634.665 442.45 634.845 442.973 635.175 443.42C635.529 443.852 636.095 444.172 636.872 444.381Z" fill="white"/>
<path d="M571.92 459.365C570.763 459.055 569.777 458.549 568.961 457.845C568.151 457.122 567.587 456.233 567.272 455.179C566.961 454.105 566.982 452.909 567.335 451.591C567.728 450.283 568.321 449.23 569.112 448.43C569.923 447.635 570.856 447.105 571.91 446.84C572.984 446.579 574.12 446.609 575.316 446.93C576.532 447.256 577.506 447.77 578.237 448.471C578.993 449.159 579.51 449.941 579.788 450.816C580.072 451.672 580.138 452.502 579.987 453.305L577.176 452.551C577.266 451.015 576.445 450.015 574.71 449.55C573.633 449.262 572.709 449.362 571.937 449.851C571.185 450.345 570.669 451.113 570.39 452.156C570.084 453.297 570.118 454.286 570.492 455.124C570.891 455.948 571.648 456.51 572.765 456.809C573.523 457.012 574.233 456.991 574.897 456.748C575.581 456.509 576.095 456.025 576.44 455.295L579.252 456.049C578.965 456.878 578.473 457.6 577.774 458.214C577.095 458.833 576.254 459.261 575.25 459.499C574.266 459.741 573.156 459.696 571.92 459.365Z" fill="white"/>
<path d="M585.76 463.074C584.344 462.694 583.267 462.089 582.528 461.259C581.814 460.414 581.361 459.471 581.17 458.428C581.005 457.372 581.051 456.32 581.311 455.272C581.618 454.047 582.137 453.027 582.868 452.211C583.625 451.381 584.523 450.82 585.563 450.529C586.628 450.224 587.778 450.237 589.014 450.569C590.111 450.863 591.025 451.36 591.755 452.062C592.506 452.769 593.025 453.625 593.311 454.63C593.603 455.614 593.604 456.69 593.313 457.855C593.302 457.895 593.273 458.003 593.226 458.18C593.178 458.357 593.139 458.505 593.107 458.623L584.164 456.226C583.864 457.348 583.911 458.288 584.306 459.047C584.706 459.787 585.395 460.288 586.372 460.55C587.13 460.753 587.808 460.734 588.406 460.494C589.025 460.259 589.466 459.85 589.729 459.267L592.69 460.06C592.208 461.302 591.359 462.234 590.145 462.857C588.936 463.461 587.474 463.533 585.76 463.074ZM584.618 454.893L590.42 456.448C590.437 456.305 590.445 456.075 590.444 455.759C590.464 455.448 590.416 455.108 590.301 454.74C590.206 454.377 589.998 454.037 589.677 453.719C589.356 453.401 588.896 453.162 588.298 453.002C587.501 452.788 586.848 452.792 586.339 453.014C585.856 453.222 585.467 453.519 585.172 453.903C584.901 454.274 584.717 454.604 584.618 454.893Z" fill="white"/>
<path d="M599.006 466.623C598.488 466.484 597.933 466.241 597.343 465.893C596.772 465.55 596.245 465.124 595.762 464.615C595.298 464.112 594.951 463.534 594.72 462.881C594.514 462.215 594.514 461.498 594.719 460.731L597.53 461.484C597.52 461.523 597.493 461.664 597.45 461.905C597.412 462.127 597.423 462.404 597.483 462.736C597.569 463.054 597.762 463.37 598.063 463.682C598.364 463.995 598.854 464.242 599.532 464.424C600.329 464.637 600.964 464.66 601.437 464.491C601.915 464.303 602.204 464.022 602.304 463.648C602.42 463.216 602.32 462.831 602.004 462.493C601.714 462.141 601.301 461.809 600.765 461.497C600.229 461.184 599.653 460.861 599.037 460.528C598.446 460.18 597.899 459.791 597.394 459.36C596.91 458.935 596.551 458.439 596.319 457.87C596.092 457.283 596.081 456.605 596.287 455.838C596.587 454.717 597.272 453.994 598.342 453.669C599.418 453.325 600.663 453.342 602.079 453.721C603.076 453.989 603.961 454.394 604.734 454.939C605.512 455.464 606.071 456.13 606.41 456.938C606.754 457.726 606.784 458.651 606.5 459.713L603.688 458.96C603.872 458.355 603.853 457.865 603.633 457.49C603.438 457.101 603.138 456.788 602.731 456.553C602.343 456.322 601.951 456.154 601.552 456.047C600.834 455.855 600.251 455.836 599.804 455.99C599.382 456.13 599.118 456.396 599.013 456.79C598.891 457.242 598.976 457.644 599.266 457.996C599.582 458.334 600.008 458.659 600.544 458.971C601.1 459.289 601.673 459.621 602.264 459.969C602.88 460.303 603.44 460.685 603.944 461.115C604.469 461.551 604.847 462.053 605.079 462.621C605.337 463.175 605.363 463.836 605.157 464.603C604.846 465.763 604.126 466.498 602.996 466.807C601.892 467.101 600.562 467.04 599.006 466.623Z" fill="white"/>
<path d="M610.362 469.349C609.385 469.088 608.71 468.654 608.338 468.048C607.986 467.448 607.953 466.617 608.237 465.555L610.111 458.562L608.257 458.065L608.826 455.94C609.404 456.095 609.869 456.157 610.219 456.124C610.57 456.092 610.873 455.878 611.129 455.482C611.384 455.087 611.641 454.407 611.899 453.443L614.352 454.101L613.522 457.199L616.333 457.952L615.764 460.076L612.952 459.323L610.905 466.965L613.776 467.734L613.143 470.095L610.362 469.349Z" fill="white"/>
<path d="M621.076 457.8C620.413 457.643 620.013 457.378 619.878 457.005C619.769 456.617 619.774 456.197 619.896 455.744C620.012 455.311 620.221 454.967 620.525 454.711C620.829 454.455 621.3 454.413 621.938 454.584C622.556 454.749 622.922 455.016 623.037 455.384C623.172 455.758 623.182 456.161 623.066 456.594C622.945 457.046 622.732 457.4 622.429 457.656C622.15 457.898 621.699 457.946 621.076 457.8ZM615.915 470.838L619.165 458.711L622.215 459.528L618.966 471.655L615.915 470.838Z" fill="white"/>
</g>
<path fill-rule="evenodd" clip-rule="evenodd" d="M133.364 222.775L32.2235 262.868L0 181.55L354.554 41L398.557 115.344L335.003 167.985L387.275 155.233L408 240.213L171.14 298L133.364 222.775Z" fill="#C0BAE9"/>
<g opacity="0.5">
<path d="M195.717 201.52L194.347 198.059L200.836 195.491L198.552 189.723L198.48 189.752C198.475 189.809 198.439 190.032 198.37 190.421C198.325 190.8 198.187 191.258 197.955 191.794C197.722 192.331 197.351 192.867 196.84 193.403C196.344 193.905 195.639 194.337 194.726 194.699C192.539 195.564 190.689 195.491 189.176 194.477C187.663 193.464 186.464 191.84 185.58 189.605C184.657 187.274 184.405 185.233 184.824 183.483C185.257 181.699 186.556 180.379 188.718 179.522C189.68 179.142 190.535 178.984 191.283 179.049C192.022 179.09 192.653 179.244 193.175 179.51C193.697 179.775 194.097 180.048 194.374 180.327C194.676 180.597 194.853 180.763 194.905 180.826L194.977 180.797L193.729 177.539L197.514 176.041L203.879 192.118C204.659 194.088 204.809 195.627 204.33 196.734C203.875 197.832 202.83 198.704 201.196 199.351L195.717 201.52ZM194.652 191.142C195.998 190.609 196.81 189.815 197.087 188.76C197.355 187.681 197.232 186.493 196.718 185.195C196.224 183.946 195.526 183.026 194.626 182.438C193.716 181.825 192.588 181.785 191.243 182.318C190.257 182.708 189.574 183.228 189.192 183.88C188.801 184.507 188.619 185.205 188.645 185.973C188.686 186.707 188.853 187.447 189.148 188.192C189.443 188.937 189.825 189.62 190.293 190.241C190.776 190.828 191.367 191.233 192.067 191.457C192.781 191.646 193.643 191.541 194.652 191.142Z" fill="white"/>
<path d="M206.249 189.72L200.384 174.904L203.808 173.549L205.688 177.558C205.584 176.876 205.613 176.142 205.775 175.356C205.95 174.536 206.33 173.774 206.913 173.07C207.511 172.333 208.41 171.727 209.612 171.251L210.153 171.037L211.78 175.147L211.239 175.361C209.172 176.179 207.863 177.086 207.313 178.083C206.752 179.055 206.782 180.322 207.4 181.884L209.926 188.265L206.249 189.72Z" fill="white"/>
<path d="M223.474 183.318C221.432 184.127 219.702 184.005 218.285 182.954C216.868 181.903 215.712 180.247 214.818 177.988C213.914 175.705 213.619 173.696 213.932 171.959C214.26 170.19 215.434 168.905 217.452 168.106C218.606 167.649 219.6 167.492 220.434 167.634C221.26 167.752 221.936 167.985 222.462 168.333C222.989 168.68 223.336 168.96 223.503 169.171L223.575 169.143L222.405 166.187L226.19 164.689L232.055 179.504L228.883 180.76L227.314 178.587L227.242 178.616C227.255 178.861 227.172 179.283 226.993 179.882C226.827 180.448 226.473 181.061 225.928 181.721C225.398 182.348 224.58 182.88 223.474 183.318ZM223.761 179.619C225.107 179.086 225.842 178.309 225.965 177.287C226.103 176.231 225.925 175.079 225.43 173.829C224.907 172.507 224.243 171.533 223.439 170.906C222.635 170.279 221.572 170.228 220.251 170.751C219.313 171.122 218.661 171.616 218.294 172.234C217.951 172.842 217.805 173.526 217.855 174.284C217.92 175.009 218.114 175.78 218.437 176.597C218.761 177.415 219.152 178.121 219.61 178.718C220.093 179.306 220.667 179.704 221.334 179.912C222.015 180.088 222.824 179.99 223.761 179.619Z" fill="white"/>
<path d="M235.895 178.026L231.043 165.77L229.024 166.569L227.997 163.973L230.016 163.174L229.06 160.759C228.546 159.461 228.463 158.41 228.812 157.605C229.184 156.79 229.959 156.15 231.137 155.684L235.03 154.142L236.157 156.99L232.408 158.474L233.693 161.719L237.333 160.277L238.361 162.873L234.72 164.314L239.572 176.57L235.895 178.026Z" fill="white"/>
<path d="M242.003 156.552C241.22 156.89 240.62 156.919 240.203 156.639C239.801 156.326 239.491 155.893 239.272 155.34C239.062 154.812 239.014 154.303 239.126 153.813C239.238 153.324 239.679 152.927 240.448 152.623C241.193 152.328 241.761 152.325 242.154 152.615C242.571 152.895 242.884 153.299 243.093 153.828C243.312 154.38 243.365 154.901 243.253 155.39C243.155 155.846 242.739 156.233 242.003 156.552ZM246.636 173.732L240.771 158.916L244.448 157.461L250.313 172.277L246.636 173.732Z" fill="white"/>
<path d="M258.565 169.01C257.387 169.476 256.384 169.54 255.555 169.201C254.75 168.852 254.09 168.029 253.576 166.731L250.194 158.188L247.959 159.073L246.932 156.477C247.629 156.202 248.141 155.915 248.468 155.619C248.796 155.323 248.939 154.877 248.898 154.281C248.857 153.686 248.603 152.8 248.137 151.622L251.093 150.452L252.591 154.237L255.98 152.896L257.007 155.491L253.619 156.832L257.315 166.169L260.775 164.799L261.917 167.683L258.565 169.01Z" fill="white"/>
<path d="M260.626 149.18C259.842 149.518 259.242 149.547 258.825 149.267C258.423 148.954 258.113 148.521 257.894 147.968C257.685 147.439 257.636 146.931 257.748 146.441C257.86 145.952 258.301 145.555 259.07 145.251C259.815 144.956 260.384 144.953 260.776 145.243C261.193 145.523 261.506 145.927 261.715 146.456C261.934 147.008 261.987 147.529 261.875 148.018C261.778 148.474 261.361 148.861 260.626 149.18ZM265.258 166.36L259.393 151.544L263.07 150.089L268.935 164.904L265.258 166.36Z" fill="white"/>
</g>
<path fill-rule="evenodd" clip-rule="evenodd" d="M569.474 367.929C569.474 367.929 607.605 278.828 596.16 236.115C584.716 193.402 507.143 135.304 507.143 135.304C507.143 135.304 469.012 224.405 480.457 267.118C491.902 309.831 569.474 367.929 569.474 367.929ZM625.165 311.7C625.165 311.7 715.132 275.659 737.242 237.363C759.352 199.068 745.581 103.134 745.581 103.134C745.581 103.134 655.615 139.175 633.505 177.471C611.395 215.766 625.165 311.7 625.165 311.7Z" fill="#FFC56D"/>
<g opacity="0.5">
<path d="M517.071 233.248C516.776 232.891 516.507 232.442 516.266 231.901C516.037 231.373 515.881 230.808 515.798 230.205C515.726 229.616 515.774 229.032 515.942 228.452C516.135 227.875 516.499 227.365 517.034 226.921L518.638 228.855C518.611 228.878 518.521 228.965 518.367 229.115C518.228 229.254 518.095 229.457 517.969 229.723C517.868 229.993 517.845 230.313 517.899 230.685C517.953 231.057 518.173 231.477 518.56 231.943C519.015 232.492 519.453 232.824 519.872 232.939C520.306 233.042 520.653 232.986 520.914 232.77C521.215 232.519 521.34 232.196 521.289 231.798C521.262 231.403 521.139 230.961 520.918 230.473C520.698 229.984 520.455 229.467 520.189 228.924C519.948 228.382 519.759 227.833 519.621 227.276C519.494 226.732 519.493 226.201 519.617 225.68C519.756 225.149 520.092 224.661 520.627 224.217C521.409 223.569 522.261 223.395 523.182 223.696C524.117 223.985 524.989 224.617 525.797 225.591C526.366 226.277 526.786 227.006 527.056 227.778C527.339 228.538 527.396 229.29 527.225 230.034C527.069 230.766 526.62 231.44 525.879 232.055L524.274 230.12C524.711 229.781 524.947 229.423 524.982 229.047C525.042 228.673 524.988 228.301 524.82 227.93C524.663 227.574 524.471 227.259 524.243 226.984C523.833 226.491 523.431 226.187 523.037 226.075C522.667 225.964 522.345 226.023 522.071 226.251C521.755 226.512 521.611 226.841 521.637 227.236C521.689 227.633 521.825 228.076 522.045 228.565C522.277 229.067 522.513 229.589 522.754 230.131C523.02 230.675 523.222 231.225 523.36 231.782C523.509 232.353 523.522 232.899 523.398 233.419C523.298 233.941 522.981 234.424 522.446 234.868C521.637 235.54 520.754 235.704 519.799 235.362C518.868 235.023 517.959 234.318 517.071 233.248Z" fill="white"/>
<path d="M521.41 238.057L529.867 231.04L531.386 232.872L529.572 234.412L529.606 234.453C529.672 234.421 529.835 234.379 530.093 234.327C530.364 234.264 530.69 234.237 531.068 234.247C531.461 234.246 531.87 234.334 532.297 234.513C532.737 234.681 533.151 234.998 533.538 235.464C534.107 236.15 534.348 236.818 534.262 237.468C534.19 238.107 533.97 238.707 533.601 239.268L533.636 239.309C533.702 239.277 533.864 239.235 534.122 239.183C534.405 239.134 534.742 239.121 535.132 239.144C535.547 239.17 535.974 239.28 536.412 239.472C536.863 239.654 537.288 239.984 537.686 240.464C538.13 240.999 538.372 241.528 538.412 242.051C538.466 242.562 538.388 243.055 538.18 243.529C537.996 244.006 537.734 244.444 537.393 244.842C537.063 245.255 536.713 245.615 536.343 245.922C535.998 246.232 535.709 246.483 535.475 246.677L531.381 250.074L529.912 248.305L534.028 244.89C534.233 244.719 534.468 244.513 534.731 244.272C535.007 244.019 535.236 243.737 535.417 243.424C535.612 243.101 535.707 242.755 535.704 242.388C535.7 242.02 535.539 241.644 535.22 241.26C534.821 240.78 534.39 240.525 533.924 240.494C533.472 240.452 533.008 240.548 532.53 240.782C532.066 241.005 531.622 241.293 531.196 241.645L527.163 244.992L525.695 243.222L529.81 239.808C530.016 239.637 530.251 239.431 530.514 239.189C530.79 238.937 531.019 238.654 531.2 238.342C531.395 238.018 531.49 237.673 531.486 237.305C531.483 236.938 531.321 236.562 531.003 236.178C530.604 235.698 530.172 235.442 529.707 235.412C529.255 235.37 528.79 235.466 528.313 235.7C527.849 235.922 527.405 236.21 526.979 236.563L522.946 239.909L521.41 238.057Z" fill="white"/>
<path d="M535.753 255.763C534.945 254.789 534.491 253.823 534.39 252.864C534.314 251.907 534.474 251.011 534.868 250.174C535.287 249.34 535.855 248.614 536.571 247.997C537.41 247.277 538.295 246.809 539.227 246.592C540.184 246.377 541.103 246.425 541.986 246.735C542.894 247.047 543.7 247.629 544.406 248.479C545.032 249.234 545.425 250.042 545.585 250.905C545.757 251.782 545.689 252.649 545.381 253.507C545.087 254.353 544.541 255.119 543.743 255.804C543.716 255.827 543.64 255.889 543.517 255.992C543.394 256.094 543.291 256.179 543.208 256.248L538.103 250.095C537.321 250.744 536.877 251.437 536.771 252.174C536.678 252.899 536.91 253.598 537.468 254.27C537.901 254.792 538.389 255.116 538.935 255.242C539.491 255.383 540.011 255.311 540.493 255.027L542.183 257.064C541.212 257.708 540.138 257.949 538.963 257.79C537.802 257.618 536.732 256.943 535.753 255.763ZM539.101 249.372L542.413 253.364C542.498 253.27 542.62 253.111 542.781 252.885C542.952 252.673 543.091 252.408 543.197 252.088C543.314 251.783 543.34 251.437 543.274 251.051C543.209 250.665 543.005 250.267 542.664 249.855C542.209 249.306 541.745 248.985 541.273 248.89C540.825 248.798 540.4 248.815 539.996 248.942C539.616 249.071 539.318 249.215 539.101 249.372Z" fill="white"/>
<path d="M543.742 265.391C543.082 264.595 542.642 263.744 542.423 262.838C542.217 261.92 542.27 261.007 542.582 260.099C542.908 259.18 543.531 258.34 544.45 257.577C545.392 256.842 546.346 256.386 547.312 256.21C548.289 256.048 549.217 256.134 550.098 256.469C550.989 256.818 551.777 257.404 552.46 258.227C553.154 259.064 553.581 259.914 553.741 260.777C553.927 261.642 553.895 262.456 553.647 263.218C553.413 263.968 553.038 264.592 552.524 265.088L550.919 263.154C551.763 262.106 551.69 260.985 550.7 259.791C550.085 259.051 549.381 258.662 548.587 258.626C547.804 258.604 547.049 258.895 546.322 259.498C545.526 260.158 545.048 260.88 544.887 261.662C544.75 262.447 545.001 263.223 545.638 263.992C546.071 264.513 546.583 264.852 547.177 265.008C547.781 265.178 548.391 265.089 549.005 264.742L550.61 266.676C549.986 267.124 549.271 267.393 548.465 267.483C547.671 267.586 546.859 267.472 546.029 267.142C545.21 266.825 544.448 266.242 543.742 265.391ZM553.567 257.552L552.781 256.605L553.049 256.383L555.875 255.602L557.343 257.372L556.973 257.679L553.567 257.552Z" fill="white"/>
<path d="M551.643 274.913C550.835 273.939 550.38 272.973 550.279 272.014C550.204 271.058 550.363 270.161 550.758 269.324C551.177 268.49 551.745 267.764 552.46 267.147C553.299 266.428 554.185 265.959 555.116 265.742C556.073 265.527 556.993 265.575 557.875 265.885C558.783 266.197 559.59 266.779 560.296 267.629C560.922 268.384 561.315 269.193 561.475 270.056C561.646 270.932 561.578 271.799 561.271 272.657C560.977 273.503 560.431 274.269 559.633 274.954C559.605 274.977 559.53 275.039 559.407 275.142C559.283 275.244 559.18 275.33 559.098 275.398L553.993 269.245C553.211 269.894 552.767 270.587 552.66 271.324C552.567 272.05 552.8 272.748 553.358 273.421C553.79 273.942 554.279 274.266 554.824 274.393C555.381 274.533 555.9 274.461 556.382 274.177L558.073 276.214C557.101 276.858 556.028 277.1 554.853 276.94C553.692 276.768 552.622 276.093 551.643 274.913ZM554.991 268.522L558.303 272.514C558.388 272.42 558.51 272.261 558.67 272.035C558.842 271.823 558.981 271.558 559.086 271.238C559.203 270.933 559.229 270.587 559.164 270.201C559.098 269.815 558.895 269.417 558.553 269.005C558.098 268.457 557.634 268.135 557.162 268.04C556.715 267.948 556.289 267.965 555.885 268.092C555.506 268.222 555.208 268.365 554.991 268.522Z" fill="white"/>
</g>
<g opacity="0.5">
<path d="M653.086 251.562L643.935 246.298L645.055 244.352L647.22 245.091L647.246 245.046C647.21 245.006 647.121 244.885 646.978 244.684C646.829 244.459 646.693 244.162 646.568 243.793C646.452 243.408 646.415 242.97 646.46 242.48C646.497 241.965 646.688 241.41 647.031 240.813C647.503 239.993 648.032 239.454 648.617 239.195C649.203 238.936 649.805 238.856 650.424 238.954C651.027 239.043 651.611 239.22 652.173 239.484C652.736 239.748 653.234 240.004 653.666 240.253L658.118 242.815L656.831 245.052L652.357 242.478C651.864 242.195 651.391 241.982 650.937 241.84C650.468 241.689 650.028 241.694 649.618 241.855C649.201 241.993 648.83 242.345 648.504 242.911C648.161 243.508 648.033 244.04 648.122 244.508C648.21 244.975 648.436 245.393 648.8 245.762C649.149 246.121 649.562 246.438 650.039 246.713L654.424 249.236L653.086 251.562Z" fill="white"/>
<path d="M661.776 236.974C661.167 238.033 660.446 238.769 659.612 239.183C658.772 239.573 657.907 239.731 657.017 239.656C656.121 239.557 655.274 239.288 654.475 238.848C653.541 238.331 652.82 237.687 652.31 236.918C651.793 236.124 651.527 235.276 651.51 234.373C651.488 233.447 651.742 232.521 652.274 231.597C652.746 230.776 653.345 230.148 654.072 229.713C654.808 229.263 655.615 229.032 656.495 229.022C657.359 229.003 658.236 229.24 659.124 229.731C659.154 229.748 659.236 229.795 659.37 229.873C659.505 229.95 659.616 230.014 659.706 230.066L655.857 236.755C656.708 237.244 657.484 237.413 658.187 237.261C658.874 237.101 659.428 236.656 659.849 235.925C660.175 235.358 660.303 234.807 660.235 234.271C660.174 233.72 659.934 233.274 659.515 232.934L660.789 230.719C661.699 231.381 662.279 232.27 662.529 233.387C662.765 234.496 662.514 235.691 661.776 236.974ZM654.867 236.096L657.364 231.756C657.251 231.71 657.065 231.653 656.807 231.584C656.558 231.5 656.271 231.464 655.946 231.476C655.631 231.473 655.309 231.566 654.982 231.755C654.655 231.944 654.363 232.262 654.105 232.71C653.762 233.306 653.627 233.834 653.7 234.293C653.767 234.729 653.926 235.108 654.177 235.431C654.422 235.731 654.652 235.952 654.867 236.096Z" fill="white"/>
<path d="M655.7 223.416C655.432 223.917 655.131 224.181 654.798 224.208C654.459 224.211 654.118 224.114 653.775 223.916C653.446 223.728 653.21 223.483 653.066 223.181C652.922 222.88 652.987 222.491 653.261 222.013C653.527 221.551 653.823 221.314 654.147 221.302C654.48 221.275 654.811 221.356 655.139 221.545C655.482 221.742 655.726 221.992 655.87 222.293C656.008 222.571 655.951 222.945 655.7 223.416ZM665.232 230.449L656.037 225.159L657.35 222.877L666.545 228.167L665.232 230.449Z" fill="white"/>
<path d="M670.142 222.433C669.919 222.821 669.603 223.215 669.194 223.615C668.794 224 668.335 224.332 667.817 224.61C667.309 224.873 666.764 225.026 666.183 225.069C665.596 225.089 665.012 224.931 664.43 224.597L665.64 222.494C665.67 222.511 665.779 222.564 665.966 222.652C666.139 222.731 666.367 222.783 666.651 222.807C666.929 222.808 667.226 222.721 667.545 222.547C667.864 222.373 668.169 222.033 668.46 221.526C668.804 220.929 668.957 220.421 668.919 220.003C668.867 219.576 668.7 219.281 668.416 219.118C668.088 218.929 667.753 218.925 667.411 219.105C667.063 219.262 666.704 219.523 666.336 219.887C665.968 220.251 665.583 220.644 665.18 221.068C664.771 221.468 664.338 221.824 663.881 222.136C663.432 222.434 662.951 222.614 662.438 222.676C661.911 222.73 661.357 222.59 660.775 222.255C659.925 221.766 659.481 221.054 659.443 220.119C659.39 219.176 659.668 218.175 660.278 217.116C660.707 216.37 661.225 215.745 661.833 215.241C662.425 214.728 663.087 214.424 663.817 214.328C664.532 214.223 665.293 214.403 666.098 214.866L664.888 216.969C664.434 216.688 664.031 216.595 663.679 216.69C663.32 216.762 663.002 216.936 662.723 217.212C662.454 217.474 662.233 217.754 662.061 218.053C661.752 218.589 661.613 219.055 661.644 219.45C661.669 219.822 661.83 220.093 662.128 220.265C662.472 220.462 662.817 220.482 663.166 220.326C663.508 220.145 663.863 219.873 664.231 219.509C664.608 219.13 665 218.741 665.409 218.341C665.812 217.917 666.242 217.549 666.699 217.237C667.166 216.91 667.655 216.715 668.167 216.652C668.673 216.566 669.217 216.69 669.799 217.025C670.679 217.531 671.125 218.274 671.137 219.254C671.143 220.21 670.811 221.27 670.142 222.433Z" fill="white"/>
<path d="M676.539 211.313C676.213 211.88 675.856 212.31 675.469 212.604C675.076 212.874 674.691 213.059 674.315 213.161C673.948 213.247 673.633 213.294 673.37 213.302C673.116 213.295 672.97 213.29 672.932 213.288L672.906 213.332L678.633 216.627L677.282 218.977L663.993 211.331L665.138 209.34L667.371 210.118L667.396 210.073C667.36 210.033 667.263 209.908 667.106 209.698C666.957 209.473 666.816 209.184 666.683 208.829C666.558 208.46 666.518 208.029 666.562 207.539C666.591 207.039 666.773 206.499 667.108 205.917C667.897 204.545 668.903 203.814 670.127 203.723C671.35 203.633 672.67 203.995 674.087 204.811C675.504 205.626 676.461 206.584 676.96 207.684C677.443 208.776 677.303 209.986 676.539 211.313ZM674.216 210.9C674.577 210.274 674.724 209.723 674.66 209.249C674.588 208.752 674.378 208.323 674.029 207.964C673.674 207.581 673.265 207.256 672.803 206.99C672.341 206.724 671.865 206.55 671.377 206.467C670.882 206.361 670.409 206.407 669.958 206.604C669.492 206.793 669.083 207.193 668.732 207.804C668.251 208.639 668.169 209.386 668.485 210.045C668.786 210.694 669.324 211.242 670.1 211.688C670.905 212.152 671.676 212.347 672.413 212.275C673.135 212.193 673.736 211.735 674.216 210.9Z" fill="white"/>
<path d="M679.433 205.766L670.238 200.476L671.46 198.351L674.101 199.662C673.765 199.349 673.476 198.955 673.234 198.478C672.985 197.978 672.867 197.424 672.88 196.815C672.886 196.184 673.104 195.495 673.533 194.749L673.726 194.414L676.276 195.881L676.083 196.216C675.345 197.499 675.039 198.514 675.165 199.261C675.276 200 675.816 200.649 676.786 201.206L680.745 203.484L679.433 205.766Z" fill="white"/>
<path d="M685.756 195.293C685.027 196.561 684.075 197.214 682.901 197.254C681.727 197.293 680.439 196.909 679.037 196.103C677.62 195.287 676.633 194.363 676.077 193.328C675.515 192.27 675.594 191.114 676.315 189.862C676.727 189.146 677.179 188.652 677.673 188.38C678.152 188.1 678.601 187.941 679.019 187.904C679.438 187.867 679.734 187.869 679.909 187.91L679.935 187.865L678.1 186.809L679.452 184.46L688.647 189.75L687.514 191.719L685.797 191.237L685.771 191.282C685.879 191.404 686.011 191.658 686.166 192.045C686.314 192.408 686.383 192.875 686.373 193.445C686.356 193.991 686.151 194.607 685.756 195.293ZM684.372 193.247C684.853 192.411 684.914 191.702 684.555 191.118C684.189 190.511 683.619 189.984 682.843 189.538C682.023 189.066 681.274 188.833 680.595 188.84C679.916 188.847 679.341 189.26 678.869 190.08C678.534 190.662 678.399 191.19 678.464 191.664C678.537 192.123 678.744 192.54 679.085 192.914C679.419 193.265 679.839 193.587 680.346 193.878C680.854 194.17 681.35 194.376 681.836 194.497C682.331 194.603 682.796 194.573 683.229 194.405C683.657 194.215 684.038 193.828 684.372 193.247Z" fill="white"/>
<path d="M684.01 176.538L685.297 174.301L685.677 174.519L692.677 182.745L690.85 185.922L680.242 184.018L679.84 183.786L681.101 181.594L689.897 183.23L689.923 183.185L684.01 176.538Z" fill="white"/>
<path d="M695.306 178.175L686.156 172.911L687.276 170.965L689.441 171.704L689.467 171.659C689.431 171.619 689.341 171.498 689.199 171.297C689.05 171.072 688.913 170.775 688.789 170.405C688.672 170.021 688.636 169.583 688.68 169.093C688.718 168.578 688.909 168.023 689.252 167.426C689.724 166.606 690.253 166.067 690.838 165.808C691.424 165.549 692.026 165.469 692.644 165.567C693.248 165.656 693.831 165.833 694.394 166.097C694.957 166.361 695.454 166.617 695.887 166.866L700.339 169.428L699.052 171.665L694.577 169.091C694.085 168.807 693.612 168.595 693.158 168.453C692.689 168.302 692.249 168.307 691.839 168.468C691.422 168.605 691.051 168.958 690.725 169.524C690.382 170.121 690.254 170.653 690.342 171.121C690.431 171.588 690.657 172.006 691.021 172.374C691.37 172.734 691.783 173.051 692.26 173.326L696.645 175.848L695.306 178.175Z" fill="white"/>
<path d="M703.341 164.728C702.611 165.996 701.659 166.649 700.486 166.688C699.312 166.728 698.024 166.344 696.622 165.537C695.205 164.722 694.218 163.797 693.662 162.763C693.1 161.705 693.179 160.549 693.899 159.296C694.311 158.58 694.764 158.087 695.258 157.815C695.737 157.535 696.186 157.376 696.604 157.339C697.022 157.301 697.319 157.303 697.494 157.344L697.52 157.3L695.685 156.244L697.037 153.895L706.232 159.185L705.099 161.154L703.381 160.672L703.355 160.717C703.464 160.839 703.596 161.093 703.75 161.48C703.899 161.843 703.968 162.31 703.957 162.879C703.941 163.426 703.735 164.042 703.341 164.728ZM701.957 162.681C702.438 161.846 702.498 161.137 702.139 160.553C701.774 159.946 701.204 159.419 700.428 158.973C699.608 158.501 698.858 158.268 698.18 158.275C697.501 158.281 696.925 158.695 696.454 159.515C696.119 160.097 695.984 160.625 696.049 161.099C696.122 161.558 696.329 161.975 696.669 162.349C697.003 162.7 697.424 163.021 697.931 163.313C698.438 163.605 698.935 163.811 699.421 163.932C699.916 164.038 700.38 164.008 700.814 163.84C701.241 163.649 701.622 163.263 701.957 162.681Z" fill="white"/>
<path d="M682.536 252.13L673.341 246.84L674.564 244.715L677.204 246.026C676.868 245.713 676.579 245.318 676.337 244.842C676.089 244.342 675.971 243.787 675.983 243.179C675.989 242.548 676.207 241.859 676.636 241.113L676.829 240.777L679.379 242.245L679.186 242.58C678.448 243.863 678.142 244.878 678.268 245.625C678.379 246.364 678.919 247.012 679.889 247.57L683.849 249.848L682.536 252.13Z" fill="white"/>
<path d="M688.859 241.657C688.13 242.925 687.178 243.578 686.004 243.618C684.83 243.657 683.542 243.273 682.14 242.467C680.723 241.651 679.737 240.727 679.181 239.692C678.618 238.634 678.697 237.478 679.418 236.225C679.83 235.51 680.283 235.016 680.777 234.744C681.255 234.464 681.704 234.305 682.123 234.268C682.541 234.231 682.838 234.232 683.013 234.274L683.038 234.229L681.204 233.173L682.555 230.824L691.75 236.114L690.618 238.083L688.9 237.601L688.874 237.646C688.983 237.768 689.114 238.022 689.269 238.409C689.417 238.772 689.486 239.239 689.476 239.808C689.459 240.355 689.254 240.971 688.859 241.657ZM687.476 239.611C687.956 238.775 688.017 238.066 687.658 237.482C687.293 236.875 686.722 236.348 685.947 235.902C685.126 235.43 684.377 235.197 683.698 235.204C683.019 235.21 682.444 235.624 681.972 236.444C681.637 237.026 681.503 237.554 681.567 238.028C681.641 238.487 681.848 238.904 682.188 239.278C682.522 239.629 682.943 239.95 683.45 240.242C683.957 240.534 684.453 240.74 684.94 240.861C685.435 240.967 685.899 240.937 686.333 240.769C686.76 240.578 687.141 240.192 687.476 239.611Z" fill="white"/>
<path d="M695.103 230.804C694.88 231.192 694.564 231.585 694.155 231.985C693.755 232.371 693.296 232.702 692.779 232.98C692.27 233.243 691.726 233.397 691.145 233.44C690.558 233.459 689.974 233.302 689.392 232.967L690.602 230.864C690.632 230.881 690.74 230.934 690.928 231.022C691.101 231.102 691.329 231.153 691.613 231.178C691.89 231.179 692.188 231.092 692.507 230.918C692.825 230.744 693.13 230.403 693.422 229.896C693.765 229.299 693.918 228.792 693.881 228.374C693.829 227.946 693.661 227.651 693.378 227.488C693.05 227.3 692.715 227.295 692.373 227.476C692.024 227.633 691.666 227.893 691.298 228.257C690.93 228.621 690.544 229.015 690.142 229.438C689.733 229.838 689.3 230.195 688.842 230.507C688.393 230.804 687.912 230.984 687.4 231.047C686.873 231.101 686.318 230.961 685.736 230.626C684.886 230.137 684.442 229.425 684.404 228.49C684.352 227.546 684.63 226.545 685.239 225.486C685.668 224.74 686.187 224.116 686.794 223.611C687.387 223.099 688.048 222.795 688.779 222.698C689.494 222.594 690.254 222.773 691.06 223.237L689.85 225.34C689.396 225.059 688.993 224.966 688.64 225.061C688.282 225.132 687.963 225.306 687.685 225.583C687.415 225.845 687.194 226.125 687.023 226.423C686.714 226.96 686.575 227.426 686.606 227.821C686.63 228.192 686.792 228.464 687.09 228.635C687.433 228.833 687.779 228.853 688.127 228.696C688.469 228.516 688.824 228.243 689.192 227.88C689.569 227.501 689.962 227.111 690.371 226.711C690.773 226.288 691.203 225.92 691.661 225.607C692.127 225.28 692.616 225.085 693.129 225.023C693.635 224.937 694.179 225.061 694.76 225.396C695.64 225.902 696.086 226.645 696.099 227.624C696.104 228.581 695.773 229.64 695.103 230.804Z" fill="white"/>
<path d="M692.455 213.616L693.742 211.379L694.123 211.598L701.123 219.824L699.295 223L688.688 221.097L688.285 220.865L689.546 218.672L698.342 220.309L698.368 220.264L692.455 213.616Z" fill="white"/>
<path d="M695.099 207.417C694.807 207.924 694.49 208.198 694.149 208.24C693.801 208.258 693.448 208.164 693.09 207.959C692.732 207.753 692.481 207.499 692.337 207.198C692.201 206.881 692.279 206.47 692.571 205.963C692.845 205.485 693.149 205.233 693.482 205.206C693.815 205.18 694.161 205.269 694.519 205.475C694.877 205.681 695.135 205.939 695.294 206.249C695.438 206.55 695.373 206.94 695.099 207.417ZM695.11 209.002L696.423 206.72L707.43 213.052C708.235 213.516 708.71 214.037 708.853 214.616C709.005 215.179 708.871 215.827 708.451 216.558L707.524 218.168L705.757 217.152L706.632 215.63L695.11 209.002Z" fill="white"/>
<path d="M709.488 205.8C708.879 206.859 708.158 207.595 707.324 208.009C706.484 208.399 705.619 208.557 704.73 208.481C703.834 208.383 702.986 208.114 702.187 207.674C701.254 207.157 700.532 206.513 700.022 205.743C699.506 204.95 699.239 204.102 699.223 203.199C699.2 202.273 699.454 201.347 699.986 200.422C700.458 199.602 701.058 198.974 701.785 198.539C702.52 198.089 703.328 197.858 704.207 197.848C705.071 197.829 705.948 198.066 706.836 198.557C706.866 198.574 706.948 198.621 707.083 198.698C707.217 198.776 707.329 198.84 707.418 198.892L703.57 205.581C704.42 206.07 705.196 206.239 705.899 206.087C706.586 205.927 707.141 205.481 707.561 204.751C707.887 204.184 708.016 203.632 707.947 203.097C707.887 202.546 707.647 202.1 707.227 201.759L708.501 199.545C709.411 200.207 709.991 201.096 710.242 202.213C710.477 203.322 710.226 204.517 709.488 205.8ZM702.579 204.922L705.076 200.581C704.963 200.536 704.778 200.479 704.52 200.41C704.27 200.326 703.983 200.29 703.659 200.302C703.343 200.299 703.021 200.392 702.694 200.581C702.367 200.77 702.075 201.088 701.817 201.535C701.474 202.132 701.339 202.66 701.413 203.119C701.48 203.555 701.639 203.934 701.89 204.257C702.134 204.556 702.364 204.778 702.579 204.922Z" fill="white"/>
<path d="M714.476 196.612C714.056 197.343 713.559 197.792 712.987 197.959C712.423 198.111 711.738 197.955 710.933 197.492L705.631 194.441L704.833 195.829L703.222 194.902C703.471 194.469 703.619 194.108 703.667 193.818C703.715 193.528 703.605 193.236 703.337 192.943C703.069 192.65 702.569 192.293 701.838 191.872L702.894 190.038L705.243 191.389L706.453 189.286L708.063 190.213L706.854 192.316L712.648 195.65L713.884 193.502L715.673 194.532L714.476 196.612Z" fill="white"/>
<path d="M718.699 189.79C717.97 191.058 717.018 191.711 715.844 191.751C714.67 191.79 713.382 191.406 711.98 190.6C710.563 189.785 709.577 188.86 709.02 187.825C708.458 186.767 708.537 185.611 709.258 184.359C709.67 183.643 710.123 183.149 710.616 182.877C711.095 182.597 711.544 182.438 711.962 182.401C712.381 182.364 712.678 182.366 712.852 182.407L712.878 182.362L711.044 181.306L712.395 178.957L721.59 184.247L720.457 186.216L718.74 185.734L718.714 185.779C718.822 185.901 718.954 186.155 719.109 186.542C719.257 186.905 719.326 187.372 719.316 187.942C719.299 188.488 719.094 189.104 718.699 189.79ZM717.316 187.744C717.796 186.908 717.857 186.199 717.498 185.615C717.133 185.008 716.562 184.481 715.787 184.035C714.966 183.563 714.217 183.331 713.538 183.337C712.859 183.344 712.284 183.757 711.812 184.577C711.477 185.159 711.342 185.687 711.407 186.161C711.481 186.62 711.687 187.037 712.028 187.411C712.362 187.762 712.782 188.084 713.29 188.375C713.797 188.667 714.293 188.873 714.78 188.994C715.274 189.1 715.739 189.07 716.172 188.902C716.6 188.712 716.981 188.325 717.316 187.744Z" fill="white"/>
</g>
<path fill-rule="evenodd" clip-rule="evenodd" d="M348.985 416.626C352.988 401.689 344.123 386.335 329.186 382.333C314.249 378.331 298.896 387.195 294.893 402.132L286.912 431.92L271.492 405.213C263.76 391.821 246.636 387.232 233.244 394.964C219.851 402.696 215.263 419.821 222.995 433.213L238.415 459.921L208.625 451.939C193.688 447.937 178.334 456.801 174.332 471.738C170.33 486.675 179.194 502.029 194.131 506.031L223.921 514.013L197.213 529.433C183.821 537.165 179.232 554.29 186.964 567.682C194.696 581.074 211.821 585.663 225.213 577.931L251.92 562.512L243.938 592.3C239.936 607.237 248.8 622.59 263.737 626.593C278.674 630.595 294.027 621.731 298.03 606.794L306.012 577.003L321.433 603.713C329.165 617.105 346.289 621.694 359.682 613.962C373.074 606.23 377.662 589.105 369.93 575.713L354.51 549.005L384.299 556.986C399.236 560.989 414.59 552.124 418.592 537.187C422.594 522.25 413.73 506.897 398.793 502.895L369.004 494.913L395.713 479.493C409.105 471.761 413.694 454.636 405.962 441.244C398.23 427.852 381.105 423.263 367.713 430.995L341.003 446.416L348.985 416.626Z" fill="#917D6E"/>
<g opacity="0.5">
<path d="M236.636 481.728L239.945 482.615L239.796 483.169L231.687 494.769L226.988 493.509L225.756 479.442L225.913 478.855L229.157 479.724L230.105 491.408L230.171 491.426L236.636 481.728Z" fill="white"/>
<path d="M243.026 498.156C241.151 497.654 239.985 496.666 239.528 495.192C239.072 493.718 239.118 491.959 239.665 489.915C240.219 487.85 241.062 486.293 242.194 485.245C243.354 484.181 244.86 483.897 246.714 484.393C247.773 484.677 248.561 485.087 249.08 485.622C249.605 486.135 249.963 486.651 250.155 487.168C250.348 487.686 250.448 488.062 250.456 488.297L250.522 488.315L251.239 485.641L254.713 486.572L251.122 499.976L248.21 499.196L248.232 496.86L248.166 496.842C248.048 497.02 247.768 497.271 247.326 497.596C246.912 497.904 246.339 498.147 245.606 498.323C244.901 498.484 244.041 498.428 243.026 498.156ZM245.167 495.724C246.403 496.055 247.332 495.896 247.955 495.248C248.606 494.583 249.083 493.686 249.386 492.555C249.706 491.359 249.745 490.332 249.502 489.475C249.259 488.618 248.53 488.026 247.317 487.701C246.457 487.471 245.734 487.475 245.15 487.715C244.587 487.96 244.125 488.361 243.764 488.916C243.43 489.456 243.164 490.095 242.966 490.835C242.768 491.574 242.675 492.272 242.689 492.928C242.724 493.59 242.924 494.168 243.288 494.661C243.681 495.139 244.307 495.493 245.167 495.724Z" fill="white"/>
<path d="M253.442 500.598L257.017 487.259L259.896 488.03L259.698 491.019L259.764 491.036C259.804 490.977 259.928 490.824 260.136 490.577C260.372 490.314 260.705 490.042 261.135 489.761C261.587 489.486 262.134 489.294 262.778 489.187C263.449 489.064 264.226 489.121 265.109 489.357C266.322 489.683 267.196 490.173 267.73 490.829C268.263 491.484 268.574 492.22 268.663 493.036C268.758 493.831 268.733 494.628 268.59 495.429C268.446 496.229 268.29 496.944 268.121 497.575L266.382 504.065L263.073 503.178L264.82 496.656C265.013 495.938 265.121 495.268 265.146 494.646C265.177 494.001 265.018 493.446 264.67 492.98C264.35 492.498 263.771 492.145 262.932 491.92C262.05 491.684 261.325 491.699 260.756 491.966C260.188 492.234 259.731 492.659 259.386 493.242C259.046 493.804 258.783 494.432 258.597 495.128L256.884 501.52L253.442 500.598Z" fill="white"/>
<path d="M274.562 506.606C272.532 506.063 271.253 505.056 270.725 503.586C270.202 502.094 270.212 500.337 270.754 498.315C271.319 496.206 272.212 494.64 273.432 493.615C274.652 492.59 276.255 492.344 278.241 492.876C279.101 493.107 279.781 493.44 280.278 493.877C280.804 494.297 281.183 494.736 281.415 495.195C281.669 495.659 281.832 496.064 281.905 496.41C281.978 496.755 282.017 496.964 282.021 497.035L282.088 497.053L284.202 489.16L287.677 490.091L282.757 508.453L279.845 507.673L279.92 505.141L279.854 505.123C279.82 505.161 279.677 505.297 279.425 505.533C279.195 505.774 278.846 506.018 278.378 506.266C277.931 506.519 277.387 506.699 276.743 506.806C276.105 506.892 275.378 506.825 274.562 506.606ZM276.406 504.094C277.663 504.431 278.656 504.301 279.383 503.704C280.139 503.091 280.674 502.197 280.988 501.023C281.291 499.892 281.277 498.886 280.946 498.005C280.642 497.108 279.873 496.494 278.637 496.163C277.733 495.921 276.963 495.924 276.329 496.174C275.722 496.408 275.238 496.802 274.877 497.358C274.521 497.892 274.252 498.496 274.072 499.17C273.891 499.844 273.805 500.519 273.812 501.197C273.848 501.859 274.056 502.451 274.436 502.972C274.845 503.478 275.501 503.852 276.406 504.094Z" fill="white"/>
<path d="M290.145 510.782C288.27 510.279 287.104 509.291 286.648 507.817C286.191 506.344 286.237 504.585 286.785 502.541C287.338 500.475 288.181 498.919 289.313 497.87C290.473 496.806 291.98 496.522 293.833 497.019C294.892 497.303 295.681 497.712 296.199 498.247C296.724 498.761 297.082 499.276 297.275 499.794C297.467 500.311 297.567 500.688 297.575 500.923L297.641 500.941L298.358 498.266L301.833 499.198L298.241 512.602L295.329 511.821L295.352 509.486L295.286 509.468C295.167 509.646 294.887 509.897 294.445 510.221C294.031 510.53 293.458 510.772 292.725 510.949C292.02 511.11 291.16 511.054 290.145 510.782ZM292.287 508.35C293.522 508.681 294.451 508.522 295.074 507.873C295.725 507.209 296.202 506.311 296.505 505.181C296.826 503.985 296.864 502.958 296.621 502.101C296.378 501.243 295.65 500.652 294.436 500.327C293.576 500.096 292.853 500.101 292.269 500.34C291.707 500.586 291.245 500.986 290.883 501.542C290.549 502.082 290.283 502.721 290.085 503.46C289.887 504.2 289.795 504.897 289.808 505.553C289.844 506.215 290.043 506.793 290.408 507.287C290.8 507.765 291.426 508.119 292.287 508.35Z" fill="white"/>
<path d="M300.926 513.321L305.846 494.96L309.155 495.846L304.235 514.208L300.926 513.321Z" fill="white"/>
<path d="M313.293 500.695C312.559 500.522 312.117 500.229 311.968 499.816C311.846 499.387 311.852 498.923 311.986 498.423C312.115 497.944 312.347 497.564 312.683 497.281C313.018 496.998 313.539 496.951 314.245 497.14C314.929 497.324 315.335 497.619 315.462 498.026C315.612 498.439 315.623 498.884 315.494 499.363C315.36 499.863 315.125 500.254 314.789 500.537C314.481 500.804 313.983 500.857 313.293 500.695ZM307.587 515.106L311.179 501.702L314.554 502.606L310.963 516.01L307.587 515.106Z" fill="white"/>
<path d="M313.843 516.782L314.489 514.369L325.019 508.032L317.242 505.948L317.915 503.437L329.63 506.576L328.984 508.989L318.619 515.37L326.694 517.534L326.021 520.045L313.843 516.782Z" fill="white"/>
<path d="M333.225 522.325C331.349 521.823 330.184 520.834 329.727 519.361C329.271 517.887 329.316 516.128 329.864 514.084C330.418 512.019 331.26 510.462 332.393 509.413C333.553 508.349 335.059 508.066 336.912 508.562C337.971 508.846 338.76 509.255 339.279 509.791C339.803 510.304 340.162 510.819 340.354 511.337C340.547 511.855 340.647 512.231 340.655 512.466L340.721 512.484L341.437 509.81L344.912 510.741L341.321 524.145L338.408 523.365L338.431 521.029L338.365 521.011C338.247 521.189 337.966 521.44 337.525 521.765C337.111 522.073 336.538 522.316 335.805 522.492C335.1 522.653 334.24 522.597 333.225 522.325ZM335.366 519.893C336.602 520.224 337.531 520.065 338.154 519.416C338.805 518.752 339.282 517.854 339.585 516.724C339.905 515.528 339.944 514.501 339.701 513.644C339.458 512.786 338.729 512.195 337.516 511.87C336.655 511.639 335.933 511.644 335.349 511.883C334.786 512.129 334.324 512.529 333.963 513.085C333.629 513.625 333.363 514.264 333.165 515.003C332.967 515.743 332.874 516.44 332.888 517.096C332.923 517.758 333.123 518.336 333.487 518.83C333.879 519.308 334.506 519.662 335.366 519.893Z" fill="white"/>
<path d="M343.641 524.767L347.233 511.362L350.178 512.152L349.434 515.063L349.5 515.081C349.545 515 349.683 514.839 349.913 514.597C350.149 514.334 350.468 514.07 350.87 513.805C351.278 513.518 351.771 513.312 352.348 513.188C352.931 513.041 353.598 513.068 354.348 513.269C355.451 513.565 356.2 514.08 356.594 514.815C356.994 515.528 357.211 516.308 357.244 517.156L357.31 517.174C357.355 517.093 357.493 516.931 357.723 516.69C357.981 516.433 358.322 516.175 358.746 515.916C359.198 515.641 359.724 515.444 360.324 515.325C360.929 515.184 361.618 515.217 362.39 515.424C363.25 515.654 363.896 516.025 364.326 516.537C364.762 517.027 365.048 517.593 365.183 518.235C365.347 518.861 365.399 519.504 365.34 520.164C365.304 520.83 365.207 521.457 365.05 522.044C364.92 522.615 364.806 523.085 364.707 523.455L362.968 529.945L360.122 529.183L361.87 522.66C361.957 522.334 362.048 521.95 362.142 521.51C362.243 521.047 362.271 520.589 362.227 520.134C362.189 519.658 362.032 519.231 361.754 518.854C361.477 518.477 361.03 518.205 360.412 518.04C359.64 517.833 359 517.883 358.492 518.189C357.99 518.474 357.577 518.911 357.254 519.501C356.936 520.068 356.687 520.689 356.507 521.363L354.794 527.755L351.948 526.992L353.696 520.47C353.783 520.144 353.874 519.76 353.968 519.319C354.069 518.857 354.097 518.398 354.053 517.944C354.015 517.468 353.858 517.041 353.58 516.664C353.303 516.286 352.856 516.015 352.238 515.849C351.466 515.643 350.826 515.692 350.318 515.999C349.816 516.284 349.403 516.721 349.08 517.31C348.762 517.878 348.513 518.498 348.333 519.172L346.62 525.565L343.641 524.767Z" fill="white"/>
</g>
</svg>
