<svg width="16" height="16" viewBox="0 0 16 16" fill="none" xmlns="http://www.w3.org/2000/svg">
<path d="M0 14.6663C0 15.4025 0.595857 16 1.33374 16H14.6663C15.4025 16 16 15.4041 16 14.6663V1.33374C16 0.59749 15.4041 0 14.6663 0H1.33374C0.595857 0.00163249 0 0.59749 0 1.33537V14.6663ZM12.9979 11.8339C12.9979 12.2943 12.624 12.6665 12.1653 12.6665C11.7066 12.6665 11.3327 12.2926 11.3327 11.8339C11.3327 8.06122 8.27344 5.00194 4.50076 5.00194C4.0404 5.00194 3.6682 4.6281 3.6682 4.16937C3.6682 3.71064 4.04204 3.3368 4.50076 3.3368C6.97398 3.3368 9.00316 4.19059 10.5965 5.7839C12.229 7.41475 12.9979 9.44067 12.9979 11.8339ZM9.99898 11.8339C9.99898 12.2943 9.62514 12.6665 9.16641 12.6665C8.70605 12.6665 8.33384 12.2926 8.33384 11.8339C8.33384 9.71819 6.6181 8.00082 4.50076 8.00082C4.0404 8.00082 3.6682 7.62698 3.6682 7.16825C3.6682 6.70789 4.04204 6.33568 4.50076 6.33568C7.53556 6.33405 9.99898 8.79747 9.99898 11.8339ZM3.66656 11.1678C3.66656 10.3385 4.33588 9.66758 5.16682 9.66758C5.99775 9.66758 6.66707 10.3369 6.66707 11.1678C6.66707 11.9971 5.99775 12.6681 5.16682 12.6681C4.33588 12.6681 3.66656 11.9971 3.66656 11.1678Z" fill="#F89838"/>
</svg>
