<svg width="33" height="32" viewBox="0 0 33 32" fill="none" xmlns="http://www.w3.org/2000/svg">
<g clip-path="url(#clip0_4809_1873)">
<path d="M27.2661 27.2663H22.5248V19.8389C22.5248 18.0679 22.4929 15.7875 20.0584 15.7875C17.5889 15.7875 17.2108 17.7168 17.2108 19.7087V27.2657H12.4695V11.9959H17.0211V14.0829H17.0825C17.5381 13.304 18.1964 12.6633 18.9874 12.229C19.7783 11.7947 20.6722 11.583 21.574 11.6165C26.3797 11.6165 27.2661 14.7778 27.2661 18.8899V27.2663ZM7.1193 9.9082C6.57501 9.90832 6.04291 9.74703 5.59029 9.44473C5.13767 9.14243 4.78487 8.71269 4.57649 8.20987C4.36812 7.70705 4.31354 7.15373 4.41965 6.61988C4.52576 6.08604 4.7878 5.59565 5.17262 5.21074C5.55745 4.82583 6.04778 4.56368 6.5816 4.45745C7.11542 4.35122 7.66875 4.40568 8.17162 4.61394C8.67449 4.8222 9.1043 5.17491 9.40671 5.62746C9.70911 6.08001 9.87052 6.61208 9.87052 7.15636C9.87052 7.88609 9.58068 8.58594 9.06474 9.10199C8.5488 9.61804 7.84902 9.90804 7.1193 9.9082ZM9.48994 27.2657H4.74374V11.9959H9.49055L9.48994 27.2657ZM29.6275 0.00207996H2.36082C2.05409 -0.00164853 1.74963 0.0551615 1.46488 0.169258C1.18013 0.283354 0.920685 0.452495 0.701394 0.666997C0.482102 0.881499 0.307275 1.13715 0.186919 1.41931C0.0665639 1.70147 0.00304491 2.0046 0 2.31134V29.6885C0.00728568 30.3078 0.260082 30.8988 0.702857 31.3318C1.14563 31.7648 1.74217 32.0043 2.36144 31.9978H29.6275C30.2484 32.0061 30.8472 31.7676 31.2922 31.3345C31.7372 30.9015 31.992 30.3094 32.0006 29.6885V2.30643C31.9917 1.68592 31.7367 1.09436 31.2917 0.661868C30.8466 0.229377 30.248 -0.00861604 29.6275 0.000238516" fill="white"/>
</g>
<defs>
<clipPath id="clip0_4809_1873">
<rect width="32.0012" height="32" fill="white"/>
</clipPath>
</defs>
</svg>
