<svg width="94" height="24" viewBox="0 0 94 24" fill="none" xmlns="http://www.w3.org/2000/svg">
<path d="M9 21H5C4.46957 21 3.96086 20.7893 3.58579 20.4142C3.21071 20.0391 3 19.5304 3 19V5C3 4.46957 3.21071 3.96086 3.58579 3.58579C3.96086 3.21071 4.46957 3 5 3H9" stroke="#F20D36" stroke-width="2" stroke-linejoin="round"/>
<path fill-rule="evenodd" clip-rule="evenodd" d="M21.7071 11.293L16.7071 6.29297L15.2929 7.70718L18.5858 11.0001H9V13.0001H18.5858L15.2929 16.293L16.7071 17.7072L21.7071 12.7072C22.0976 12.3167 22.0976 11.6835 21.7071 11.293Z" fill="#F20D36"/>
<path d="M42.3418 11.9893C42.3418 13.6162 41.9339 14.8809 41.1182 15.7832C40.307 16.6855 39.1562 17.1367 37.666 17.1367C36.1576 17.1367 34.9977 16.6901 34.1865 15.7969C33.3799 14.8991 32.9766 13.6253 32.9766 11.9756C32.9766 10.3258 33.3822 9.05892 34.1934 8.1748C35.0091 7.29069 36.1712 6.84863 37.6797 6.84863C39.1654 6.84863 40.3138 7.29753 41.125 8.19531C41.9362 9.0931 42.3418 10.3577 42.3418 11.9893ZM34.7129 11.9893C34.7129 13.2197 34.9613 14.154 35.458 14.792C35.9548 15.4255 36.6908 15.7422 37.666 15.7422C38.6367 15.7422 39.3682 15.4277 39.8604 14.7988C40.3571 14.1699 40.6055 13.2334 40.6055 11.9893C40.6055 10.7633 40.3594 9.83366 39.8672 9.2002C39.3796 8.56673 38.6504 8.25 37.6797 8.25C36.6999 8.25 35.9593 8.56673 35.458 9.2002C34.9613 9.83366 34.7129 10.7633 34.7129 11.9893ZM46.8672 17.1367C45.9238 17.1367 45.1878 16.7949 44.6592 16.1113C44.1305 15.4277 43.8662 14.4684 43.8662 13.2334C43.8662 11.9938 44.1328 11.0299 44.666 10.3418C45.2038 9.64909 45.9466 9.30273 46.8945 9.30273C47.888 9.30273 48.6445 9.6696 49.1641 10.4033H49.2461C49.1686 9.861 49.1299 9.43262 49.1299 9.11816V6.36328H50.7432V17H49.4854L49.2051 16.0088H49.1299C48.6149 16.7607 47.8607 17.1367 46.8672 17.1367ZM47.2979 15.8379C47.9587 15.8379 48.4395 15.6533 48.7402 15.2842C49.041 14.9105 49.196 14.3066 49.2051 13.4727V13.2471C49.2051 12.2946 49.0501 11.6178 48.7402 11.2168C48.4303 10.8158 47.945 10.6152 47.2842 10.6152C46.7191 10.6152 46.2839 10.8454 45.9785 11.3057C45.6732 11.7614 45.5205 12.4131 45.5205 13.2607C45.5205 14.0993 45.6686 14.7396 45.9648 15.1816C46.2611 15.6191 46.7054 15.8379 47.2979 15.8379ZM52.2676 20.3633C51.7845 20.3633 51.3835 20.3063 51.0645 20.1924V18.9209C51.3743 19.0029 51.6911 19.0439 52.0146 19.0439C52.6982 19.0439 53.04 18.6566 53.04 17.8818V9.43945H54.6465V17.9912C54.6465 18.7705 54.4414 19.3607 54.0312 19.7617C53.6257 20.1628 53.0378 20.3633 52.2676 20.3633ZM52.9443 7.43652C52.9443 7.14941 53.0218 6.92839 53.1768 6.77344C53.3363 6.61849 53.5618 6.54102 53.8535 6.54102C54.1361 6.54102 54.3548 6.61849 54.5098 6.77344C54.6693 6.92839 54.749 7.14941 54.749 7.43652C54.749 7.70996 54.6693 7.92643 54.5098 8.08594C54.3548 8.24089 54.1361 8.31836 53.8535 8.31836C53.5618 8.31836 53.3363 8.24089 53.1768 8.08594C53.0218 7.92643 52.9443 7.70996 52.9443 7.43652ZM61.6807 17L61.3594 15.9473H61.3047C60.9401 16.4076 60.5732 16.722 60.2041 16.8906C59.835 17.0547 59.361 17.1367 58.7822 17.1367C58.0394 17.1367 57.4583 16.9362 57.0391 16.5352C56.6243 16.1341 56.417 15.5667 56.417 14.833C56.417 14.0537 56.7064 13.4658 57.2852 13.0693C57.8639 12.6729 58.7458 12.4564 59.9307 12.4199L61.2363 12.3789V11.9756C61.2363 11.4925 61.1224 11.1325 60.8945 10.8955C60.6712 10.654 60.3226 10.5332 59.8486 10.5332C59.4613 10.5332 59.0898 10.5902 58.7344 10.7041C58.3789 10.818 58.0371 10.9525 57.709 11.1074L57.1895 9.95898C57.5996 9.74479 58.0485 9.58301 58.5361 9.47363C59.0238 9.3597 59.484 9.30273 59.917 9.30273C60.8786 9.30273 61.6032 9.51237 62.0908 9.93164C62.583 10.3509 62.8291 11.0094 62.8291 11.9072V17H61.6807ZM59.2881 15.9062C59.8714 15.9062 60.3385 15.7445 60.6895 15.4209C61.0449 15.0928 61.2227 14.6348 61.2227 14.0469V13.3906L60.252 13.4316C59.4954 13.459 58.944 13.5866 58.5977 13.8145C58.2559 14.0378 58.085 14.3818 58.085 14.8467C58.085 15.1839 58.1852 15.446 58.3857 15.6328C58.5863 15.8151 58.887 15.9062 59.2881 15.9062ZM66.7939 17L63.9229 9.43945H65.6182L67.1562 13.835C67.4206 14.5732 67.5801 15.1702 67.6348 15.626H67.6895C67.7305 15.2979 67.89 14.7008 68.168 13.835L69.7061 9.43945H71.415L68.5303 17H66.7939ZM74.1699 17H72.5635V9.43945H74.1699V17ZM72.4678 7.43652C72.4678 7.14941 72.5452 6.92839 72.7002 6.77344C72.8597 6.61849 73.0853 6.54102 73.377 6.54102C73.6595 6.54102 73.8783 6.61849 74.0332 6.77344C74.1927 6.92839 74.2725 7.14941 74.2725 7.43652C74.2725 7.70996 74.1927 7.92643 74.0332 8.08594C73.8783 8.24089 73.6595 8.31836 73.377 8.31836C73.0853 8.31836 72.8597 8.24089 72.7002 8.08594C72.5452 7.92643 72.4678 7.70996 72.4678 7.43652ZM85.1895 14.8467C85.1895 15.585 84.9206 16.1523 84.3828 16.5488C83.8451 16.9408 83.0749 17.1367 82.0723 17.1367C81.0651 17.1367 80.2562 16.984 79.6455 16.6787V15.291C80.5342 15.7012 81.3613 15.9062 82.127 15.9062C83.1159 15.9062 83.6104 15.6077 83.6104 15.0107C83.6104 14.8193 83.5557 14.6598 83.4463 14.5322C83.3369 14.4046 83.1569 14.2725 82.9062 14.1357C82.6556 13.999 82.307 13.8441 81.8604 13.6709C80.9899 13.3337 80.3997 12.9964 80.0898 12.6592C79.7845 12.3219 79.6318 11.8844 79.6318 11.3467C79.6318 10.6995 79.8916 10.1982 80.4111 9.84277C80.9352 9.48275 81.6462 9.30273 82.5439 9.30273C83.4326 9.30273 84.2734 9.48275 85.0664 9.84277L84.5469 11.0527C83.7311 10.7155 83.0452 10.5469 82.4893 10.5469C81.6416 10.5469 81.2178 10.7884 81.2178 11.2715C81.2178 11.5085 81.3271 11.709 81.5459 11.873C81.7692 12.0371 82.2523 12.2627 82.9951 12.5498C83.6195 12.7913 84.0729 13.0124 84.3555 13.2129C84.638 13.4134 84.8477 13.6458 84.9844 13.9102C85.1211 14.1699 85.1895 14.4821 85.1895 14.8467ZM90.2344 17.1367C89.0586 17.1367 88.138 16.7949 87.4727 16.1113C86.8118 15.4232 86.4814 14.4775 86.4814 13.2744C86.4814 12.0394 86.7891 11.0687 87.4043 10.3623C88.0195 9.65592 88.8649 9.30273 89.9404 9.30273C90.9385 9.30273 91.7269 9.60579 92.3057 10.2119C92.8844 10.818 93.1738 11.652 93.1738 12.7139V13.582H88.1357C88.1585 14.3158 88.3568 14.8809 88.7305 15.2773C89.1042 15.6693 89.6305 15.8652 90.3096 15.8652C90.7562 15.8652 91.1709 15.8242 91.5537 15.7422C91.9411 15.6556 92.3558 15.5143 92.7979 15.3184V16.624C92.4059 16.8109 92.0094 16.943 91.6084 17.0205C91.2074 17.098 90.7493 17.1367 90.2344 17.1367ZM89.9404 10.5195C89.43 10.5195 89.0199 10.6813 88.71 11.0049C88.4046 11.3285 88.2223 11.8001 88.1631 12.4199H91.5947C91.5856 11.7956 91.4352 11.3239 91.1436 11.0049C90.8519 10.6813 90.4508 10.5195 89.9404 10.5195Z" fill="#1D1C1C"/>
</svg>
