<svg width="193" height="24" viewBox="0 0 193 24" fill="none" xmlns="http://www.w3.org/2000/svg">
<path d="M17 3H3V21H21V11" stroke="#1D1C1C" stroke-width="2"/>
<path d="M8.5 10.5L12 14L22 4" stroke="#F25410" stroke-width="2"/>
<path d="M47.9365 8.02734C47.9365 9.07096 47.5947 9.87077 46.9111 10.4268C46.2275 10.9827 45.2546 11.2607 43.9922 11.2607H42.9531V15H41.3193V5.00586H44.1973C45.446 5.00586 46.3802 5.26107 47 5.77148C47.6243 6.2819 47.9365 7.03385 47.9365 8.02734ZM42.9531 9.88672H43.8213C44.6598 9.88672 45.2751 9.74089 45.667 9.44922C46.0589 9.15755 46.2549 8.70182 46.2549 8.08203C46.2549 7.50781 46.0794 7.07943 45.7285 6.79688C45.3776 6.51432 44.8307 6.37305 44.0879 6.37305H42.9531V9.88672ZM53.5967 7.30273C53.9202 7.30273 54.1868 7.32552 54.3965 7.37109L54.2393 8.86816C54.0114 8.81348 53.7744 8.78613 53.5283 8.78613C52.8857 8.78613 52.3639 8.99577 51.9629 9.41504C51.5664 9.83431 51.3682 10.3789 51.3682 11.0488V15H49.7617V7.43945H51.0195L51.2314 8.77246H51.3135C51.5641 8.32129 51.89 7.96354 52.291 7.69922C52.6966 7.4349 53.1318 7.30273 53.5967 7.30273ZM57.4111 15H55.8047V7.43945H57.4111V15ZM55.709 5.43652C55.709 5.14941 55.7865 4.92839 55.9414 4.77344C56.1009 4.61849 56.3265 4.54102 56.6182 4.54102C56.9007 4.54102 57.1195 4.61849 57.2744 4.77344C57.4339 4.92839 57.5137 5.14941 57.5137 5.43652C57.5137 5.70996 57.4339 5.92643 57.2744 6.08594C57.1195 6.24089 56.9007 6.31836 56.6182 6.31836C56.3265 6.31836 56.1009 6.24089 55.9414 6.08594C55.7865 5.92643 55.709 5.70996 55.709 5.43652ZM61.2666 11.0078L62.1758 9.87305L64.459 7.43945H66.3115L63.2695 10.6865L66.5029 15H64.6162L62.1895 11.6846L61.3076 12.4092V15H59.7148V4.36328H61.3076V9.55176L61.2256 11.0078H61.2666ZM72.457 15L72.1357 13.9473H72.0811C71.7165 14.4076 71.3496 14.722 70.9805 14.8906C70.6113 15.0547 70.1374 15.1367 69.5586 15.1367C68.8158 15.1367 68.2347 14.9362 67.8154 14.5352C67.4007 14.1341 67.1934 13.5667 67.1934 12.833C67.1934 12.0537 67.4827 11.4658 68.0615 11.0693C68.6403 10.6729 69.5221 10.4564 70.707 10.4199L72.0127 10.3789V9.97559C72.0127 9.49251 71.8988 9.13249 71.6709 8.89551C71.4476 8.65397 71.099 8.5332 70.625 8.5332C70.2376 8.5332 69.8662 8.59017 69.5107 8.7041C69.1553 8.81803 68.8135 8.95247 68.4854 9.10742L67.9658 7.95898C68.376 7.74479 68.8249 7.58301 69.3125 7.47363C69.8001 7.3597 70.2604 7.30273 70.6934 7.30273C71.6549 7.30273 72.3796 7.51237 72.8672 7.93164C73.3594 8.35091 73.6055 9.00944 73.6055 9.90723V15H72.457ZM70.0645 13.9062C70.6478 13.9062 71.1149 13.7445 71.4658 13.4209C71.8213 13.0928 71.999 12.6348 71.999 12.0469V11.3906L71.0283 11.4316C70.2718 11.459 69.7204 11.5866 69.374 11.8145C69.0322 12.0378 68.8613 12.3818 68.8613 12.8467C68.8613 13.1839 68.9616 13.446 69.1621 13.6328C69.3626 13.8151 69.6634 13.9062 70.0645 13.9062ZM80.8994 15H75.1641V14.0088L78.9854 8.66992H75.3965V7.43945H80.79V8.56055L77.0508 13.7695H80.8994V15ZM80.749 4.27441V4.45898C80.1748 5.05599 79.7692 5.49577 79.5322 5.77832C79.2998 6.06087 79.1221 6.30697 78.999 6.5166H77.2217C76.9255 6.03809 76.3467 5.35221 75.4854 4.45898V4.27441H76.5654C77.1943 4.68457 77.707 5.10156 78.1035 5.52539C78.5456 5.06966 79.0651 4.65267 79.6621 4.27441H80.749ZM84.1533 15H82.5469V7.43945H84.1533V15ZM82.4512 5.43652C82.4512 5.14941 82.5286 4.92839 82.6836 4.77344C82.8431 4.61849 83.0687 4.54102 83.3604 4.54102C83.6429 4.54102 83.8617 4.61849 84.0166 4.77344C84.1761 4.92839 84.2559 5.14941 84.2559 5.43652C84.2559 5.70996 84.1761 5.92643 84.0166 6.08594C83.8617 6.24089 83.6429 6.31836 83.3604 6.31836C83.0687 6.31836 82.8431 6.24089 82.6836 6.08594C82.5286 5.92643 82.4512 5.70996 82.4512 5.43652ZM96.4648 15H94.8516V10.3379C94.8516 9.75911 94.7422 9.32845 94.5234 9.0459C94.3047 8.75879 93.9629 8.61523 93.498 8.61523C92.8783 8.61523 92.4225 8.81803 92.1309 9.22363C91.8438 9.62467 91.7002 10.2946 91.7002 11.2334V15H90.0938V7.43945H91.3516L91.5771 8.43066H91.6592C91.8688 8.07064 92.1719 7.79264 92.5684 7.59668C92.9694 7.40072 93.4092 7.30273 93.8877 7.30273C95.0498 7.30273 95.82 7.69922 96.1982 8.49219H96.3076C96.5309 8.11849 96.8454 7.82682 97.251 7.61719C97.6566 7.40755 98.1214 7.30273 98.6455 7.30273C99.5479 7.30273 100.204 7.5306 100.614 7.98633C101.029 8.44206 101.236 9.13704 101.236 10.0713V15H99.6299V10.3379C99.6299 9.75911 99.5182 9.32845 99.2949 9.0459C99.0762 8.75879 98.7344 8.61523 98.2695 8.61523C97.6452 8.61523 97.1872 8.8112 96.8955 9.20312C96.6084 9.59049 96.4648 10.1875 96.4648 10.9941V15ZM110.185 11.2061C110.185 12.4411 109.868 13.4049 109.234 14.0977C108.601 14.7904 107.719 15.1367 106.589 15.1367C105.882 15.1367 105.258 14.9772 104.716 14.6582C104.174 14.3392 103.757 13.8812 103.465 13.2842C103.173 12.6872 103.027 11.9945 103.027 11.2061C103.027 9.98014 103.342 9.02311 103.971 8.33496C104.6 7.64681 105.486 7.30273 106.63 7.30273C107.724 7.30273 108.59 7.65592 109.228 8.3623C109.866 9.06413 110.185 10.012 110.185 11.2061ZM104.682 11.2061C104.682 12.9515 105.326 13.8242 106.616 13.8242C107.892 13.8242 108.53 12.9515 108.53 11.2061C108.53 9.47884 107.888 8.61523 106.603 8.61523C105.928 8.61523 105.438 8.83854 105.133 9.28516C104.832 9.73177 104.682 10.3721 104.682 11.2061ZM111.265 18.3633C110.782 18.3633 110.381 18.3063 110.062 18.1924V16.9209C110.371 17.0029 110.688 17.0439 111.012 17.0439C111.695 17.0439 112.037 16.6566 112.037 15.8818V7.43945H113.644V15.9912C113.644 16.7705 113.438 17.3607 113.028 17.7617C112.623 18.1628 112.035 18.3633 111.265 18.3633ZM111.941 5.43652C111.941 5.14941 112.019 4.92839 112.174 4.77344C112.333 4.61849 112.559 4.54102 112.851 4.54102C113.133 4.54102 113.352 4.61849 113.507 4.77344C113.666 4.92839 113.746 5.14941 113.746 5.43652C113.746 5.70996 113.666 5.92643 113.507 6.08594C113.352 6.24089 113.133 6.31836 112.851 6.31836C112.559 6.31836 112.333 6.24089 112.174 6.08594C112.019 5.92643 111.941 5.70996 111.941 5.43652ZM119.249 15.1367C118.073 15.1367 117.153 14.7949 116.487 14.1113C115.826 13.4232 115.496 12.4775 115.496 11.2744C115.496 10.0394 115.804 9.06868 116.419 8.3623C117.034 7.65592 117.88 7.30273 118.955 7.30273C119.953 7.30273 120.742 7.60579 121.32 8.21191C121.899 8.81803 122.188 9.65202 122.188 10.7139V11.582H117.15C117.173 12.3158 117.371 12.8809 117.745 13.2773C118.119 13.6693 118.645 13.8652 119.324 13.8652C119.771 13.8652 120.186 13.8242 120.568 13.7422C120.956 13.6556 121.37 13.5143 121.812 13.3184V14.624C121.421 14.8109 121.024 14.943 120.623 15.0205C120.222 15.098 119.764 15.1367 119.249 15.1367ZM118.955 8.51953C118.445 8.51953 118.035 8.68132 117.725 9.00488C117.419 9.32845 117.237 9.80013 117.178 10.4199H120.609C120.6 9.79557 120.45 9.32389 120.158 9.00488C119.867 8.68132 119.465 8.51953 118.955 8.51953ZM129.257 15H127.65V7.43945H129.257V15ZM127.555 5.43652C127.555 5.14941 127.632 4.92839 127.787 4.77344C127.947 4.61849 128.172 4.54102 128.464 4.54102C128.746 4.54102 128.965 4.61849 129.12 4.77344C129.28 4.92839 129.359 5.14941 129.359 5.43652C129.359 5.70996 129.28 5.92643 129.12 6.08594C128.965 6.24089 128.746 6.31836 128.464 6.31836C128.172 6.31836 127.947 6.24089 127.787 6.08594C127.632 5.92643 127.555 5.70996 127.555 5.43652ZM137.932 15H136.318V10.3379C136.318 9.75911 136.209 9.32845 135.99 9.0459C135.771 8.75879 135.43 8.61523 134.965 8.61523C134.345 8.61523 133.889 8.81803 133.598 9.22363C133.311 9.62467 133.167 10.2946 133.167 11.2334V15H131.561V7.43945H132.818L133.044 8.43066H133.126C133.336 8.07064 133.639 7.79264 134.035 7.59668C134.436 7.40072 134.876 7.30273 135.354 7.30273C136.517 7.30273 137.287 7.69922 137.665 8.49219H137.774C137.998 8.11849 138.312 7.82682 138.718 7.61719C139.123 7.40755 139.588 7.30273 140.112 7.30273C141.015 7.30273 141.671 7.5306 142.081 7.98633C142.496 8.44206 142.703 9.13704 142.703 10.0713V15H141.097V10.3379C141.097 9.75911 140.985 9.32845 140.762 9.0459C140.543 8.75879 140.201 8.61523 139.736 8.61523C139.112 8.61523 138.654 8.8112 138.362 9.20312C138.075 9.59049 137.932 10.1875 137.932 10.9941V15ZM148.247 15.1367C147.071 15.1367 146.151 14.7949 145.485 14.1113C144.825 13.4232 144.494 12.4775 144.494 11.2744C144.494 10.0394 144.802 9.06868 145.417 8.3623C146.032 7.65592 146.878 7.30273 147.953 7.30273C148.951 7.30273 149.74 7.60579 150.318 8.21191C150.897 8.81803 151.187 9.65202 151.187 10.7139V11.582H146.148C146.171 12.3158 146.369 12.8809 146.743 13.2773C147.117 13.6693 147.643 13.8652 148.322 13.8652C148.769 13.8652 149.184 13.8242 149.566 13.7422C149.954 13.6556 150.368 13.5143 150.811 13.3184V14.624C150.419 14.8109 150.022 14.943 149.621 15.0205C149.22 15.098 148.762 15.1367 148.247 15.1367ZM147.953 8.51953C147.443 8.51953 147.033 8.68132 146.723 9.00488C146.417 9.32845 146.235 9.80013 146.176 10.4199H149.607C149.598 9.79557 149.448 9.32389 149.156 9.00488C148.865 8.68132 148.464 8.51953 147.953 8.51953ZM155.876 18.3633C155.393 18.3633 154.992 18.3063 154.673 18.1924V16.9209C154.983 17.0029 155.299 17.0439 155.623 17.0439C156.307 17.0439 156.648 16.6566 156.648 15.8818V7.43945H158.255V15.9912C158.255 16.7705 158.05 17.3607 157.64 17.7617C157.234 18.1628 156.646 18.3633 155.876 18.3633ZM156.553 5.43652C156.553 5.14941 156.63 4.92839 156.785 4.77344C156.945 4.61849 157.17 4.54102 157.462 4.54102C157.744 4.54102 157.963 4.61849 158.118 4.77344C158.278 4.92839 158.357 5.14941 158.357 5.43652C158.357 5.70996 158.278 5.92643 158.118 6.08594C157.963 6.24089 157.744 6.31836 157.462 6.31836C157.17 6.31836 156.945 6.24089 156.785 6.08594C156.63 5.92643 156.553 5.70996 156.553 5.43652ZM165.289 15L164.968 13.9473H164.913C164.549 14.4076 164.182 14.722 163.812 14.8906C163.443 15.0547 162.969 15.1367 162.391 15.1367C161.648 15.1367 161.067 14.9362 160.647 14.5352C160.233 14.1341 160.025 13.5667 160.025 12.833C160.025 12.0537 160.315 11.4658 160.894 11.0693C161.472 10.6729 162.354 10.4564 163.539 10.4199L164.845 10.3789V9.97559C164.845 9.49251 164.731 9.13249 164.503 8.89551C164.28 8.65397 163.931 8.5332 163.457 8.5332C163.07 8.5332 162.698 8.59017 162.343 8.7041C161.987 8.81803 161.646 8.95247 161.317 9.10742L160.798 7.95898C161.208 7.74479 161.657 7.58301 162.145 7.47363C162.632 7.3597 163.092 7.30273 163.525 7.30273C164.487 7.30273 165.212 7.51237 165.699 7.93164C166.191 8.35091 166.438 9.00944 166.438 9.90723V15H165.289ZM162.896 13.9062C163.48 13.9062 163.947 13.7445 164.298 13.4209C164.653 13.0928 164.831 12.6348 164.831 12.0469V11.3906L163.86 11.4316C163.104 11.459 162.552 11.5866 162.206 11.8145C161.864 12.0378 161.693 12.3818 161.693 12.8467C161.693 13.1839 161.794 13.446 161.994 13.6328C162.195 13.8151 162.495 13.9062 162.896 13.9062ZM170.402 15L167.531 7.43945H169.227L170.765 11.835C171.029 12.5732 171.188 13.1702 171.243 13.626H171.298C171.339 13.2979 171.498 12.7008 171.776 11.835L173.314 7.43945H175.023L172.139 15H170.402ZM182.823 15H181.21V10.3516C181.21 9.76823 181.091 9.33301 180.854 9.0459C180.622 8.75879 180.251 8.61523 179.74 8.61523C179.061 8.61523 178.564 8.81576 178.25 9.2168C177.936 9.61784 177.778 10.29 177.778 11.2334V15H176.172V7.43945H177.43L177.655 8.43066H177.737C177.965 8.07064 178.289 7.79264 178.708 7.59668C179.127 7.40072 179.592 7.30273 180.103 7.30273C181.916 7.30273 182.823 8.22559 182.823 10.0713V15ZM191.765 11.2061C191.765 12.4411 191.448 13.4049 190.814 14.0977C190.181 14.7904 189.299 15.1367 188.169 15.1367C187.463 15.1367 186.838 14.9772 186.296 14.6582C185.754 14.3392 185.337 13.8812 185.045 13.2842C184.753 12.6872 184.607 11.9945 184.607 11.2061C184.607 9.98014 184.922 9.02311 185.551 8.33496C186.18 7.64681 187.066 7.30273 188.21 7.30273C189.304 7.30273 190.17 7.65592 190.808 8.3623C191.446 9.06413 191.765 10.012 191.765 11.2061ZM186.262 11.2061C186.262 12.9515 186.907 13.8242 188.196 13.8242C189.472 13.8242 190.11 12.9515 190.11 11.2061C190.11 9.47884 189.468 8.61523 188.183 8.61523C187.508 8.61523 187.018 8.83854 186.713 9.28516C186.412 9.73177 186.262 10.3721 186.262 11.2061Z" fill="black"/>
</svg>
