<svg width="56" height="56" viewBox="0 0 56 56" fill="none" xmlns="http://www.w3.org/2000/svg">
<circle cx="28" cy="28" r="24" fill="#F6F2EF"/>
<path d="M27.3727 37.36C25.6447 37.36 24.1207 37.072 22.8007 36.496C21.5047 35.92 20.4847 35.068 19.7407 33.94C19.0207 32.788 18.6727 31.348 18.6967 29.62L22.8727 29.008C22.8967 30.448 23.3167 31.576 24.1327 32.392C24.9487 33.208 26.0527 33.616 27.4447 33.616C28.5727 33.616 29.4727 33.316 30.1447 32.716C30.8407 32.092 31.1887 31.348 31.1887 30.484C31.1887 29.5 30.8047 28.804 30.0367 28.396C29.2687 27.964 28.4047 27.748 27.4447 27.748H25.2847V25.516H27.5527C28.1287 25.516 28.6807 25.456 29.2087 25.336C29.7367 25.192 30.1687 24.952 30.5047 24.616C30.8407 24.28 31.0087 23.812 31.0087 23.212C31.0087 22.228 30.6487 21.448 29.9287 20.872C29.2327 20.272 28.2967 19.972 27.1207 19.972C26.2087 19.972 25.4407 20.176 24.8167 20.584C24.2167 20.968 23.7607 21.448 23.4487 22.024C23.1367 22.6 22.9807 23.188 22.9807 23.788L19.0927 23.14C19.1167 22.756 19.2367 22.204 19.4527 21.484C19.6927 20.74 20.1007 19.972 20.6767 19.18C21.2767 18.388 22.0807 17.728 23.0887 17.2C24.1207 16.648 25.4287 16.372 27.0127 16.372C29.5327 16.372 31.4767 16.9 32.8447 17.956C34.2127 18.988 34.8967 20.38 34.8967 22.132C34.8967 23.308 34.5607 24.34 33.8887 25.228C33.2167 26.116 32.1967 26.632 30.8287 26.776C32.1727 26.896 33.2407 27.4 34.0327 28.288C34.8487 29.176 35.2567 30.232 35.2567 31.456C35.2567 32.704 34.9207 33.772 34.2487 34.66C33.5767 35.524 32.6407 36.196 31.4407 36.676C30.2647 37.132 28.9087 37.36 27.3727 37.36Z" fill="#917D6E"/>
</svg>
