<svg width="20" height="20" viewBox="0 0 20 20" fill="none" xmlns="http://www.w3.org/2000/svg">
<path d="M7 18.2499H2.5C2.30109 18.2499 2.11032 18.1709 1.96967 18.0302C1.82902 17.8896 1.75 17.6988 1.75 17.4999V13.3105C1.75 13.2121 1.7694 13.1145 1.80709 13.0235C1.84478 12.9325 1.90003 12.8499 1.96967 12.7802L13.2197 1.53022C13.3603 1.38956 13.5511 1.31055 13.75 1.31055C13.9489 1.31055 14.1397 1.38956 14.2803 1.53022L18.4697 5.71956C18.6103 5.86021 18.6893 6.05097 18.6893 6.24989C18.6893 6.4488 18.6103 6.63956 18.4697 6.78022L7 18.2499Z" stroke="#F25410" stroke-width="2"/>
</svg>
