<svg width="136" height="27" viewBox="0 0 136 27" fill="none" xmlns="http://www.w3.org/2000/svg">
<path fill-rule="evenodd" clip-rule="evenodd" d="M13.056 23.1428C11.3463 23.1428 9.7143 22.7571 8.31545 21.9857L12.6674 17.5114L13.8332 17.5885C14.5292 17.5731 15.2129 17.4031 15.8341 17.0912C16.4553 16.7792 16.9982 16.3331 17.423 15.7856C17.8479 15.2381 18.1438 14.6032 18.2891 13.9273C18.4345 13.2515 18.4255 12.5519 18.2629 11.88L15.9314 14.2714L13.1337 13.7314L12.5897 11.1085L15.0766 8.7171C14.688 8.56281 14.2994 8.48567 13.8332 8.48567C12.5965 8.48567 11.4105 8.97332 10.536 9.84135C9.66157 10.7094 9.1703 11.8867 9.1703 13.1142C9.1703 13.5771 9.32573 14.1171 9.48116 14.58L5.05145 19.0542C3.96345 17.5114 3.34173 15.66 3.34173 13.6542C3.34173 8.40853 7.69373 4.08853 13.056 4.08853C18.3406 4.08853 22.6926 8.40853 22.6926 13.6542C22.6926 18.9 18.3406 23.22 13.056 23.22V23.1428ZM13.056 1.61996C6.21716 1.54281 0.777161 6.94281 0.777161 13.6542C0.777161 20.3657 6.21716 25.6885 13.056 25.6885C19.8172 25.6885 25.2572 20.2885 25.2572 13.6542C25.2572 7.01996 19.8172 1.61996 13.056 1.61996Z" fill="white"/>
<path fill-rule="evenodd" clip-rule="evenodd" d="M73.3623 23.2972C74.2171 23.2972 74.8389 22.6029 75.1497 21.7543L75.7714 20.3657L72.2743 12.3429C72.1189 12.0343 71.8857 11.9572 71.4971 11.9572V10.8H72.1189C72.9737 10.8 73.2846 10.9543 73.6731 11.88L76.16 17.8972L76.4709 18.9L76.8594 17.8972L79.2686 11.88C79.5794 10.9543 79.8903 10.8 80.8229 10.8H81.3669V11.9572H81.2114C80.8229 11.9572 80.6674 11.9572 80.512 12.3429L76.3154 22.4486C75.7714 23.6829 74.7611 24.4543 73.5177 24.4543C72.1189 24.4543 71.3417 23.5286 71.3417 23.5286L71.9634 22.6029C71.9634 22.6029 72.5851 23.2972 73.5177 23.2972H73.3623ZM55.0217 19.2857H55.7989C56.032 19.2857 56.1874 19.1314 56.1874 18.8229L57.1977 6.94287H58.5966L62.2491 14.8114L62.8709 16.3543L63.648 14.8114L67.1451 6.94287H68.544L69.4766 18.8229C69.4766 19.1314 69.632 19.2857 69.9429 19.2857H70.6423V20.4429H69.3211C68.544 20.4429 68.1554 20.0572 68.1554 19.2857L67.456 11.1086V9.18001L66.6789 11.1086L63.4149 17.8972H62.2491L59.0629 11.1086L58.2857 9.18001V11.1086L57.5086 19.2857C57.5086 20.0572 57.1977 20.4429 56.3429 20.4429H55.0217V19.2857ZM49.1154 15.4286L46.9394 12.3429C46.7063 12.0343 46.4731 11.9572 46.0846 11.9572H45.696V10.8H46.3954C47.4057 10.8 47.6389 10.9543 48.1829 11.88L49.7371 13.8857L50.1257 14.5029L50.4366 13.8857L51.9131 11.8029C52.4571 10.8772 52.6903 10.7229 53.7006 10.7229H54.4777V11.88H54.0114C53.6229 11.88 53.312 11.88 53.0789 12.2657L50.9806 15.3514L54.4 20.3657H52.8457L50.5143 16.74L50.1257 16.2772L49.7371 16.74L47.4057 20.3657H45.8514L49.2709 15.3514L49.1154 15.4286ZM42.1211 6.94287H43.52V8.64001H42.2766V6.94287H42.1211ZM42.1989 12.3429C42.1989 12.1114 42.0434 11.9572 41.8103 11.9572H41.0331V10.8H42.3543C43.1314 10.8 43.52 11.1086 43.52 11.9572V18.9C43.52 19.2086 43.6754 19.2857 43.9863 19.2857H44.7634V20.4429H43.52C42.6651 20.4429 42.2766 20.0572 42.2766 19.2857V12.3429H42.1989ZM32.7954 8.17716H31.552V6.94287H38.8571C39.712 6.94287 40.0229 7.32859 40.0229 8.10001V9.48859H38.8571V8.48573C38.8571 8.17716 38.7017 8.10001 38.4686 8.10001H34.1943V13.1143H39.0903V14.3486H34.1943V20.3657H32.7954V8.02287V8.17716Z" fill="white"/>
<path fill-rule="evenodd" clip-rule="evenodd" d="M132.425 10.4914L133.669 10.5686C133.824 10.6457 134.213 10.9543 134.213 11.4943L134.057 12.0343C133.746 12.5743 133.358 12.5743 132.425 12.5743V17.3571C132.425 18.2057 132.736 18.2828 133.435 18.2828C134.213 18.2828 134.368 18.9 134.368 19.2857C134.368 20.4428 133.047 20.52 132.27 20.52C129.627 20.52 129.55 18.9771 129.55 17.8971V12.5743L128.617 12.4971C128.617 12.42 128.151 12.1886 128.151 11.4943V11.0314C128.462 10.4914 129.083 10.4914 129.55 10.4914V9.10284C129.55 8.63999 129.55 8.17713 129.938 7.79141C129.938 7.71427 130.327 7.32856 130.949 7.32856L131.493 7.4057C132.347 7.71427 132.347 8.56284 132.425 9.10284V10.4914ZM125.12 14.1943C125.042 13.8857 124.965 13.5771 124.731 13.2686C124.421 12.7286 123.799 12.4971 123.177 12.4971C121.623 12.4971 121.234 13.5771 121.001 14.1943H125.12ZM121.001 16.3543C121.001 16.8171 121.157 17.3571 121.623 17.8971C122.245 18.5143 123.022 18.5143 123.177 18.5143C123.954 18.5143 124.421 18.2057 124.576 17.9743L124.965 17.6657C125.275 17.4343 125.509 17.3571 125.742 17.3571C126.519 17.3571 127.063 17.8971 127.063 18.5914C127.063 19.0543 126.83 19.44 126.286 19.8257C125.36 20.4138 124.276 20.7097 123.177 20.6743C119.291 20.6743 118.048 17.8971 118.048 15.5057C118.048 12.5743 119.991 10.26 123.177 10.26C126.752 10.26 127.84 13.1143 127.84 14.9657C127.84 16.2771 127.063 16.2771 126.597 16.3543H121.001ZM114.551 14.1943C114.473 13.8857 114.395 13.5771 114.162 13.2686C113.851 12.7286 113.23 12.4971 112.608 12.4971C111.054 12.4971 110.665 13.5771 110.432 14.1943H114.551ZM110.432 16.3543C110.51 16.8171 110.587 17.3571 111.054 17.8971C111.675 18.5143 112.453 18.5143 112.608 18.5143C113.385 18.5143 113.851 18.2057 114.085 17.9743L114.395 17.6657C114.706 17.4343 115.017 17.3571 115.173 17.3571C115.95 17.3571 116.494 17.8971 116.494 18.5914C116.494 19.0543 116.338 19.44 115.717 19.8257C114.791 20.4138 113.707 20.7097 112.608 20.6743C108.722 20.6743 107.479 17.8971 107.479 15.5057C107.479 12.5743 109.422 10.26 112.608 10.26C116.183 10.26 117.271 13.1143 117.271 14.9657C117.271 16.2771 116.494 16.2771 116.027 16.3543H110.432ZM100.873 12.1886C100.873 11.7257 100.873 11.1857 101.339 10.7228C101.495 10.5686 101.806 10.4143 102.272 10.4143L102.894 10.4914C103.671 10.8771 103.671 11.7257 103.671 12.0343V12.3428C103.671 12.0343 103.826 11.7257 104.059 11.4171C104.274 11.0794 104.573 10.8025 104.927 10.6133C105.281 10.424 105.678 10.3289 106.08 10.3371C107.09 10.3371 107.479 10.9543 107.479 11.5714C107.479 11.9571 107.401 12.3428 107.168 12.4971C106.857 12.8057 106.469 12.8828 106.158 12.8828H105.381C103.826 13.1914 103.826 14.6571 103.826 15.7371V18.8228C103.826 19.2086 103.826 19.8257 103.438 20.1343C103.205 20.4428 102.816 20.5971 102.427 20.5971L101.883 20.52C100.951 20.2114 100.873 19.3628 100.873 18.7457V12.1886ZM98.0755 10.4914L99.3189 10.5686C99.4743 10.6457 99.8629 10.9543 99.8629 11.4943C99.8629 11.7257 99.8629 11.88 99.7075 12.0343C99.4743 12.5743 99.0857 12.5743 98.0755 12.5743V17.3571C98.0755 18.2057 98.3863 18.2828 99.0857 18.2828C99.8629 18.2828 100.018 18.9 100.018 19.2857C100.018 20.4428 98.6972 20.52 97.92 20.52C95.2777 20.52 95.2 18.9771 95.2 17.8971V12.5743L94.3452 12.4971C94.1897 12.42 93.8012 12.1886 93.8012 11.4943L93.8789 11.0314C94.1897 10.4914 94.7337 10.4914 95.2 10.4914V9.10284C95.2 8.63999 95.2 8.17713 95.5886 7.79141C95.6663 7.71427 95.9772 7.32856 96.6766 7.32856L97.2206 7.4057C97.9977 7.71427 97.9977 8.56284 97.9977 9.10284V10.4914H98.0755ZM93.1795 9.71999C93.1795 10.5686 92.3246 11.1086 91.6252 11.1086C91.1589 11.1086 90.848 10.9543 90.4595 10.4143L90.1486 10.0286C89.6823 9.48856 88.9829 9.10284 87.8172 9.10284C86.496 9.10284 85.4857 9.5657 85.4857 10.4914C85.4857 10.8 85.6412 11.0314 85.8743 11.2628C86.1852 11.4943 86.6515 11.6486 87.6617 11.88C90.6926 12.6514 91.0035 12.8057 91.7029 13.2686C92.48 13.8086 93.4126 14.8114 93.4126 16.3543C93.4126 17.7428 92.7132 18.9 91.8583 19.5943C90.6554 20.4286 89.2044 20.8362 87.7395 20.7514C86.3406 20.7514 85.0972 20.52 84.0869 19.98C81.9886 18.9771 81.9109 17.6657 81.9109 17.3571C81.9109 16.4314 82.688 15.8143 83.4652 15.8143C84.0092 15.8143 84.4755 16.2 84.864 16.8943C85.3303 17.5114 85.7966 18.2057 87.8172 18.2057C88.2835 18.2057 88.7497 18.2057 89.1383 17.9743C89.2937 17.9743 90.2263 17.5886 90.2263 16.5857C90.2263 16.0457 89.9932 15.8143 89.6046 15.5057C89.216 15.2743 88.9829 15.1971 87.1177 14.7343C84.7863 14.1171 82.2995 13.5 82.2995 10.6457C82.2995 8.25427 84.2423 6.55713 87.8172 6.55713C91.2366 6.55713 93.1795 8.33141 93.1795 9.64284V9.71999Z" fill="white"/>
</svg>
