<svg width="170" height="180" viewBox="0 0 170 180" fill="none" xmlns="http://www.w3.org/2000/svg">
<path fill-rule="evenodd" clip-rule="evenodd" d="M81.5843 170.984C81.5843 170.984 89.9445 127.683 80.7342 109.793C71.524 91.9029 31.423 73.5513 31.423 73.5513C31.423 73.5513 23.0628 116.852 32.2731 134.742C41.4834 152.632 81.5843 170.984 81.5843 170.984ZM100.925 140.606C100.925 140.606 137.455 115.899 143.592 96.7367C149.729 77.574 134.35 36.2417 134.35 36.2417C134.35 36.2417 97.8202 60.9486 91.6829 80.1113C85.5455 99.274 100.925 140.606 100.925 140.606Z" fill="#FFC56D"/>
<g opacity="0.5">
<path d="M45.2877 116.148C45.1217 116.018 44.959 115.844 44.7997 115.627C44.6468 115.414 44.5228 115.178 44.4276 114.918C44.3389 114.663 44.3039 114.398 44.3226 114.125C44.3528 113.849 44.4654 113.587 44.6604 113.338L45.5607 114.044C45.5507 114.056 45.5189 114.104 45.4653 114.185C45.4166 114.26 45.3771 114.363 45.3468 114.494C45.3279 114.624 45.3483 114.768 45.4082 114.929C45.4681 115.089 45.6066 115.254 45.8237 115.424C46.0791 115.624 46.3057 115.73 46.5034 115.74C46.7062 115.745 46.8551 115.686 46.9501 115.565C47.0601 115.424 47.0845 115.268 47.0232 115.097C46.9733 114.924 46.8758 114.739 46.7306 114.543C46.5855 114.347 46.4276 114.14 46.2569 113.924C46.0976 113.707 45.9604 113.481 45.8452 113.246C45.7365 113.017 45.6847 112.781 45.6898 112.537C45.6999 112.288 45.8025 112.038 45.9976 111.789C46.2827 111.425 46.6447 111.266 47.0834 111.311C47.5272 111.349 47.9758 111.546 48.4291 111.901C48.7483 112.151 49.0052 112.435 49.1998 112.752C49.3993 113.063 49.497 113.392 49.493 113.739C49.4939 114.08 49.3593 114.423 49.0892 114.768L48.1889 114.062C48.3504 113.869 48.4207 113.688 48.4 113.517C48.3906 113.345 48.3307 113.184 48.2202 113.036C48.1162 112.893 48.0003 112.771 47.8726 112.671C47.6427 112.491 47.4346 112.395 47.2483 112.383C47.0733 112.369 46.9358 112.426 46.8358 112.554C46.7207 112.701 46.6882 112.861 46.7381 113.034C46.7994 113.206 46.9026 113.389 47.0477 113.586C47.1993 113.787 47.3547 113.996 47.514 114.214C47.6847 114.43 47.8276 114.655 47.9427 114.89C48.0642 115.129 48.1224 115.37 48.1173 115.614C48.1236 115.856 48.0292 116.101 47.8341 116.35C47.539 116.727 47.1625 116.885 46.7045 116.825C46.258 116.764 45.7857 116.538 45.2877 116.148Z" fill="white"/>
<path d="M47.6808 117.868L50.7646 113.932L51.617 114.6L50.9588 115.46L50.978 115.475C51.0044 115.454 51.0724 115.42 51.1822 115.372C51.2969 115.317 51.439 115.274 51.6084 115.242C51.7828 115.203 51.9735 115.203 52.1804 115.242C52.3922 115.274 52.6067 115.375 52.8238 115.545C53.1431 115.795 53.315 116.069 53.3395 116.366C53.3691 116.657 53.329 116.945 53.2191 117.23L53.2383 117.245C53.2647 117.225 53.3327 117.19 53.4425 117.143C53.5636 117.093 53.712 117.055 53.8879 117.028C54.075 116.999 54.2753 117.007 54.4885 117.05C54.7068 117.087 54.9277 117.193 55.1512 117.368C55.4002 117.563 55.5588 117.775 55.627 118.004C55.7002 118.226 55.7133 118.453 55.6662 118.684C55.6306 118.913 55.5562 119.133 55.443 119.343C55.3363 119.559 55.2154 119.752 55.0803 119.925C54.9567 120.096 54.8523 120.236 54.7673 120.344L53.2741 122.25L52.4505 121.605L53.9511 119.689C54.0261 119.594 54.1105 119.479 54.2041 119.347C54.3028 119.207 54.3773 119.06 54.4276 118.903C54.483 118.741 54.4921 118.578 54.455 118.415C54.4178 118.252 54.3099 118.1 54.1311 117.96C53.9076 117.785 53.6909 117.713 53.4809 117.744C53.2759 117.769 53.0786 117.857 52.8888 118.007C52.7041 118.151 52.5342 118.322 52.3791 118.52L50.9085 120.397L50.0848 119.752L51.5854 117.836C51.6605 117.74 51.7448 117.626 51.8385 117.493C51.9371 117.354 52.0116 117.207 52.062 117.05C52.1173 116.887 52.1264 116.725 52.0893 116.562C52.0522 116.399 51.9442 116.247 51.7654 116.107C51.542 115.932 51.3252 115.86 51.1153 115.891C50.9103 115.916 50.7129 116.004 50.5232 116.154C50.3384 116.298 50.1685 116.468 50.0134 116.666L48.5428 118.544L47.6808 117.868Z" fill="white"/>
<path d="M55.7674 124.358C55.3141 124.003 55.0188 123.617 54.8815 123.2C54.7556 122.782 54.74 122.368 54.8346 121.958C54.9406 121.546 55.123 121.169 55.3817 120.826C55.6855 120.425 56.034 120.131 56.4274 119.945C56.8321 119.757 57.2456 119.689 57.668 119.742C58.1018 119.793 58.5166 119.974 58.9125 120.284C59.2637 120.559 59.5165 120.881 59.671 121.249C59.8319 121.623 59.8853 122.015 59.8312 122.426C59.7822 122.83 59.6133 123.223 59.3245 123.605C59.3145 123.618 59.287 123.653 59.242 123.711C59.197 123.768 59.1594 123.816 59.1294 123.854L56.2657 121.611C55.9806 121.975 55.8499 122.326 55.8736 122.664C55.9023 122.995 56.0731 123.284 56.386 123.529C56.6286 123.719 56.8773 123.816 57.132 123.819C57.393 123.828 57.617 123.746 57.804 123.573L58.7522 124.316C58.3824 124.696 57.9285 124.907 57.3905 124.949C56.8576 124.985 56.3165 124.788 55.7674 124.358ZM56.6396 121.193L58.4977 122.648C58.5263 122.599 58.5654 122.516 58.6148 122.4C58.6707 122.289 58.7067 122.158 58.7229 122.006C58.7455 121.858 58.7236 121.702 58.6573 121.537C58.5911 121.372 58.4621 121.214 58.2706 121.064C58.0152 120.864 57.7779 120.766 57.5588 120.769C57.3511 120.771 57.1634 120.82 56.9959 120.915C56.8398 121.01 56.721 121.102 56.6396 121.193Z" fill="white"/>
<path d="M60.2489 127.869C59.8785 127.579 59.6009 127.243 59.4158 126.861C59.2358 126.472 59.1714 126.061 59.2227 125.627C59.279 125.187 59.4748 124.753 59.8099 124.325C60.1578 123.908 60.538 123.613 60.9505 123.442C61.3694 123.275 61.7907 123.224 62.2145 123.288C62.6446 123.357 63.0513 123.542 63.4344 123.842C63.8239 124.147 64.0959 124.484 64.2504 124.852C64.4163 125.219 64.4808 125.584 64.4439 125.947C64.4121 126.303 64.3057 126.616 64.1248 126.887L63.2245 126.181C63.4989 125.634 63.3583 125.142 62.8028 124.707C62.458 124.437 62.1073 124.332 61.7507 124.393C61.4005 124.459 61.0928 124.661 60.8277 124.999C60.5376 125.37 60.3944 125.736 60.3981 126.1C60.4132 126.462 60.5995 126.783 60.957 127.063C61.1997 127.253 61.4604 127.355 61.7392 127.367C62.0244 127.384 62.2869 127.286 62.5267 127.072L63.427 127.777C63.1928 128.037 62.9008 128.226 62.5511 128.343C62.2078 128.466 61.8356 128.494 61.4346 128.427C61.04 128.365 60.6448 128.179 60.2489 127.869ZM63.8616 123.435L63.421 123.09L63.5185 122.965L64.6998 122.345L65.5235 122.99L65.3885 123.163L63.8616 123.435Z" fill="white"/>
<path d="M64.6809 131.341C64.2276 130.986 63.9323 130.6 63.795 130.183C63.6691 129.765 63.6535 129.351 63.7481 128.941C63.8541 128.529 64.0365 128.152 64.2952 127.808C64.599 127.408 64.9475 127.114 65.3409 126.927C65.7456 126.74 66.1592 126.672 66.5815 126.725C67.0153 126.776 67.4301 126.957 67.826 127.267C68.1772 127.542 68.43 127.864 68.5845 128.232C68.7454 128.605 68.7988 128.998 68.7447 129.409C68.6957 129.813 68.5268 130.206 68.238 130.588C68.228 130.601 68.2005 130.636 68.1555 130.693C68.1105 130.751 68.073 130.799 68.0429 130.837L65.1792 128.594C64.8941 128.958 64.7634 129.309 64.7871 129.647C64.8159 129.978 64.9866 130.267 65.2995 130.512C65.5421 130.702 65.7908 130.799 66.0455 130.802C66.3065 130.811 66.5305 130.729 66.7175 130.556L67.6657 131.299C67.2959 131.679 66.842 131.89 66.304 131.932C65.7711 131.968 65.23 131.771 64.6809 131.341ZM65.5531 128.176L67.4112 129.631C67.4398 129.582 67.4789 129.499 67.5284 129.383C67.5842 129.272 67.6203 129.141 67.6364 128.989C67.659 128.841 67.6371 128.685 67.5709 128.52C67.5046 128.355 67.3756 128.197 67.1841 128.047C66.9287 127.847 66.6914 127.749 66.4723 127.752C66.2646 127.754 66.0769 127.803 65.9094 127.898C65.7533 127.992 65.6345 128.085 65.5531 128.176Z" fill="white"/>
</g>
<g opacity="0.5">
<path d="M107.539 111.17L102.962 109.712L103.272 108.738L104.306 108.858L104.313 108.836C104.293 108.821 104.242 108.776 104.159 108.7C104.071 108.615 103.982 108.496 103.891 108.344C103.802 108.184 103.744 107.993 103.716 107.77C103.683 107.538 103.714 107.273 103.809 106.974C103.94 106.564 104.123 106.273 104.358 106.101C104.594 105.93 104.854 105.836 105.138 105.82C105.415 105.801 105.692 105.824 105.968 105.887C106.243 105.95 106.489 106.016 106.706 106.085L108.933 106.794L108.576 107.913L106.338 107.2C106.092 107.122 105.861 107.073 105.645 107.054C105.422 107.032 105.227 107.077 105.06 107.188C104.888 107.289 104.757 107.481 104.667 107.765C104.572 108.063 104.566 108.312 104.651 108.512C104.735 108.711 104.876 108.875 105.073 109.004C105.263 109.13 105.477 109.231 105.716 109.307L107.909 110.006L107.539 111.17Z" fill="white"/>
<path d="M109.996 103.844C109.827 104.374 109.577 104.771 109.246 105.035C108.911 105.29 108.541 105.443 108.138 105.496C107.73 105.538 107.327 105.5 106.93 105.382C106.465 105.242 106.082 105.026 105.781 104.732C105.475 104.429 105.274 104.078 105.18 103.678C105.08 103.268 105.104 102.832 105.251 102.37C105.382 101.959 105.588 101.622 105.869 101.359C106.153 101.087 106.49 100.907 106.88 100.818C107.263 100.726 107.675 100.746 108.118 100.879C108.133 100.884 108.174 100.897 108.241 100.918C108.308 100.94 108.364 100.958 108.409 100.972L107.343 104.318C107.768 104.453 108.129 104.453 108.427 104.318C108.718 104.181 108.921 103.929 109.037 103.564C109.128 103.28 109.132 103.022 109.049 102.791C108.969 102.552 108.82 102.377 108.6 102.266L108.953 101.158C109.422 101.364 109.765 101.704 109.985 102.177C110.196 102.647 110.2 103.203 109.996 103.844ZM106.839 104.12L107.53 101.949C107.476 101.94 107.388 101.933 107.266 101.927C107.147 101.914 107.016 101.925 106.873 101.962C106.732 101.991 106.598 102.063 106.471 102.179C106.344 102.294 106.244 102.464 106.173 102.688C106.078 102.986 106.069 103.234 106.146 103.431C106.218 103.618 106.325 103.772 106.468 103.891C106.605 104.001 106.729 104.077 106.839 104.12Z" fill="white"/>
<path d="M105.986 98.4014C105.915 98.65 105.807 98.7963 105.661 98.8403C105.51 98.8745 105.349 98.8643 105.178 98.8096C105.014 98.7573 104.885 98.6711 104.792 98.551C104.698 98.4309 104.69 98.2515 104.766 98.0128C104.84 97.7815 104.948 97.6476 105.091 97.611C105.237 97.567 105.392 97.5711 105.556 97.6234C105.727 97.6781 105.86 97.7654 105.953 97.8855C106.041 97.9958 106.052 98.1677 105.986 98.4014ZM110.903 100.609L106.304 99.1437L106.668 98.0023L111.267 99.4676L110.903 100.609Z" fill="white"/>
<path d="M112.313 96.571C112.251 96.765 112.149 96.9706 112.005 97.188C111.865 97.3979 111.693 97.5896 111.489 97.7631C111.289 97.9292 111.061 98.0499 110.807 98.1251C110.548 98.1904 110.273 98.1768 109.982 98.0841L110.317 97.0322C110.332 97.0369 110.385 97.0498 110.477 97.0709C110.562 97.0896 110.668 97.0906 110.797 97.0741C110.92 97.0477 111.044 96.9804 111.169 96.8723C111.294 96.7641 111.397 96.5832 111.478 96.3296C111.573 96.0312 111.592 95.7907 111.535 95.6082C111.471 95.4234 111.368 95.3084 111.226 95.2632C111.062 95.2109 110.912 95.2414 110.778 95.3546C110.638 95.458 110.504 95.6083 110.375 95.8057C110.246 96.003 110.113 96.2153 109.975 96.4424C109.832 96.6598 109.673 96.86 109.5 97.0431C109.329 97.2187 109.133 97.3451 108.911 97.4223C108.682 97.4972 108.421 97.4883 108.13 97.3956C107.705 97.2601 107.439 96.9863 107.332 96.5742C107.218 96.1597 107.245 95.6877 107.414 95.158C107.532 94.785 107.703 94.4571 107.924 94.1743C108.138 93.8892 108.403 93.69 108.718 93.5769C109.026 93.4613 109.382 93.4677 109.785 93.5961L109.45 94.648C109.221 94.5669 109.032 94.5644 108.885 94.6407C108.732 94.7071 108.607 94.8152 108.51 94.9651C108.416 95.1075 108.345 95.2533 108.297 95.4025C108.212 95.6711 108.195 95.8917 108.246 96.0643C108.293 96.2271 108.391 96.3323 108.54 96.3798C108.712 96.4345 108.868 96.4101 109.007 96.3068C109.142 96.1935 109.274 96.0383 109.402 95.8409C109.533 95.6361 109.67 95.4251 109.814 95.2077C109.952 94.9805 110.107 94.7754 110.281 94.5923C110.457 94.4018 110.655 94.2679 110.877 94.1907C111.094 94.1036 111.348 94.1064 111.639 94.1991C112.079 94.3393 112.349 94.6267 112.449 95.0612C112.544 95.4858 112.498 95.9891 112.313 96.571Z" fill="white"/>
<path d="M114.085 91.0089C113.995 91.2924 113.878 91.5181 113.734 91.6859C113.585 91.8439 113.432 91.9635 113.274 92.0449C113.119 92.1187 112.984 92.1701 112.868 92.1989C112.754 92.2202 112.689 92.2322 112.671 92.2349L112.664 92.2573L115.529 93.17L115.155 94.345L108.507 92.2272L108.825 91.2313L109.893 91.3619L109.9 91.3395C109.88 91.3249 109.825 91.2786 109.734 91.2006C109.647 91.1151 109.556 90.9999 109.462 90.8551C109.371 90.7028 109.312 90.5154 109.284 90.2929C109.249 90.068 109.278 89.8101 109.37 89.5191C109.589 88.8328 109.966 88.4105 110.501 88.2523C111.036 88.0942 111.658 88.128 112.367 88.3538C113.076 88.5796 113.594 88.9131 113.922 89.3545C114.242 89.7935 114.297 90.3449 114.085 91.0089ZM113.012 91.0492C113.112 90.7359 113.125 90.4769 113.05 90.2724C112.97 90.058 112.836 89.8877 112.646 89.7615C112.451 89.6254 112.238 89.5205 112.006 89.4469C111.775 89.3732 111.547 89.3416 111.322 89.352C111.091 89.3526 110.886 89.4185 110.704 89.5496C110.515 89.6785 110.372 89.8958 110.275 90.2017C110.141 90.6194 110.177 90.9594 110.381 91.2217C110.578 91.4815 110.87 91.6733 111.258 91.7969C111.661 91.9252 112.022 91.9377 112.343 91.8344C112.656 91.7287 112.879 91.467 113.012 91.0492Z" fill="white"/>
<path d="M114.837 88.2631L110.237 86.7977L110.576 85.7347L111.877 86.0628C111.697 85.9562 111.53 85.8086 111.377 85.62C111.218 85.4215 111.112 85.1865 111.059 84.9148C111.001 84.6333 111.031 84.306 111.15 83.933L111.203 83.7651L112.479 84.1716L112.426 84.3394C112.221 84.981 112.183 85.4619 112.311 85.7821C112.432 86.0999 112.735 86.3361 113.22 86.4906L115.2 87.1216L114.837 88.2631Z" fill="white"/>
<path d="M116.638 82.9956C116.436 83.6298 116.076 84.0122 115.558 84.1429C115.039 84.2736 114.43 84.2273 113.728 84.0039C113.02 83.7781 112.492 83.4619 112.144 83.0555C111.792 82.6393 111.716 82.1178 111.916 81.4911C112.03 81.133 112.183 80.8697 112.377 80.7013C112.563 80.5304 112.747 80.4165 112.929 80.3596C113.112 80.3027 113.244 80.2749 113.326 80.2763L113.333 80.2539L112.415 79.9616L112.79 78.7866L117.389 80.2519L117.075 81.2367L116.265 81.188L116.258 81.2104C116.318 81.2542 116.401 81.3546 116.507 81.5117C116.608 81.6589 116.684 81.8597 116.734 82.1141C116.779 82.3586 116.747 82.6525 116.638 82.9956ZM115.825 82.219C115.958 81.8013 115.917 81.4799 115.701 81.255C115.48 81.0202 115.176 80.841 114.788 80.7174C114.377 80.5867 114.022 80.5555 113.72 80.6239C113.419 80.6923 113.203 80.9317 113.073 81.342C112.98 81.6329 112.971 81.8807 113.045 82.0852C113.122 82.2823 113.254 82.4477 113.442 82.5814C113.624 82.7052 113.842 82.8076 114.096 82.8884C114.35 82.9692 114.59 83.013 114.818 83.0199C115.049 83.0193 115.252 82.9609 115.429 82.8446C115.601 82.7185 115.733 82.51 115.825 82.219Z" fill="white"/>
<path d="M114.052 74.8238L114.409 73.7047L114.599 73.7653L118.505 76.7479L117.999 78.3369L113.098 78.5136L112.897 78.4495L113.246 77.3528L117.316 77.2317L117.323 77.2094L114.052 74.8238Z" fill="white"/>
<path d="M119.234 74.4621L114.657 73.0039L114.967 72.0303L116.001 72.1502L116.008 72.1279C115.988 72.1133 115.937 72.0681 115.854 71.9925C115.766 71.907 115.677 71.7881 115.586 71.6358C115.497 71.476 115.438 71.2849 115.411 71.0624C115.378 70.8301 115.409 70.5647 115.504 70.2663C115.635 69.8559 115.818 69.565 116.053 69.3935C116.289 69.222 116.549 69.1281 116.833 69.112C117.11 69.0934 117.387 69.1157 117.663 69.1789C117.938 69.2421 118.184 69.3082 118.401 69.3771L120.628 70.0866L120.271 71.2056L118.033 70.4926C117.787 70.4141 117.556 70.3652 117.34 70.3458C117.117 70.324 116.922 70.3687 116.755 70.4799C116.583 70.5812 116.452 70.7736 116.362 71.0571C116.266 71.3556 116.261 71.6045 116.346 71.8039C116.43 72.0034 116.571 72.1674 116.768 72.296C116.958 72.4223 117.172 72.5234 117.411 72.5995L119.604 73.2982L119.234 74.4621Z" fill="white"/>
<path d="M121.509 67.7071C121.307 68.3412 120.947 68.7236 120.428 68.8544C119.91 68.9851 119.3 68.9387 118.599 68.7153C117.89 68.4895 117.362 68.1734 117.015 67.767C116.663 67.3507 116.587 66.8292 116.787 66.2026C116.901 65.8445 117.054 65.5812 117.248 65.4127C117.434 65.2418 117.618 65.128 117.8 65.0711C117.983 65.0141 118.115 64.9864 118.197 64.9878L118.204 64.9654L117.286 64.673L117.66 63.498L122.26 64.9634L121.946 65.9481L121.136 65.8995L121.129 65.9219C121.189 65.9656 121.272 66.0661 121.378 66.2231C121.479 66.3703 121.554 66.5711 121.605 66.8255C121.65 67.0701 121.618 67.3639 121.509 67.7071ZM120.696 66.9305C120.829 66.5127 120.788 66.1914 120.572 65.9664C120.351 65.7316 120.046 65.5525 119.659 65.4289C119.248 65.2981 118.892 65.267 118.591 65.3354C118.29 65.4038 118.074 65.6431 117.943 66.0534C117.851 66.3444 117.842 66.5921 117.916 66.7967C117.993 66.9937 118.125 67.1591 118.313 67.2928C118.495 67.4167 118.713 67.519 118.967 67.5998C119.221 67.6806 119.461 67.7245 119.689 67.7313C119.919 67.7307 120.123 67.6723 120.3 67.5561C120.471 67.43 120.604 67.2214 120.696 66.9305Z" fill="white"/>
<path d="M120.69 108.581L116.09 107.116L116.429 106.053L117.73 106.381C117.55 106.274 117.383 106.127 117.23 105.938C117.071 105.74 116.965 105.505 116.912 105.233C116.854 104.951 116.884 104.624 117.003 104.251L117.057 104.083L118.332 104.49L118.279 104.658C118.074 105.299 118.036 105.78 118.164 106.1C118.285 106.418 118.588 106.654 119.073 106.809L121.053 107.44L120.69 108.581Z" fill="white"/>
<path d="M122.491 103.314C122.289 103.948 121.929 104.33 121.411 104.461C120.892 104.592 120.283 104.545 119.581 104.322C118.873 104.096 118.345 103.78 117.998 103.374C117.645 102.957 117.569 102.436 117.769 101.809C117.883 101.451 118.037 101.188 118.23 101.019C118.416 100.849 118.6 100.735 118.782 100.678C118.965 100.621 119.097 100.593 119.179 100.594L119.186 100.572L118.268 100.28L118.643 99.1048L123.242 100.57L122.928 101.555L122.118 101.506L122.111 101.529C122.171 101.572 122.254 101.673 122.36 101.83C122.461 101.977 122.537 102.178 122.587 102.432C122.632 102.677 122.6 102.971 122.491 103.314ZM121.678 102.537C121.812 102.119 121.77 101.798 121.554 101.573C121.333 101.338 121.029 101.159 120.641 101.036C120.23 100.905 119.875 100.874 119.573 100.942C119.272 101.01 119.056 101.25 118.926 101.66C118.833 101.951 118.824 102.199 118.898 102.403C118.975 102.6 119.107 102.766 119.295 102.9C119.477 103.023 119.695 103.126 119.949 103.207C120.203 103.287 120.443 103.331 120.671 103.338C120.902 103.337 121.105 103.279 121.282 103.163C121.454 103.037 121.586 102.828 121.678 102.537Z" fill="white"/>
<path d="M124.221 97.885C124.159 98.079 124.056 98.2847 123.913 98.502C123.772 98.7119 123.6 98.9036 123.397 99.0772C123.196 99.2433 122.969 99.3639 122.715 99.4391C122.456 99.5045 122.181 99.4908 121.89 99.3981L122.225 98.3462C122.24 98.351 122.293 98.3639 122.385 98.3849C122.469 98.4036 122.576 98.4047 122.704 98.3881C122.828 98.3617 122.952 98.2944 123.077 98.1863C123.202 98.0781 123.305 97.8972 123.385 97.6436C123.481 97.3452 123.5 97.1047 123.443 96.9223C123.378 96.7374 123.275 96.6224 123.134 96.5772C122.969 96.5249 122.82 96.5554 122.685 96.6686C122.546 96.772 122.411 96.9224 122.283 97.1197C122.154 97.317 122.021 97.5293 121.883 97.7565C121.739 97.9738 121.581 98.174 121.408 98.3571C121.237 98.5327 121.04 98.6591 120.819 98.7364C120.589 98.8112 120.329 98.8023 120.038 98.7096C119.613 98.5741 119.347 98.3004 119.24 97.8883C119.125 97.4738 119.152 97.0017 119.321 96.472C119.44 96.099 119.61 95.7711 119.832 95.4883C120.046 95.2032 120.311 95.0041 120.626 94.8909C120.934 94.7754 121.29 94.7818 121.692 94.9101L121.357 95.962C121.128 95.8809 120.94 95.8784 120.793 95.9547C120.64 96.0211 120.515 96.1292 120.418 96.2791C120.323 96.4215 120.252 96.5673 120.205 96.7165C120.119 96.9851 120.102 97.2057 120.154 97.3784C120.201 97.5412 120.299 97.6463 120.448 97.6939C120.62 97.7485 120.775 97.7242 120.915 97.6208C121.05 97.5076 121.181 97.3523 121.31 97.155C121.441 96.9502 121.578 96.7391 121.721 96.5218C121.859 96.2946 122.015 96.0895 122.189 95.9064C122.364 95.7158 122.563 95.582 122.785 95.5047C123.002 95.4176 123.256 95.4204 123.546 95.5131C123.987 95.6534 124.257 95.9407 124.357 96.3752C124.451 96.7999 124.406 97.3031 124.221 97.885Z" fill="white"/>
<path d="M121.385 90.4974L121.741 89.3784L121.932 89.439L125.838 92.4216L125.332 94.0106L120.431 94.1873L120.23 94.1232L120.579 93.0265L124.648 92.9054L124.656 92.883L121.385 90.4974Z" fill="white"/>
<path d="M121.962 87.4856C121.882 87.7393 121.767 87.8918 121.619 87.9433C121.466 87.985 121.3 87.9773 121.121 87.9203C120.942 87.8632 120.806 87.7746 120.713 87.6546C120.622 87.527 120.617 87.3364 120.698 87.0827C120.774 86.844 120.885 86.7026 121.03 86.6586C121.176 86.6146 121.338 86.6211 121.517 86.6781C121.696 86.7352 121.836 86.8249 121.937 86.9474C122.03 87.0675 122.038 87.2469 121.962 87.4856ZM122.12 88.1892L122.484 87.0478L127.99 88.8019C128.393 88.9303 128.654 89.1162 128.773 89.3598C128.895 89.5958 128.898 89.8967 128.782 90.2622L128.525 91.0679L127.641 90.7863L127.883 90.0253L122.12 88.1892Z" fill="white"/>
<path d="M128.205 85.3782C128.037 85.9079 127.787 86.3049 127.456 86.5693C127.12 86.8239 126.751 86.9774 126.348 87.0298C125.94 87.0724 125.537 87.0344 125.139 86.9159C124.674 86.776 124.291 86.5595 123.99 86.2664C123.684 85.9634 123.484 85.612 123.389 85.2121C123.29 84.8023 123.314 84.3662 123.461 83.9037C123.592 83.4934 123.798 83.1563 124.079 82.8926C124.363 82.6214 124.699 82.4411 125.09 82.3517C125.472 82.2599 125.885 82.2804 126.327 82.4132C126.342 82.4179 126.383 82.431 126.45 82.4524C126.517 82.4738 126.573 82.4916 126.618 82.5059L125.552 85.8518C125.977 85.9873 126.339 85.9874 126.637 85.8522C126.927 85.7147 127.131 85.4631 127.247 85.0975C127.337 84.814 127.341 84.5565 127.259 84.3248C127.179 84.0857 127.029 83.9106 126.81 83.7996L127.163 82.6918C127.631 82.8985 127.975 83.2381 128.194 83.7106C128.406 84.1807 128.41 84.7366 128.205 85.3782ZM125.048 85.6543L125.74 83.4833C125.685 83.4741 125.597 83.4666 125.476 83.4608C125.357 83.4476 125.226 83.4592 125.082 83.4958C124.942 83.5249 124.808 83.5973 124.68 83.7129C124.553 83.8285 124.454 83.9982 124.383 84.222C124.288 84.5204 124.279 84.7681 124.355 84.9652C124.427 85.1524 124.535 85.3058 124.677 85.4252C124.815 85.5348 124.939 85.6111 125.048 85.6543Z" fill="white"/>
<path d="M129.537 80.8114C129.421 81.1769 129.243 81.4244 129.005 81.5539C128.769 81.6759 128.449 81.6727 128.046 81.5444L125.394 80.6994L125.173 81.3932L124.367 81.1365C124.436 80.9202 124.467 80.7452 124.461 80.6116C124.454 80.4779 124.377 80.3589 124.229 80.2544C124.082 80.1498 123.825 80.0394 123.46 79.9229L123.752 79.0053L124.927 79.3796L125.262 78.3277L126.068 78.5844L125.733 79.6363L128.631 80.5597L128.973 79.4854L129.869 79.7707L129.537 80.8114Z" fill="white"/>
<path d="M130.757 77.3703C130.555 78.0044 130.194 78.3868 129.676 78.5175C129.158 78.6482 128.548 78.6019 127.847 78.3785C127.138 78.1527 126.61 77.8366 126.263 77.4301C125.911 77.0139 125.835 76.4924 126.034 75.8657C126.148 75.5076 126.302 75.2444 126.495 75.0759C126.681 74.905 126.866 74.7911 127.048 74.7342C127.23 74.6773 127.363 74.6496 127.444 74.6509L127.451 74.6286L126.534 74.3362L126.908 73.1612L131.507 74.6265L131.194 75.6113L130.383 75.5627L130.376 75.585C130.436 75.6288 130.519 75.7292 130.625 75.8863C130.726 76.0335 130.802 76.2343 130.853 76.4887C130.898 76.7332 130.866 77.0271 130.757 77.3703ZM129.944 76.5937C130.077 76.1759 130.036 75.8545 129.82 75.6296C129.599 75.3948 129.294 75.2156 128.906 75.092C128.496 74.9613 128.14 74.9302 127.839 74.9985C127.538 75.0669 127.322 75.3063 127.191 75.7166C127.098 76.0076 127.089 76.2553 127.164 76.4598C127.241 76.6569 127.373 76.8223 127.56 76.956C127.743 77.0798 127.961 77.1822 128.215 77.263C128.468 77.3438 128.709 77.3876 128.937 77.3945C129.167 77.3939 129.371 77.3355 129.547 77.2192C129.719 77.0931 129.851 76.8846 129.944 76.5937Z" fill="white"/>
</g>
</svg>
