<svg width="94" height="50" viewBox="0 0 94 50" fill="none" xmlns="http://www.w3.org/2000/svg">
<path d="M20.372 11.495C22.26 12.1489 23.9135 13.1357 25.2269 14.3959L26.0595 15.1925V14.4197V13.6469L25.5084 13.2903C23.7845 12.1727 21.2984 11.2454 20.0788 11.2454C19.7036 11.2573 19.727 11.2691 20.372 11.495Z" fill="white"/>
<path d="M35.3237 11.5664C35.0071 11.6853 34.5615 12.0063 34.2097 12.3629C33.1425 13.4329 33.2129 12.5413 33.2129 25.631C33.2129 38.7208 33.1425 37.8291 34.1979 38.8992C35.0892 39.7908 35.4879 39.8978 38.1382 39.8978H40.3311L41.0582 39.5293C41.539 39.2796 41.9142 38.9824 42.184 38.6257C42.9345 37.627 42.9462 37.52 42.9462 31.1832C42.9462 24.882 42.9462 24.8939 42.1957 24.4303C41.8673 24.2281 41.6211 24.2044 39.8386 24.2281L37.845 24.2638V25.7499V27.2361L38.49 27.2717C38.8418 27.2955 39.1936 27.3668 39.2757 27.4382C39.393 27.5333 39.4281 28.5201 39.4281 31.8847C39.4281 37.0326 39.5337 36.6878 38.0209 36.6878C36.4495 36.6878 36.6137 37.9361 36.6137 25.8332C36.6137 16.6311 36.6371 15.4303 36.8013 15.1925C36.9655 14.9547 37.0828 14.931 38.0092 14.931C39.4985 14.931 39.4281 14.7645 39.4281 18.0934C39.4281 20.067 39.4633 20.8636 39.5689 20.9706C39.7682 21.1727 42.6061 21.1727 42.8055 20.9706C43.0283 20.7447 43.0048 14.5624 42.7703 13.7777C42.5123 12.8861 41.9025 12.1608 41.0582 11.7328L40.3311 11.3643L38.0913 11.3762C36.3674 11.3762 35.7342 11.4237 35.3237 11.5664Z" fill="white"/>
<path d="M49.1495 11.7566C48.2817 12.2084 47.7306 12.8742 47.4609 13.7658C47.2029 14.6813 47.1911 36.5689 47.4609 37.4844C47.7188 38.376 48.3286 39.1013 49.173 39.5293L49.9001 39.8978H52.093C54.6025 39.8978 55.0599 39.8027 55.869 39.0775C56.1505 38.8278 56.5023 38.3641 56.6665 38.0431L56.9596 37.4606L56.9948 25.8213C57.03 12.5294 57.0886 13.4448 56.0332 12.3748C55.142 11.4594 54.7433 11.3643 52.0813 11.3643H49.8883L49.1495 11.7566ZM53.2891 15.1331C53.4885 15.3114 53.5002 15.7989 53.5002 25.8213V36.3192L53.2422 36.4976C53.0546 36.6284 52.7028 36.6878 52.0813 36.6878C50.5333 36.6878 50.6858 37.841 50.6858 25.7618C50.6858 16.6311 50.7092 15.4303 50.8734 15.1925C51.0376 14.9547 51.1548 14.931 52.0578 14.931C52.8318 14.931 53.1249 14.9785 53.2891 15.1331Z" fill="white"/>
<path d="M61.5448 11.6257C61.3806 11.8635 61.3572 13.3972 61.3572 25.7023C61.3572 33.2993 61.3924 39.6005 61.4275 39.7075C61.5331 39.9928 64.6993 39.9928 64.8049 39.7075C64.8401 39.6005 64.8752 34.0721 64.8752 27.4143C64.8752 16.5597 64.8987 15.2875 65.0629 15.1211C65.274 14.8952 66.9744 14.8476 67.3496 15.0498C67.5724 15.1687 67.5724 15.4421 67.5724 27.2716C67.5724 33.9176 67.6076 39.4816 67.6428 39.6243C67.7132 39.8977 67.7483 39.8977 69.4018 39.8977C71.0553 39.8977 71.0905 39.8977 71.1491 39.6243C71.1843 39.4816 71.1961 33.6679 71.1843 26.701L71.1491 14.0392L70.8794 13.4447C70.5276 12.672 69.8826 11.9943 69.1556 11.6495C68.581 11.3761 68.4989 11.3642 65.145 11.3642C61.7442 11.3642 61.7207 11.3642 61.5448 11.6257Z" fill="white"/>
<path d="M77.6577 11.5664C77.3411 11.6853 76.8955 12.0063 76.5437 12.3629C75.4765 13.4329 75.5469 12.5413 75.5469 25.631C75.5469 38.7208 75.4765 37.8291 76.5319 38.8992C77.4232 39.7908 77.8219 39.8978 80.4604 39.8978C82.5126 39.8978 82.6768 39.874 83.2397 39.6125C83.9785 39.2677 84.5766 38.6733 84.9401 37.9243L85.2216 37.3417L85.2567 31.421C85.2919 24.8464 85.3036 24.9296 84.5179 24.4421C84.1661 24.2163 83.9668 24.2044 82.1491 24.2281L80.179 24.2638V25.7499V27.2361L80.824 27.2717C81.1758 27.2955 81.5276 27.3668 81.6097 27.4382C81.7269 27.5333 81.7621 28.5201 81.7621 31.8847C81.7621 37.0326 81.8677 36.6878 80.3549 36.6878C78.7835 36.6878 78.9477 37.948 78.9477 25.7737C78.9477 15.7989 78.9594 15.3114 79.1588 15.1331C79.3229 14.9785 79.6161 14.931 80.3901 14.931C81.8208 14.931 81.7621 14.7883 81.7621 18.2123C81.7621 20.6139 81.7856 20.9825 81.9498 21.0419C82.3016 21.1846 84.987 21.1251 85.1395 20.9706C85.3623 20.7447 85.3388 14.5624 85.1043 13.7777C84.8463 12.8861 84.2365 12.1608 83.3922 11.7328L82.6651 11.3643L80.4253 11.3762C78.7014 11.3762 78.0682 11.4237 77.6577 11.5664Z" fill="white"/>
<path d="M20.3132 14.3722C20.3132 14.4078 20.8409 14.7645 21.4859 15.1687C23.5733 16.4646 24.6874 17.5822 25.4848 19.1753C25.6959 19.5914 25.8835 19.9243 25.8952 19.9243C25.9187 19.9243 25.9421 19.4488 25.9421 18.8662V17.8081L25.3441 17.1423C25.0157 16.7737 24.359 16.2268 23.8782 15.9296C22.7055 15.1925 20.3132 14.1463 20.3132 14.3722Z" fill="white"/>
<path d="M19.2578 16.4051C19.2578 16.4407 19.7152 16.7617 20.2898 17.1422C21.568 17.9863 23.0573 19.4962 23.6906 20.5781C24.4411 21.874 24.6756 22.7419 24.746 24.3231C24.8046 25.8806 24.5701 27.1408 23.9486 28.6388C23.7609 29.1025 23.6202 29.5067 23.6554 29.5305C23.7258 29.6137 24.5349 28.2703 24.9102 27.438C25.6607 25.7736 25.907 23.7406 25.5434 22.3614C25.0392 20.4116 23.5381 18.7115 21.0755 17.2729C20.1491 16.7261 19.2578 16.3099 19.2578 16.4051Z" fill="white"/>
<path d="M9.99354 20.3522C9.48928 21.1607 8.87948 22.4685 8.63322 23.3126C8.32832 24.3231 8.32832 26.4037 8.63322 27.2954C9.30165 29.2927 10.8613 30.874 13.6523 32.4077C14.6608 32.9545 15.1768 33.014 14.2621 32.4671C13.453 31.9915 12.8666 31.5398 11.9402 30.6362C9.38374 28.1514 8.68012 25.0008 9.87627 21.4222C10.0522 20.8753 10.2633 20.3166 10.3453 20.1739C10.6151 19.6508 10.3453 19.7934 9.99354 20.3522Z" fill="white"/>
<path d="M16.2088 20.4711C15.3527 20.7089 14.7312 21.0894 14.0862 21.7908C11.9402 24.1211 12.6321 27.8067 15.4934 29.2333C16.1619 29.5662 16.373 29.6138 17.3698 29.6376L18.4955 29.6613L20.5595 34.8093L22.6351 39.9572L23.4677 39.9929C24.0424 40.0166 24.3003 39.981 24.3003 39.8859C24.3003 39.8145 23.3739 37.413 22.2247 34.5596C21.0872 31.7062 20.1373 29.269 20.1138 29.1263C20.0787 28.9599 20.1608 28.8172 20.3718 28.6746C20.9113 28.3179 21.6735 27.129 21.8963 26.2968C22.8579 22.7063 19.7386 19.5081 16.2088 20.4711Z" fill="white"/>
<path d="M8.11719 30.3509C8.11719 31.2782 8.15237 31.4328 8.43381 31.837C8.86771 32.479 10.0873 33.3944 11.3421 34.0127C12.421 34.5477 13.7461 35.0589 13.8282 34.9757C13.8634 34.9519 13.6288 34.7736 13.3122 34.5952C11.0137 33.2518 9.41887 31.7656 8.6449 30.2201C8.39863 29.7207 8.17582 29.3165 8.15237 29.3165C8.12891 29.3165 8.11719 29.7802 8.11719 30.3509Z" fill="white"/>
<path d="M8 34.9043C8 35.6058 8 35.6058 8.51598 35.9743C9.89976 36.9373 12.3155 37.9003 13.6875 38.043C14.4967 38.1262 14.4263 38.0787 12.9722 37.5199C11.4008 36.9254 8.71534 35.1183 8.34008 34.405C8.129 34.0007 8 34.191 8 34.9043Z" fill="white"/>
</svg>
