<svg width="72" height="50" viewBox="0 0 72 50" fill="none" xmlns="http://www.w3.org/2000/svg">
<path fill-rule="evenodd" clip-rule="evenodd" d="M51.6776 3L54.2877 3.00739L45.294 37.0804H42.4495L51.6776 3ZM26.0527 21.6702V14.8179H19.2003V21.6702H26.0526V31.8258H36.2082V21.6702H26.0527ZM2 23.2429L12.9456 30.8459L14.4801 28.9478L6.18013 23.0593L14.298 17.4311L12.8681 15.5267L2 23.2429ZM70.3335 23.2429L59.3879 30.8459L57.8534 28.9478L66.1534 23.0593L58.0354 17.4311L59.4653 15.5267L70.3335 23.2429ZM5.71023 45.1848C5.7746 45.2492 5.80323 45.3207 5.79606 45.3994C5.7889 45.4781 5.75671 45.5532 5.69948 45.6247C5.57788 45.7678 5.3901 45.9073 5.13615 46.0433C4.8822 46.1792 4.59068 46.2471 4.26161 46.2471C3.94685 46.2471 3.66966 46.1953 3.43001 46.0915C3.19036 45.9878 2.98825 45.8483 2.82372 45.673C2.65919 45.4978 2.53581 45.2921 2.45353 45.056C2.37128 44.82 2.33012 44.5732 2.33012 44.3156V43.1353C2.33012 42.8778 2.37483 42.631 2.46428 42.3949C2.55369 42.1588 2.68246 41.9531 2.85055 41.7779C3.01866 41.6026 3.22077 41.4631 3.45683 41.3594C3.6929 41.2557 3.96115 41.2038 4.26161 41.2038C4.55491 41.2038 4.81603 41.2557 5.04493 41.3594C5.27386 41.4631 5.46341 41.5901 5.61365 41.7403C5.67804 41.8047 5.71023 41.8798 5.71023 41.9657C5.71023 42.0515 5.67804 42.1266 5.61365 42.191L5.40976 42.3949C5.27386 42.5308 5.12721 42.5272 4.96981 42.3842C4.89114 42.3126 4.7892 42.25 4.66399 42.1964C4.53881 42.1427 4.40468 42.1159 4.26161 42.1159C3.91825 42.1159 3.67143 42.2178 3.5212 42.4217C3.371 42.6256 3.29588 42.8634 3.29588 43.1353V44.3156C3.29588 44.4515 3.31196 44.5821 3.34414 44.7073C3.37636 44.8325 3.43001 44.9416 3.50512 45.0346C3.58024 45.1276 3.6786 45.2009 3.8002 45.2546C3.9218 45.3082 4.07562 45.335 4.26161 45.335C4.44761 45.335 4.60856 45.2957 4.7445 45.217C4.8804 45.1383 4.9877 45.0632 5.0664 44.9917C5.23093 44.8557 5.38116 44.8557 5.51706 44.9917L5.71023 45.1848ZM9.63839 45.2063C9.44881 45.2921 9.24315 45.335 9.02138 45.335C8.79962 45.335 8.59396 45.2921 8.40438 45.2063C8.2148 45.1204 8.05026 45.006 7.91078 44.8629C7.77129 44.7198 7.66219 44.5499 7.58349 44.3532C7.50482 44.1565 7.46547 43.9472 7.46547 43.7255C7.46547 43.5037 7.50482 43.2945 7.58349 43.0977C7.66219 42.901 7.77129 42.7311 7.91078 42.588C8.05026 42.445 8.2148 42.3305 8.40438 42.2447C8.59396 42.1588 8.79962 42.1159 9.02138 42.1159C9.24315 42.1159 9.44881 42.1588 9.63839 42.2447C9.82794 42.3305 9.99248 42.445 10.132 42.588C10.2715 42.7311 10.3806 42.901 10.4592 43.0977C10.5379 43.2945 10.5773 43.5037 10.5773 43.7255C10.5773 43.9472 10.5379 44.1565 10.4592 44.3532C10.3806 44.5499 10.2715 44.7198 10.132 44.8629C9.99248 45.006 9.82794 45.1204 9.63839 45.2063ZM8.03955 46.0486C8.34356 46.1809 8.67085 46.2471 9.02138 46.2471C9.37192 46.2471 9.69918 46.1809 10.0032 46.0486C10.3072 45.9163 10.5737 45.7356 10.8026 45.5067C11.0315 45.2778 11.2122 45.0113 11.3445 44.7073C11.4769 44.4033 11.543 44.076 11.543 43.7255C11.543 43.3749 11.4769 43.0477 11.3445 42.7436C11.2122 42.4396 11.0315 42.1731 10.8026 41.9442C10.5737 41.7153 10.3072 41.5347 10.0032 41.4023C9.69918 41.27 9.37192 41.2038 9.02138 41.2038C8.67085 41.2038 8.34356 41.27 8.03955 41.4023C7.7355 41.5347 7.46905 41.7153 7.24012 41.9442C7.01122 42.1731 6.83058 42.4396 6.69823 42.7436C6.56588 43.0477 6.49971 43.3749 6.49971 43.7255C6.49971 44.076 6.56588 44.4033 6.69823 44.7073C6.83058 45.0113 7.01122 45.2778 7.24012 45.5067C7.46905 45.7356 7.7355 45.9163 8.03955 46.0486ZM14.3886 46.1377C14.1096 46.1377 13.8539 46.0912 13.6214 45.9982C13.3889 45.9052 13.1904 45.7782 13.0258 45.6172C12.8613 45.4563 12.7343 45.2631 12.6449 45.0378C12.5555 44.8125 12.5108 44.571 12.5108 44.3135V43.1331C12.5108 42.8756 12.5573 42.6342 12.6503 42.4088C12.7433 42.1835 12.8702 41.9904 13.0312 41.8294C13.1922 41.6685 13.3853 41.5415 13.6106 41.4485C13.836 41.3555 14.081 41.309 14.3457 41.309H15.408C15.4795 41.309 15.5153 41.2732 15.5153 41.2017V39.1629C15.5153 39.0627 15.5439 38.9841 15.6011 38.9268C15.6584 38.8696 15.7371 38.841 15.8372 38.841H16.1591C16.2593 38.841 16.338 38.8696 16.3952 38.9268C16.4524 38.9841 16.481 39.0627 16.481 39.1629V45.8158C16.481 45.9159 16.4524 45.9946 16.3952 46.0518C16.338 46.1091 16.2593 46.1377 16.1591 46.1377H14.3886ZM15.5153 42.3284C15.5153 42.2568 15.4795 42.2211 15.408 42.2211H14.3886C14.1168 42.2211 13.8968 42.3051 13.7287 42.4732C13.5606 42.6413 13.4765 42.8613 13.4765 43.1331V44.3135C13.4765 44.5853 13.5659 44.8053 13.7448 44.9734C13.9236 45.1415 14.1382 45.2256 14.3886 45.2256H15.408C15.4795 45.2256 15.5153 45.1898 15.5153 45.1183V42.3284ZM21.3565 45.3028C21.3601 45.2241 21.3297 45.1526 21.2653 45.0882L21.0614 44.9058C20.9971 44.8414 20.9255 44.8074 20.8468 44.8039C20.7681 44.8003 20.6894 44.8378 20.6108 44.9165C20.5321 45.0024 20.4176 45.0936 20.2674 45.1902C20.1172 45.2867 19.9061 45.335 19.6343 45.335C19.2909 45.335 19.0388 45.242 18.8778 45.056C18.7169 44.8701 18.6364 44.6411 18.6364 44.3693V44.1761C18.6364 44.1046 18.6721 44.0688 18.7437 44.0688H21.158C21.2582 44.0688 21.3369 44.0402 21.3941 43.983C21.4513 43.9258 21.4799 43.8471 21.4799 43.7469V43.1031C21.4799 42.8456 21.4352 42.6006 21.3458 42.3681C21.2564 42.1356 21.1276 41.9335 20.9595 41.7618C20.7914 41.5901 20.5893 41.4542 20.3532 41.3541C20.1172 41.2539 19.8489 41.2038 19.5485 41.2038C19.248 41.2038 18.9815 41.2539 18.749 41.3541C18.5165 41.4542 18.3198 41.5901 18.1589 41.7618C17.9979 41.9335 17.8763 42.1356 17.794 42.3681C17.7117 42.6006 17.6706 42.8456 17.6706 43.1031V44.3693C17.6706 44.6268 17.7171 44.8701 17.8101 45.099C17.9031 45.3279 18.0355 45.5282 18.2072 45.6999C18.3789 45.8716 18.5845 46.0057 18.8242 46.1023C19.0638 46.1988 19.3338 46.2471 19.6343 46.2471C20.0206 46.2471 20.3532 46.172 20.6322 46.0218C20.9112 45.8716 21.1223 45.707 21.2653 45.5282C21.3226 45.4567 21.353 45.3815 21.3565 45.3028ZM20.2888 42.4056C20.4391 42.5988 20.5142 42.8313 20.5142 43.1031V43.1567C20.5142 43.2283 20.4784 43.264 20.4069 43.264H18.7437C18.6721 43.264 18.6364 43.2283 18.6364 43.1567V43.1031C18.6364 42.8313 18.7043 42.5988 18.8402 42.4056C18.9762 42.2125 19.2122 42.1159 19.5485 42.1159C19.8918 42.1159 20.1386 42.2125 20.2888 42.4056ZM26.5157 46.1377C26.4155 46.1377 26.3368 46.1091 26.2796 46.0518C26.2224 45.9946 26.1937 45.9159 26.1937 45.8158V42.3284C26.1937 42.2568 26.158 42.2211 26.0864 42.2211H25.5499C25.4498 42.2211 25.3711 42.1925 25.3139 42.1352C25.2566 42.078 25.228 41.9993 25.228 41.8992V41.6309C25.228 41.5307 25.2566 41.452 25.3139 41.3948C25.3711 41.3376 25.4498 41.309 25.5499 41.309H26.0864C26.158 41.309 26.1937 41.2732 26.1937 41.2017V40.6651C26.1937 40.4076 26.2331 40.1662 26.3118 39.9408C26.3905 39.7155 26.5049 39.5224 26.6552 39.3614C26.8054 39.2004 26.9878 39.0735 27.2024 38.9805C27.417 38.8875 27.6567 38.841 27.9214 38.841H28.1252C28.2254 38.841 28.3041 38.8696 28.3613 38.9268C28.4185 38.9841 28.4471 39.0627 28.4471 39.1629V39.4311C28.4471 39.5313 28.4185 39.61 28.3613 39.6672C28.3041 39.7244 28.2254 39.7531 28.1252 39.7531H27.9643C27.6925 39.7531 27.4903 39.8353 27.358 39.9999C27.2257 40.1644 27.1595 40.3862 27.1595 40.6651V41.2017C27.1595 41.2732 27.1953 41.309 27.2668 41.309H28.1252C28.2254 41.309 28.3041 41.3376 28.3613 41.3948C28.4185 41.452 28.4471 41.5307 28.4471 41.6309V41.8992C28.4471 41.9993 28.4185 42.078 28.3613 42.1352C28.3041 42.1925 28.2254 42.2211 28.1252 42.2211H27.2668C27.1953 42.2211 27.1595 42.2568 27.1595 42.3284V45.8158C27.1595 45.9159 27.1309 45.9946 27.0736 46.0518C27.0164 46.1091 26.9377 46.1377 26.8376 46.1377H26.5157ZM32.2236 45.2063C32.0341 45.2921 31.8284 45.335 31.6067 45.335C31.3849 45.335 31.1792 45.2921 30.9897 45.2063C30.8001 45.1204 30.6356 45.006 30.4961 44.8629C30.3566 44.7198 30.2475 44.5499 30.1688 44.3532C30.0901 44.1565 30.0508 43.9472 30.0508 43.7255C30.0508 43.5037 30.0901 43.2945 30.1688 43.0977C30.2475 42.901 30.3566 42.7311 30.4961 42.588C30.6356 42.445 30.8001 42.3305 30.9897 42.2447C31.1792 42.1588 31.3849 42.1159 31.6067 42.1159C31.8284 42.1159 32.0341 42.1588 32.2236 42.2447C32.4132 42.3305 32.5778 42.445 32.7172 42.588C32.8568 42.7311 32.9658 42.901 33.0445 43.0977C33.1232 43.2945 33.1626 43.5037 33.1626 43.7255C33.1626 43.9472 33.1232 44.1565 33.0445 44.3532C32.9658 44.5499 32.8568 44.7198 32.7172 44.8629C32.5778 45.006 32.4132 45.1204 32.2236 45.2063ZM30.6248 46.0486C30.9289 46.1809 31.2561 46.2471 31.6067 46.2471C31.9572 46.2471 32.2845 46.1809 32.5885 46.0486C32.8925 45.9163 33.159 45.7356 33.3879 45.5067C33.6168 45.2778 33.7974 45.0113 33.9298 44.7073C34.0621 44.4033 34.1283 44.076 34.1283 43.7255C34.1283 43.3749 34.0621 43.0477 33.9298 42.7436C33.7974 42.4396 33.6168 42.1731 33.3879 41.9442C33.159 41.7153 32.8925 41.5347 32.5885 41.4023C32.2845 41.27 31.9572 41.2038 31.6067 41.2038C31.2561 41.2038 30.9289 41.27 30.6248 41.4023C30.3208 41.5347 30.0543 41.7153 29.8254 41.9442C29.5965 42.1731 29.4159 42.4396 29.2835 42.7436C29.1512 43.0477 29.085 43.3749 29.085 43.7255C29.085 44.076 29.1512 44.4033 29.2835 44.7073C29.4159 45.0113 29.5965 45.2778 29.8254 45.5067C30.0543 45.7356 30.3208 45.9163 30.6248 46.0486ZM35.5224 46.1368C35.4222 46.1368 35.3435 46.1082 35.2863 46.0509C35.2291 45.9937 35.2004 45.915 35.2004 45.8149V43.0786C35.2004 42.5564 35.3507 42.1307 35.6511 41.8017C35.9516 41.4726 36.37 41.3081 36.9066 41.3081H37.2929C37.393 41.3081 37.4717 41.3367 37.5289 41.3939C37.5862 41.4511 37.6148 41.5298 37.6148 41.63V41.8982C37.6148 41.9984 37.5862 42.0771 37.5289 42.1343C37.4717 42.1915 37.393 42.2201 37.2929 42.2201H36.971C36.6991 42.2201 36.497 42.3042 36.3647 42.4723C36.2323 42.6404 36.1662 42.8604 36.1662 43.1322V45.8149C36.1662 45.915 36.1376 45.9937 36.0803 46.0509C36.0231 46.1082 35.9444 46.1368 35.8443 46.1368H35.5224ZM44.7296 45.3994C44.7368 45.3207 44.7081 45.2492 44.6438 45.1848L44.4506 44.9917C44.3147 44.8557 44.1645 44.8557 43.9999 44.9917C43.9212 45.0632 43.8139 45.1383 43.678 45.217C43.5421 45.2957 43.3812 45.335 43.1952 45.335C43.0092 45.335 42.8554 45.3082 42.7337 45.2546C42.6121 45.2009 42.5138 45.1276 42.4387 45.0346C42.3636 44.9416 42.3099 44.8325 42.2777 44.7073C42.2455 44.5821 42.2294 44.4515 42.2294 44.3156V43.1353C42.2294 42.8634 42.3045 42.6256 42.4548 42.4217C42.605 42.2178 42.8518 42.1159 43.1952 42.1159C43.3382 42.1159 43.4724 42.1427 43.5975 42.1964C43.7228 42.25 43.8247 42.3126 43.9034 42.3842C44.0608 42.5272 44.2074 42.5308 44.3433 42.3949L44.5472 42.191C44.6116 42.1266 44.6438 42.0515 44.6438 41.9657C44.6438 41.8798 44.6116 41.8047 44.5472 41.7403C44.397 41.5901 44.2074 41.4631 43.9785 41.3594C43.7496 41.2557 43.4885 41.2038 43.1952 41.2038C42.8947 41.2038 42.6264 41.2557 42.3904 41.3594C42.1543 41.4631 41.9522 41.6026 41.7841 41.7779C41.616 41.9531 41.4872 42.1588 41.3978 42.3949C41.3084 42.631 41.2637 42.8778 41.2637 43.1353V44.3156C41.2637 44.5732 41.3048 44.82 41.3871 45.056C41.4694 45.2921 41.5927 45.4978 41.7573 45.673C41.9218 45.8483 42.1239 45.9878 42.3636 46.0915C42.6032 46.1953 42.8804 46.2471 43.1952 46.2471C43.5242 46.2471 43.8158 46.1792 44.0697 46.0433C44.3237 45.9073 44.5114 45.7678 44.633 45.6247C44.6903 45.5532 44.7225 45.4781 44.7296 45.3994ZM45.9809 46.1368C45.8807 46.1368 45.802 46.1082 45.7448 46.0509C45.6876 45.9937 45.659 45.915 45.659 45.8149V43.0786C45.659 42.5564 45.8092 42.1307 46.1096 41.8017C46.4101 41.4726 46.8286 41.3081 47.3651 41.3081H47.7514C47.8515 41.3081 47.9302 41.3367 47.9875 41.3939C48.0447 41.4511 48.0733 41.5298 48.0733 41.63V41.8982C48.0733 41.9984 48.0447 42.0771 47.9875 42.1343C47.9302 42.1915 47.8515 42.2201 47.7514 42.2201H47.4295C47.1576 42.2201 46.9555 42.3042 46.8232 42.4723C46.6909 42.6404 46.6247 42.8604 46.6247 43.1322V45.8149C46.6247 45.915 46.5961 45.9937 46.5389 46.0509C46.4816 46.1082 46.4029 46.1368 46.3028 46.1368H45.9809ZM51.7512 45.2063C51.5616 45.2921 51.356 45.335 51.1342 45.335C50.9124 45.335 50.7068 45.2921 50.5172 45.2063C50.3276 45.1204 50.1631 45.006 50.0236 44.8629C49.8841 44.7198 49.775 44.5499 49.6963 44.3532C49.6177 44.1565 49.5783 43.9472 49.5783 43.7255C49.5783 43.5037 49.6177 43.2945 49.6963 43.0977C49.775 42.901 49.8841 42.7311 50.0236 42.588C50.1631 42.445 50.3276 42.3305 50.5172 42.2447C50.7068 42.1588 50.9124 42.1159 51.1342 42.1159C51.356 42.1159 51.5616 42.1588 51.7512 42.2447C51.9408 42.3305 52.1053 42.445 52.2448 42.588C52.3843 42.7311 52.4934 42.901 52.5721 43.0977C52.6508 43.2945 52.6901 43.5037 52.6901 43.7255C52.6901 43.9472 52.6508 44.1565 52.5721 44.3532C52.4934 44.5499 52.3843 44.7198 52.2448 44.8629C52.1053 45.006 51.9408 45.1204 51.7512 45.2063ZM50.1524 46.0486C50.4564 46.1809 50.7837 46.2471 51.1342 46.2471C51.4847 46.2471 51.812 46.1809 52.1161 46.0486C52.4201 45.9163 52.6865 45.7356 52.9155 45.5067C53.1444 45.2778 53.325 45.0113 53.4574 44.7073C53.5897 44.4033 53.6559 44.076 53.6559 43.7255C53.6559 43.3749 53.5897 43.0477 53.4574 42.7436C53.325 42.4396 53.1444 42.1731 52.9155 41.9442C52.6865 41.7153 52.4201 41.5347 52.1161 41.4023C51.812 41.27 51.4847 41.2038 51.1342 41.2038C50.7837 41.2038 50.4564 41.27 50.1524 41.4023C49.8484 41.5347 49.5819 41.7153 49.353 41.9442C49.1241 42.1731 48.9434 42.4396 48.8111 42.7436C48.6787 43.0477 48.6126 43.3749 48.6126 43.7255C48.6126 44.076 48.6787 44.4033 48.8111 44.7073C48.9434 45.0113 49.1241 45.2778 49.353 45.5067C49.5819 45.7356 49.8484 45.9163 50.1524 46.0486ZM57.7325 42.3274C57.7325 42.2559 57.6968 42.2201 57.6252 42.2201H56.8204C56.4627 42.2201 56.1856 42.331 55.9888 42.5528C55.7921 42.7746 55.6937 43.0392 55.6937 43.3469V44.4092C55.6937 44.681 55.7742 44.9028 55.9352 45.0744C56.0961 45.2461 56.3197 45.332 56.6058 45.332C56.799 45.332 56.9653 45.298 57.1048 45.23C57.2443 45.1621 57.3605 45.0709 57.4535 44.9564C57.5465 44.842 57.6163 44.715 57.6628 44.5755C57.7093 44.436 57.7325 44.2911 57.7325 44.1409V42.3274ZM58.0544 46.1368C57.9543 46.1368 57.8756 46.1046 57.8184 46.0402C57.7611 45.9758 57.7325 45.9043 57.7325 45.8256C57.7325 45.7827 57.7164 45.7558 57.6842 45.7451C57.6521 45.7344 57.6216 45.7469 57.593 45.7827C57.4929 45.9186 57.3444 46.0295 57.1477 46.1153C56.951 46.2012 56.7131 46.2441 56.4341 46.2441C56.1838 46.2441 55.9548 46.1976 55.7474 46.1046C55.5399 46.0116 55.3611 45.8792 55.2109 45.7076C55.0606 45.5359 54.9426 45.3302 54.8568 45.0905C54.7709 44.8509 54.728 44.588 54.728 44.3018V43.3469C54.728 43.0679 54.7781 42.8032 54.8782 42.5528C54.9784 42.3024 55.1197 42.086 55.3021 41.9036C55.4845 41.7212 55.7009 41.5763 55.9513 41.469C56.2016 41.3617 56.4771 41.3081 56.7775 41.3081H58.3764C58.4765 41.3081 58.5552 41.3367 58.6124 41.3939C58.6697 41.4511 58.6983 41.5298 58.6983 41.63V45.8149C58.6983 45.915 58.6697 45.9937 58.6124 46.0509C58.5552 46.1082 58.4765 46.1368 58.3764 46.1368H58.0544ZM60.742 45.6958C60.996 45.9891 61.3912 46.1357 61.9277 46.1357H62.2389C62.3391 46.1357 62.4178 46.1071 62.475 46.0499C62.5322 45.9926 62.5608 45.9139 62.5608 45.8138V45.5455C62.5608 45.4454 62.5322 45.3667 62.475 45.3095C62.4178 45.2522 62.3391 45.2236 62.2389 45.2236H62.0243C61.7525 45.2236 61.5683 45.1521 61.4717 45.009C61.3751 44.866 61.3268 44.6692 61.3268 44.4188V42.3264C61.3268 42.2549 61.3626 42.2191 61.4342 42.2191H62.2389C62.3391 42.2191 62.4178 42.1905 62.475 42.1333C62.5322 42.076 62.5608 41.9973 62.5608 41.8972V41.6289C62.5608 41.5288 62.5322 41.4501 62.475 41.3928C62.4178 41.3356 62.3391 41.307 62.2389 41.307H61.4342C61.3626 41.307 61.3268 41.2712 61.3268 41.1997V40.4486C61.3268 40.3484 61.2982 40.2697 61.241 40.2125C61.1838 40.1553 61.1051 40.1267 61.0049 40.1267H60.683C60.5829 40.1267 60.5042 40.1553 60.4469 40.2125C60.3897 40.2697 60.3611 40.3484 60.3611 40.4486V41.1997C60.3611 41.2712 60.3253 41.307 60.2538 41.307H59.9319C59.8317 41.307 59.753 41.3356 59.6958 41.3928C59.6386 41.4501 59.61 41.5288 59.61 41.6289V41.8972C59.61 41.9973 59.6386 42.076 59.6958 42.1333C59.753 42.1905 59.8317 42.2191 59.9319 42.2191H60.2538C60.3253 42.2191 60.3611 42.2549 60.3611 42.3264V44.4725C60.3611 44.9947 60.4881 45.4025 60.742 45.6958ZM63.9624 40.5599C63.8622 40.5599 63.7836 40.5313 63.7263 40.4741C63.6691 40.4169 63.6405 40.3382 63.6405 40.238V39.7015C63.6405 39.6013 63.6691 39.5227 63.7263 39.4654C63.7836 39.4082 63.8622 39.3796 63.9624 39.3796H64.2843C64.3845 39.3796 64.4632 39.4082 64.5204 39.4654C64.5776 39.5227 64.6062 39.6013 64.6062 39.7015V40.238C64.6062 40.3382 64.5776 40.4169 64.5204 40.4741C64.4632 40.5313 64.3845 40.5599 64.2843 40.5599H63.9624ZM63.9624 46.1398C63.8622 46.1398 63.7836 46.1112 63.7263 46.0539C63.6691 45.9967 63.6405 45.918 63.6405 45.8179V41.633C63.6405 41.5328 63.6691 41.4541 63.7263 41.3969C63.7836 41.3397 63.8622 41.3111 63.9624 41.3111H64.2843C64.3845 41.3111 64.4632 41.3397 64.5204 41.3969C64.5776 41.4541 64.6062 41.5328 64.6062 41.633V45.8179C64.6062 45.918 64.5776 45.9967 64.5204 46.0539C64.4632 46.1112 64.3845 46.1398 64.2843 46.1398H63.9624ZM68.883 42.2201C68.9546 42.2201 68.9903 42.2559 68.9903 42.3274V44.1409C68.9903 44.2911 68.9671 44.436 68.9206 44.5755C68.8741 44.715 68.8043 44.842 68.7113 44.9564C68.6183 45.0709 68.5021 45.1621 68.3626 45.23C68.2231 45.298 68.0568 45.332 67.8636 45.332C67.5775 45.332 67.3539 45.2461 67.193 45.0744C67.032 44.9028 66.9515 44.681 66.9515 44.4092V43.3469C66.9515 43.0392 67.0499 42.7746 67.2466 42.5528C67.4433 42.331 67.7206 42.2201 68.0782 42.2201H68.883ZM69.0762 46.0402C69.1334 46.1046 69.2121 46.1368 69.3122 46.1368H69.6341C69.7343 46.1368 69.813 46.1082 69.8702 46.0509C69.9274 45.9937 69.9561 45.915 69.9561 45.8149V41.63C69.9561 41.5298 69.9274 41.4511 69.8702 41.3939C69.813 41.3367 69.7343 41.3081 69.6341 41.3081H68.0353C67.7349 41.3081 67.4594 41.3617 67.2091 41.469C66.9587 41.5763 66.7423 41.7212 66.5599 41.9036C66.3775 42.086 66.2362 42.3024 66.136 42.5528C66.0359 42.8032 65.9858 43.0679 65.9858 43.3469V44.3018C65.9858 44.588 66.0287 44.8509 66.1146 45.0905C66.2004 45.3302 66.3184 45.5359 66.4687 45.7076C66.6189 45.8792 66.7977 46.0116 67.0052 46.1046C67.2127 46.1976 67.4416 46.2441 67.6919 46.2441C67.9709 46.2441 68.2088 46.2012 68.4055 46.1153C68.6022 46.0295 68.7507 45.9186 68.8508 45.7827C68.8795 45.7469 68.9098 45.7344 68.9421 45.7451C68.9742 45.7558 68.9903 45.7827 68.9903 45.8256C68.9903 45.9043 69.0189 45.9758 69.0762 46.0402Z" fill="white"/>
</svg>
