<svg width="147" height="40" viewBox="0 0 147 40" fill="none" xmlns="http://www.w3.org/2000/svg">
<path d="M54.9223 24.9288H51.9996V11.4547H57.6034C59.1332 11.4547 60.3328 11.8456 61.2024 12.6274C62.0719 13.3933 62.5067 14.542 62.5067 16.0737C62.5067 17.414 62.0558 18.467 61.1541 19.2329C60.2684 19.9827 59.0849 20.3577 57.6034 20.3577H54.9223V24.9288ZM57.1928 13.8001H54.9223V18.2995H57.1928C57.9657 18.2995 58.6018 18.116 59.101 17.749C59.6163 17.3661 59.8739 16.7997 59.8739 16.0498C59.8739 15.284 59.6243 14.7175 59.1251 14.3506C58.6259 13.9836 57.9818 13.8001 57.1928 13.8001Z" fill="black"/>
<path d="M68.5436 25.1682C67.3842 25.1682 66.426 24.9528 65.6692 24.522C64.9124 24.0912 64.3407 23.4929 63.9543 22.727C63.5839 21.9612 63.3987 21.0916 63.3987 20.1184C63.3665 18.6505 63.7852 17.4379 64.6547 16.4806C65.5243 15.5233 66.8206 15.0446 68.5436 15.0446C70.2183 15.0446 71.4904 15.5073 72.3599 16.4327C73.2295 17.3581 73.6643 18.5867 73.6643 20.1184C73.6643 21.0757 73.4791 21.9373 73.1087 22.7031C72.7383 23.453 72.1748 24.0513 71.4179 24.4981C70.6611 24.9448 69.703 25.1682 68.5436 25.1682ZM68.5436 22.751C69.2038 22.751 69.6949 22.6153 70.017 22.3441C70.3551 22.0729 70.5806 21.7298 70.6933 21.315C70.806 20.8842 70.8624 20.4534 70.8624 20.0226C70.8624 19.5759 70.806 19.1451 70.6933 18.7303C70.5806 18.2995 70.3551 17.9485 70.017 17.6772C69.6949 17.39 69.2038 17.2464 68.5436 17.2464C67.8834 17.2464 67.3842 17.39 67.046 17.6772C66.7078 17.9485 66.4824 18.2995 66.3697 18.7303C66.257 19.1451 66.2006 19.5759 66.2006 20.0226C66.2006 20.4534 66.257 20.8842 66.3697 21.315C66.4824 21.7298 66.7078 22.0729 67.046 22.3441C67.3842 22.6153 67.8834 22.751 68.5436 22.751Z" fill="black"/>
<path d="M81.8397 25.1682C81.2439 25.1682 80.7447 25.0804 80.3421 24.9049C79.9557 24.7294 79.6417 24.53 79.4001 24.3066C79.1586 24.0832 78.9815 23.8838 78.8687 23.7083C78.7721 23.5168 78.7238 23.4051 78.7238 23.3732H78.6755V29.5H75.6562V15.0686H78.2166L78.6755 17.031H78.7238C78.7238 17.0151 78.7721 16.9114 78.8687 16.7199C78.9654 16.5125 79.1264 16.2812 79.3518 16.0259C79.5773 15.7706 79.8913 15.5472 80.2938 15.3558C80.6964 15.1643 81.2117 15.0686 81.8397 15.0686C83.3212 15.0686 84.3678 15.5313 84.9797 16.4567C85.5917 17.3821 85.8976 18.6266 85.8976 20.1902C85.8976 21.7378 85.5836 22.9584 84.9556 23.8519C84.3437 24.7294 83.3051 25.1682 81.8397 25.1682ZM80.8977 22.751C81.5257 22.751 81.9927 22.6313 82.2986 22.392C82.6207 22.1367 82.83 21.8176 82.9266 21.4347C83.0394 21.0358 83.0957 20.613 83.0957 20.1662C83.0957 19.7354 83.0394 19.3286 82.9266 18.9457C82.8139 18.5468 82.5965 18.2277 82.2745 17.9884C81.9524 17.7331 81.4854 17.6054 80.8735 17.6054C79.9879 17.6054 79.4001 17.8607 79.1103 18.3713C78.8204 18.8659 78.6755 19.4642 78.6755 20.1662C78.6755 20.8842 78.8204 21.4985 79.1103 22.0091C79.4162 22.5037 80.012 22.751 80.8977 22.751Z" fill="black"/>
<path d="M87.4912 24.9288V15.0686H90.2448L90.438 17.8448C90.5346 17.4299 90.7198 17.0071 90.9936 16.5763C91.2673 16.1455 91.6618 15.7865 92.1771 15.4994C92.6924 15.2122 93.3607 15.0686 94.1819 15.0686H94.4718V18.2755H94.1578C92.8696 18.2755 91.9195 18.4511 91.3076 18.8021C90.7118 19.1371 90.4139 19.8152 90.4139 20.8364V24.9288H87.4912Z" fill="black"/>
<path d="M99.4342 25.1682C98.0654 25.1682 97.1073 24.7135 96.5598 23.804C96.0123 22.8786 95.7386 21.658 95.7386 20.1423C95.7386 18.6106 96.0123 17.3821 96.5598 16.4567C97.1234 15.5153 98.0815 15.0446 99.4342 15.0446C100.046 15.0446 100.553 15.1324 100.956 15.3079C101.358 15.4674 101.68 15.6669 101.922 15.9062C102.164 16.1455 102.333 16.3689 102.429 16.5763C102.542 16.7678 102.614 16.8875 102.647 16.9353H102.695V15.0686H105.69V24.9288H103.154L102.695 23.445H102.647C102.614 23.5248 102.494 23.7083 102.284 23.9955C102.091 24.2667 101.761 24.53 101.294 24.7853C100.843 25.0405 100.223 25.1682 99.4342 25.1682ZM100.642 22.751C101.222 22.751 101.656 22.6313 101.946 22.392C102.236 22.1526 102.429 21.8415 102.526 21.4586C102.623 21.0597 102.671 20.6289 102.671 20.1662C102.671 19.6876 102.623 19.2568 102.526 18.8739C102.429 18.475 102.236 18.1639 101.946 17.9405C101.656 17.7012 101.222 17.5815 100.642 17.5815C100.062 17.5815 99.6193 17.7012 99.3134 17.9405C99.0235 18.1798 98.8303 18.4989 98.7337 18.8978C98.6371 19.2807 98.5888 19.7035 98.5888 20.1662C98.5888 20.6289 98.6371 21.0597 98.7337 21.4586C98.8303 21.8415 99.0235 22.1526 99.3134 22.392C99.6193 22.6313 100.062 22.751 100.642 22.751Z" fill="black"/>
<path d="M114.139 15.0686H116.989V15.4754L113.729 24.9288H109.695L106.41 15.4994V15.0686H109.236L111.724 22.5356H111.772L114.139 15.0686Z" fill="black"/>
<path d="M120.368 13.9437C119.772 13.9597 119.369 13.8241 119.16 13.5369C118.967 13.2337 118.87 12.8747 118.87 12.4599C118.87 12.061 118.967 11.718 119.16 11.4308C119.369 11.1436 119.772 11 120.368 11C120.947 11 121.334 11.1436 121.527 11.4308C121.736 11.718 121.841 12.061 121.841 12.4599C121.841 12.8907 121.736 13.2497 121.527 13.5369C121.334 13.8081 120.947 13.9437 120.368 13.9437ZM118.918 24.9288V15.0686H121.841V24.9288H118.918Z" fill="black"/>
<path d="M125.577 24.9288C124.9 24.9288 124.45 24.7693 124.224 24.4502C123.999 24.1151 123.886 23.7163 123.886 23.2536C123.886 22.8228 123.999 22.4478 124.224 22.1287C124.466 21.8096 124.917 21.6501 125.577 21.6501C126.221 21.6501 126.656 21.8096 126.881 22.1287C127.107 22.4478 127.219 22.8228 127.219 23.2536C127.219 23.7322 127.107 24.1311 126.881 24.4502C126.656 24.7693 126.221 24.9288 125.577 24.9288Z" fill="black"/>
<path d="M133.053 24.9288C132.184 24.9288 131.508 24.7214 131.024 24.3066C130.541 23.8918 130.3 23.1738 130.3 22.1527V17.055H128.875V15.0686C129.293 15.0686 129.632 15.0207 129.889 14.925C130.163 14.8133 130.364 14.5819 130.493 14.2309C130.638 13.8639 130.71 13.3055 130.71 12.5556H133.029V15.0686H135.3V17.055H133.029V22.7031H135.348V24.9288H133.053Z" fill="black"/>
<path d="M141.879 25.1682C140.72 25.1682 139.761 24.9528 139.005 24.522C138.248 24.0912 137.676 23.4929 137.29 22.727C136.919 21.9612 136.734 21.0916 136.734 20.1184C136.702 18.6505 137.121 17.4379 137.99 16.4806C138.86 15.5233 140.156 15.0446 141.879 15.0446C143.554 15.0446 144.826 15.5073 145.695 16.4327C146.565 17.3581 147 18.5867 147 20.1184C147 21.0757 146.814 21.9373 146.444 22.7031C146.074 23.453 145.51 24.0513 144.753 24.4981C143.996 24.9448 143.038 25.1682 141.879 25.1682ZM141.879 22.751C142.539 22.751 143.03 22.6153 143.352 22.3441C143.691 22.0729 143.916 21.7298 144.029 21.315C144.141 20.8842 144.198 20.4534 144.198 20.0226C144.198 19.5759 144.141 19.1451 144.029 18.7303C143.916 18.2995 143.691 17.9485 143.352 17.6772C143.03 17.39 142.539 17.2464 141.879 17.2464C141.219 17.2464 140.72 17.39 140.381 17.6772C140.043 17.9485 139.818 18.2995 139.705 18.7303C139.592 19.1451 139.536 19.5759 139.536 20.0226C139.536 20.4534 139.592 20.8842 139.705 21.315C139.818 21.7298 140.043 22.0729 140.381 22.3441C140.72 22.6153 141.219 22.751 141.879 22.751Z" fill="black"/>
<g clip-path="url(#clip0)">
<path fill-rule="evenodd" clip-rule="evenodd" d="M19.9988 -0.000732422C29.4075 -0.000732422 37.0423 7.63612 37.0423 17.0427C37.0423 19.45 35.9258 23.4674 34.2666 26.1122C29.4353 33.802 19.9988 39.9105 19.9988 39.9105C19.9988 39.9105 10.5658 33.8033 5.73451 26.1143C4.0719 23.4684 2.95538 19.4507 2.95538 17.0427C2.95538 7.63612 10.5936 -0.000732422 19.9988 -0.000732422ZM27.8736 20.7161L25.6927 18.5356C26.5171 16.3731 26.058 13.8323 24.3188 12.0914C22.4893 10.2643 19.7832 9.85002 17.5536 10.849L20.4093 13.7015C21.2371 14.5415 21.2336 15.897 20.3988 16.7328C19.5606 17.569 18.2076 17.5721 17.3658 16.7432L14.5136 13.8907C13.5154 16.1171 13.9293 18.826 15.7554 20.6535C17.498 22.3943 20.0371 22.8524 22.2006 22.0281L24.3814 24.2086C23.084 24.9324 21.5884 25.3453 19.9988 25.3453C15.0249 25.3453 10.9901 21.3077 10.9901 16.3352C10.9901 11.3624 15.0249 7.3248 19.9988 7.3248C24.9727 7.3248 29.011 11.3624 29.011 16.3352C29.011 17.9248 28.5971 19.419 27.8736 20.7161Z" fill="url(#paint0_linear)"/>
</g>
<defs>
<linearGradient id="paint0_linear" x1="8.7649" y1="27.2568" x2="38.5796" y2="-0.0869809" gradientUnits="userSpaceOnUse">
<stop stop-color="#DD310C"/>
<stop offset="1" stop-color="#FC7E37"/>
</linearGradient>
<clipPath id="clip0">
<rect width="40" height="40" fill="white"/>
</clipPath>
</defs>
</svg>
