<svg width="56" height="56" viewBox="0 0 56 56" fill="none" xmlns="http://www.w3.org/2000/svg">
<circle cx="28" cy="28" r="24" fill="#F6F2EF"/>
<path d="M33.1274 33.292V37H22.7234V33.292H26.1074V21.628C25.9394 22.54 25.6394 23.248 25.2074 23.752C24.7994 24.232 24.3434 24.58 23.8394 24.796C23.3594 24.988 22.9154 25.096 22.5074 25.12C22.1234 25.144 21.8714 25.156 21.7514 25.156V20.368C21.8954 20.416 22.2074 20.428 22.6874 20.404C23.1914 20.38 23.7194 20.272 24.2714 20.08C24.8474 19.864 25.3514 19.492 25.7834 18.964C26.2394 18.436 26.4914 17.692 26.5394 16.732H30.4274V33.292H33.1274Z" fill="#917D6E"/>
</svg>
