<svg width="56" height="56" viewBox="0 0 56 56" fill="none" xmlns="http://www.w3.org/2000/svg">
<circle cx="28" cy="28" r="24" fill="#F6F2EF"/>
<path d="M18.5025 33.184V29.476C19.7505 28.948 20.8545 28.192 21.8145 27.208C22.7745 26.224 23.5785 25.132 24.2265 23.932C24.8745 22.708 25.3545 21.472 25.6665 20.224C26.0025 18.976 26.1705 17.812 26.1705 16.732H30.8865C30.8865 18.172 30.5625 19.684 29.9145 21.268C29.2905 22.828 28.3665 24.328 27.1425 25.768C25.9425 27.184 24.4905 28.42 22.7865 29.476H28.5465V26.884H32.9025V29.476H35.2785V33.184H32.9025V37H28.5465V33.184H18.5025Z" fill="#917D6E"/>
</svg>
