<svg width="32" height="32" viewBox="0 0 32 32" fill="none" xmlns="http://www.w3.org/2000/svg">
<path fill-rule="evenodd" clip-rule="evenodd" d="M16.0289 0.120117C7.20981 0.120117 0.0584717 7.39205 0.0584717 16.3632C0.0584717 23.5399 4.63447 29.6285 10.98 31.7764C11.7781 31.9267 12.0712 31.424 12.0712 30.995C12.0712 30.6076 12.0564 29.3281 12.0495 27.9708C7.60651 28.9534 6.66898 26.0543 6.66898 26.0543C5.9425 24.1768 4.89576 23.6776 4.89576 23.6776C3.44677 22.6694 5.00498 22.6902 5.00498 22.6902C6.60869 22.8045 7.45312 24.364 7.45312 24.364C8.87751 26.8473 11.1892 26.1294 12.1005 25.7143C12.2439 24.6648 12.6577 23.9476 13.1145 23.5423C9.56723 23.1316 5.83831 21.7388 5.83831 15.5148C5.83831 13.7414 6.46217 12.2924 7.48379 11.1548C7.31798 10.7455 6.77133 9.09364 7.6385 6.85624C7.6385 6.85624 8.9796 6.41968 12.0315 8.52124C13.3054 8.16134 14.6716 7.98086 16.0289 7.97467C17.3861 7.98086 18.7533 8.16134 20.0296 8.52124C23.0778 6.41968 24.4171 6.85624 24.4171 6.85624C25.2864 9.09364 24.7395 10.7455 24.5736 11.1548C25.5976 12.2924 26.2173 13.7414 26.2173 15.5148C26.2173 21.7536 22.4812 23.1272 18.925 23.5294C19.4978 24.0334 20.0082 25.022 20.0082 26.5374C20.0082 28.7105 19.9897 30.4597 19.9897 30.995C19.9897 31.4272 20.2772 31.9337 21.0867 31.7742C27.4288 29.624 31.999 23.5374 31.999 16.3632C31.999 7.39205 24.8487 0.120117 16.0289 0.120117Z" fill="white"/>
<path fill-rule="evenodd" clip-rule="evenodd" d="M6.10726 23.4417C6.07209 23.5227 5.94726 23.5466 5.83355 23.4912C5.71771 23.4382 5.65265 23.3282 5.69021 23.2472C5.72459 23.1641 5.84968 23.1412 5.96525 23.1964C6.08135 23.2496 6.14746 23.3607 6.10726 23.4417Z" fill="white"/>
<path fill-rule="evenodd" clip-rule="evenodd" d="M6.75414 24.1755C6.67798 24.2473 6.52908 24.2139 6.42806 24.1004C6.3236 23.9872 6.30403 23.8357 6.38125 23.7629C6.45979 23.691 6.60419 23.7247 6.70892 23.8379C6.81338 23.9525 6.83374 24.1028 6.75414 24.1755Z" fill="white"/>
<path fill-rule="evenodd" clip-rule="evenodd" d="M7.38383 25.111C7.28598 25.1801 7.12598 25.1153 7.02707 24.9709C6.92922 24.8264 6.92922 24.6532 7.02918 24.5838C7.12836 24.5144 7.28598 24.5768 7.38621 24.7202C7.48379 24.8668 7.48379 25.0403 7.38383 25.111Z" fill="white"/>
<path fill-rule="evenodd" clip-rule="evenodd" d="M8.24651 26.0148C8.15897 26.113 7.97252 26.0866 7.83606 25.9526C7.69642 25.8216 7.65755 25.6358 7.74535 25.5376C7.83394 25.4392 8.02145 25.4669 8.15897 25.5997C8.29755 25.7305 8.33986 25.9177 8.24651 26.0148Z" fill="white"/>
<path fill-rule="evenodd" clip-rule="evenodd" d="M9.43659 26.5396C9.39798 26.6668 9.21841 26.7246 9.03751 26.6706C8.85688 26.6149 8.73867 26.4659 8.77517 26.3373C8.81272 26.2092 8.99308 26.149 9.1753 26.2068C9.35566 26.2622 9.47414 26.4102 9.43659 26.5396Z" fill="white"/>
<path fill-rule="evenodd" clip-rule="evenodd" d="M10.7436 26.6369C10.7481 26.7709 10.5947 26.882 10.4048 26.8841C10.2138 26.8887 10.0594 26.7803 10.0573 26.6485C10.0573 26.5132 10.2072 26.4032 10.3982 26.4C10.5881 26.3962 10.7436 26.5038 10.7436 26.6369Z" fill="white"/>
<path fill-rule="evenodd" clip-rule="evenodd" d="M11.9598 26.4263C11.9826 26.557 11.8506 26.6913 11.662 26.7268C11.4767 26.7615 11.305 26.6808 11.2815 26.5511C11.2585 26.4172 11.3928 26.2829 11.5779 26.2482C11.7668 26.2149 11.9358 26.2934 11.9598 26.4263Z" fill="white"/>
</svg>
