<svg width="34" height="38" viewBox="0 0 34 38" fill="none" xmlns="http://www.w3.org/2000/svg">
<path fill-rule="evenodd" clip-rule="evenodd" d="M16.9989 -0.000488281C25.9371 -0.000488281 33.1902 7.25452 33.1902 16.1908C33.1902 18.4777 32.1295 22.2942 30.5533 24.8068C25.9636 32.1121 16.9989 37.9151 16.9989 37.9151C16.9989 37.9151 8.03752 32.1134 3.44778 24.8088C1.86831 22.2952 0.807617 18.4784 0.807617 16.1908C0.807617 7.25452 8.06395 -0.000488281 16.9989 -0.000488281ZM24.4799 19.6805L22.4081 17.609C23.1912 15.5547 22.7551 13.1409 21.1029 11.487C19.3648 9.75128 16.794 9.35773 14.6759 10.3067L17.3888 13.0166C18.1753 13.8146 18.1719 15.1023 17.3789 15.8964C16.5826 16.6907 15.2972 16.6937 14.4975 15.9063L11.7879 13.1964C10.8396 15.3115 11.2328 17.8849 12.9676 19.621C14.6231 21.2748 17.0353 21.71 19.0906 20.9269L21.1624 22.9984C19.9298 23.686 18.509 24.0782 16.9989 24.0782C12.2737 24.0782 8.44064 20.2426 8.44064 15.5187C8.44064 10.7945 12.2737 6.95877 16.9989 6.95877C21.7241 6.95877 25.5605 10.7945 25.5605 15.5187C25.5605 17.0288 25.1672 18.4483 24.4799 19.6805Z" fill="url(#paint0_linear)"/>
<defs>
<linearGradient id="paint0_linear" x1="6.32666" y1="25.8942" x2="34.6506" y2="-0.082424" gradientUnits="userSpaceOnUse">
<stop stop-color="#DD310C"/>
<stop offset="1" stop-color="#FC7E37"/>
</linearGradient>
</defs>
</svg>
