<svg width="56" height="56" viewBox="0 0 56 56" fill="none" xmlns="http://www.w3.org/2000/svg">
<circle cx="28" cy="28" r="24" fill="#F6F2EF"/>
<path d="M18.9503 37V33.4C18.9743 33.376 19.2863 33.232 19.8863 32.968C20.4863 32.68 21.2423 32.296 22.1543 31.816C23.0663 31.336 24.0263 30.76 25.0343 30.088C26.0423 29.416 26.9783 28.684 27.8423 27.892C28.7063 27.076 29.3663 26.212 29.8223 25.3C30.3263 24.244 30.4823 23.32 30.2903 22.528C30.1223 21.736 29.7143 21.136 29.0663 20.728C28.4423 20.296 27.7223 20.08 26.9063 20.08C25.6583 20.08 24.6743 20.524 23.9543 21.412C23.2583 22.276 23.0543 23.62 23.3423 25.444L19.3103 24.868C19.0703 23.092 19.2743 21.58 19.9223 20.332C20.5943 19.06 21.5783 18.1 22.8743 17.452C24.1703 16.78 25.6583 16.444 27.3383 16.444C28.6343 16.444 29.8103 16.684 30.8663 17.164C31.9463 17.644 32.8103 18.316 33.4583 19.18C34.1303 20.02 34.5143 20.992 34.6103 22.096C34.7303 23.2 34.4903 24.376 33.8903 25.624C33.3863 26.608 32.7383 27.496 31.9463 28.288C31.1783 29.056 30.3383 29.74 29.4263 30.34C28.5383 30.94 27.6623 31.456 26.7983 31.888C25.9583 32.296 25.2143 32.62 24.5663 32.86C23.9423 33.076 23.5103 33.22 23.2703 33.292H34.9703V37H18.9503Z" fill="#917D6E"/>
</svg>
