<svg width="206" height="201" viewBox="0 0 206 201" fill="none" xmlns="http://www.w3.org/2000/svg">
<path d="M130.777 45.2047H75.269C74.004 45.2063 72.7913 45.7092 71.8969 46.6033C71.0025 47.4974 70.4993 48.7096 70.4978 49.974V173.291L69.8616 173.485L56.2446 177.653C55.5992 177.85 54.9022 177.783 54.3064 177.466C53.7107 177.15 53.265 176.61 53.0671 175.965L12.5627 43.7135C12.3655 43.0684 12.4327 42.3715 12.7494 41.7759C13.0662 41.1803 13.6065 40.7348 14.2517 40.5372L35.2355 34.1146L96.0682 15.5018L117.052 9.07918C117.371 8.98094 117.707 8.94661 118.039 8.97815C118.372 9.0097 118.695 9.10651 118.99 9.26303C119.285 9.41955 119.547 9.63271 119.76 9.89032C119.972 10.1479 120.132 10.4449 120.23 10.7643L130.583 44.5688L130.777 45.2047Z" fill="#F2F2F2"/>
<path d="M142.89 44.5697L130.412 3.82748C130.205 3.14864 129.865 2.51734 129.413 1.96967C128.962 1.42199 128.406 0.968666 127.779 0.635599C127.152 0.302533 126.465 0.0962476 125.759 0.0285404C125.052 -0.0391667 124.338 0.0330305 123.659 0.240999L94.1575 9.26762L33.328 27.8836L3.82608 36.9134C2.45558 37.3341 1.30804 38.2811 0.635346 39.5466C-0.0373481 40.8122 -0.180238 42.2928 0.238047 43.6635L42.8862 182.904C43.226 184.01 43.9116 184.979 44.8425 185.667C45.7733 186.355 46.9004 186.727 48.0583 186.729C48.5942 186.729 49.1271 186.648 49.639 186.49L69.8626 180.303L70.4987 180.106V179.441L69.8626 179.635L49.4514 185.883C48.2417 186.251 46.9351 186.125 45.8182 185.532C44.7014 184.939 43.8654 183.928 43.4938 182.719L0.848891 43.4759C0.664751 42.8772 0.600574 42.248 0.660031 41.6245C0.719488 41.0009 0.901408 40.3952 1.19538 39.842C1.48936 39.2889 1.88962 38.7991 2.37322 38.4008C2.85683 38.0024 3.41429 37.7034 4.01369 37.5207L33.5156 28.4909L94.3452 9.87808L123.847 0.848291C124.302 0.7096 124.774 0.638885 125.25 0.638442C126.27 0.640732 127.262 0.969479 128.082 1.57653C128.902 2.18358 129.506 3.03704 129.805 4.0119L142.226 44.5697L142.423 45.2056H143.085L142.89 44.5697Z" fill="#3F3D56"/>
<path d="M39.0222 40.6406C38.4092 40.6402 37.8124 40.4434 37.3194 40.0791C36.8265 39.7148 36.4633 39.2021 36.2831 38.6164L32.1862 25.2396C32.0761 24.8803 32.0379 24.5028 32.0737 24.1287C32.1096 23.7546 32.2188 23.3913 32.3952 23.0594C32.5716 22.7275 32.8116 22.4337 33.1017 22.1945C33.3917 21.9554 33.726 21.7757 34.0855 21.6658L90.0481 4.53976C90.7741 4.31831 91.5583 4.39384 92.2286 4.74975C92.8989 5.10566 93.4006 5.71289 93.6235 6.43814L97.7205 19.815C97.9419 20.5407 97.8663 21.3246 97.5103 21.9946C97.1542 22.6646 96.5468 23.1661 95.8214 23.389L39.8586 40.5151C39.5876 40.5982 39.3057 40.6405 39.0222 40.6406Z" fill="#2C8F72"/>
<path d="M60.4841 14.2932C63.9975 14.2932 66.8457 11.4462 66.8457 7.93421C66.8457 4.42222 63.9975 1.5752 60.4841 1.5752C56.9707 1.5752 54.1225 4.42222 54.1225 7.93421C54.1225 11.4462 56.9707 14.2932 60.4841 14.2932Z" fill="#2C8F72"/>
<path d="M60.4838 11.9607C62.7086 11.9607 64.5121 10.1578 64.5121 7.93395C64.5121 5.71005 62.7086 3.90723 60.4838 3.90723C58.259 3.90723 56.4554 5.71005 56.4554 7.93395C56.4554 10.1578 58.259 11.9607 60.4838 11.9607Z" fill="white"/>
<path d="M191.686 185.103H84.1754C83.4586 185.102 82.7713 184.817 82.2645 184.31C81.7576 183.804 81.4725 183.117 81.4717 182.4V53.6303C81.4725 52.9138 81.7576 52.2268 82.2645 51.7202C82.7713 51.2135 83.4585 50.9285 84.1754 50.9277H191.686C192.403 50.9286 193.09 51.2136 193.597 51.7202C194.104 52.2269 194.389 52.9138 194.39 53.6303V182.4C194.389 183.117 194.104 183.804 193.597 184.31C193.09 184.817 192.403 185.102 191.686 185.103Z" fill="#E6E6E6"/>
<path d="M142.225 44.5684H75.2689C73.8354 44.5704 72.4612 45.1405 71.4476 46.1537C70.434 47.167 69.8636 48.5406 69.8616 49.9735V179.634L70.4977 179.44V49.9735C70.4993 48.7091 71.0024 47.4969 71.8969 46.6028C72.7913 45.7088 74.004 45.2058 75.2689 45.2043H142.422L142.225 44.5684ZM200.592 44.5684H75.2689C73.8354 44.5704 72.4612 45.1405 71.4476 46.1537C70.434 47.167 69.8636 48.5406 69.8616 49.9735V195.595C69.8636 197.028 70.434 198.401 71.4476 199.415C72.4612 200.428 73.8354 200.998 75.2689 201H200.592C202.026 200.998 203.4 200.428 204.414 199.415C205.427 198.401 205.998 197.028 206 195.595V49.9735C205.998 48.5406 205.427 47.167 204.414 46.1537C203.4 45.1405 202.026 44.5704 200.592 44.5684ZM205.364 195.595C205.362 196.859 204.859 198.071 203.964 198.966C203.07 199.86 201.857 200.363 200.592 200.364H75.2689C74.004 200.363 72.7913 199.86 71.8969 198.966C71.0024 198.071 70.4993 196.859 70.4977 195.595V49.9735C70.4993 48.7091 71.0024 47.4969 71.8969 46.6028C72.7913 45.7088 74.004 45.2058 75.2689 45.2043H200.592C201.857 45.2058 203.07 45.7088 203.964 46.6028C204.859 47.4969 205.362 48.7091 205.364 49.9735V195.595Z" fill="#3F3D56"/>
<path d="M167.194 58.5586H108.668C107.909 58.5578 107.181 58.256 106.644 57.7196C106.108 57.1831 105.806 56.4557 105.805 55.6971V41.7073C105.806 40.9486 106.108 40.2212 106.644 39.6848C107.181 39.1483 107.909 38.8466 108.668 38.8457H167.194C167.953 38.8466 168.681 39.1483 169.217 39.6848C169.754 40.2212 170.056 40.9486 170.057 41.7073V55.6971C170.056 56.4557 169.754 57.1831 169.218 57.7196C168.681 58.256 167.953 58.5578 167.194 58.5586Z" fill="#2C8F72"/>
<path d="M137.931 39.7991C141.444 39.7991 144.292 36.9521 144.292 33.4401C144.292 29.9281 141.444 27.0811 137.931 27.0811C134.417 27.0811 131.569 29.9281 131.569 33.4401C131.569 36.9521 134.417 39.7991 137.931 39.7991Z" fill="#2C8F72"/>
<path d="M137.931 37.3129C140.071 37.3129 141.806 35.5788 141.806 33.4396C141.806 31.3005 140.071 29.5664 137.931 29.5664C135.791 29.5664 134.056 31.3005 134.056 33.4396C134.056 35.5788 135.791 37.3129 137.931 37.3129Z" fill="white"/>
</svg>
